<svg width="147" height="120" viewBox="0 0 147 120" fill="none" xmlns="http://www.w3.org/2000/svg">
<path d="M103.861 38.7488H39.8244C37.5408 38.7488 35.7119 40.6092 35.7119 42.8613V52.7683H107.981V42.8613C107.979 41.77 107.545 40.724 106.772 39.9529C106 39.1819 104.953 38.7488 103.862 38.7488H103.861Z" fill="white"/>
<path d="M145.317 91.4575C141.998 85.5422 138.469 85.0221 135.289 82.3561C131.798 79.4369 132.268 77.4503 129.507 70.7295C127.931 66.8847 127.728 63.1784 118.074 62.5283C115.139 62.3305 106.031 62.8653 106.031 62.8653V107.349L140.226 106.169C142.162 106.118 144.586 106.023 145.919 104.627C147.131 103.357 146.503 93.5772 145.316 91.4575H145.317Z" fill="white"/>
<path d="M145.653 91.2698C142.279 85.2506 138.69 84.7059 135.537 82.0614C132.143 79.2238 132.631 77.3233 129.864 70.584C128.192 66.5092 127.889 62.8037 118.101 62.1451C115.174 61.9481 106.382 62.4605 106.009 62.4821C105.911 62.4878 105.819 62.5307 105.751 62.6021C105.684 62.6735 105.646 62.7679 105.646 62.866C105.646 107.622 105.577 107.445 105.764 107.626C105.949 107.806 105.776 107.6 140.237 106.553C142.13 106.496 144.725 106.436 146.198 104.892C147.658 103.363 146.803 93.3218 145.653 91.2698ZM145.642 104.361C144.387 105.676 141.977 105.739 140.213 105.785L106.416 106.951V63.2292C108.137 63.1338 115.502 62.7414 118.049 62.9122C127.257 63.5316 127.487 66.8224 129.151 70.8756C131.902 77.5726 131.454 79.6508 135.042 82.6515C138.246 85.3376 141.724 85.8415 144.981 91.646C146.175 93.7788 146.668 103.285 145.641 104.361H145.642Z" fill="#501200"/>
<path d="M106.032 52.7683H37.6538V107.349H106.032V52.7683Z" fill="#FFB949"/>
<path d="M121.841 66.8201L129.216 81.3667L111.313 80.8843L111.135 66.5724L121.841 66.8201Z" fill="#FCCAC2"/>
<path d="M129.216 81.7506L111.301 81.269C111.202 81.2662 111.108 81.2251 111.038 81.1543C110.968 81.0834 110.928 80.9883 110.927 80.8889C110.744 66.2992 110.682 66.477 110.863 66.2984C111.045 66.1169 110.898 66.1776 121.849 66.4346C121.918 66.4362 121.986 66.4566 122.045 66.4937C122.104 66.5309 122.152 66.5833 122.183 66.6454L129.558 81.192C129.588 81.2507 129.602 81.316 129.599 81.3817C129.597 81.4473 129.577 81.5113 129.543 81.5673C129.508 81.6233 129.46 81.6696 129.403 81.7017C129.345 81.7338 129.281 81.7506 129.215 81.7506H129.216ZM111.692 80.5095L128.581 80.9643L121.602 67.1994L111.525 66.9663L111.693 80.5103L111.692 80.5095Z" fill="#501200"/>
<path d="M76.3749 38.7488H67.1465V107.349H76.3749V38.7488Z" fill="#FF7449"/>
<path d="M98.6 26.652C97.3558 24.6654 94.0943 25.1224 92.2215 25.4463C88.3183 26.1319 84.5928 27.9785 81.3559 30.2952C80.1494 31.1623 78.1612 32.3949 77.1433 33.6768C76.6086 33.0366 75.8661 32.6773 74.8312 32.8843C73.8979 33.0751 72.8315 34.4454 71.9436 34.2992C70.3001 34.0199 69.1637 32.3511 67.2917 32.5988C66.4369 32.7104 65.8183 33.3605 65.382 34.1346C64.4226 32.6165 62.5906 31.3955 61.2818 30.4029C57.8294 27.7884 53.9708 25.7764 49.9022 24.8493C48.271 24.4746 45.1172 23.8721 43.8792 25.6995C42.705 27.4322 45.8081 30.1929 46.2844 31.7348C46.5829 32.6927 46.0558 33.6706 45.815 34.5716C45.1764 36.9276 44.9656 37.8078 46.012 38.748H98.6446C99.6125 35.0863 97.4566 35.6457 96.9757 33.042C96.5633 30.8461 100.079 29.0003 98.6 26.652Z" fill="#FF7449"/>
<path d="M103.861 38.3641H79.0409C78.7801 36.8945 78.56 34.8432 77.5159 33.5244C76.8235 32.6365 75.8694 32.2841 74.756 32.5088C73.7658 32.7096 72.6548 34.0299 72.0092 33.9207C70.4635 33.6591 69.2809 31.9456 67.2435 32.218C64.6275 32.5588 63.9258 36.9968 63.9496 38.3641H39.8254C37.2947 38.3641 35.3281 40.4346 35.3281 42.8613V52.7683C35.3281 52.8703 35.3687 52.9682 35.4408 53.0403C35.5129 53.1125 35.6108 53.153 35.7128 53.153H37.2701V107.349C37.2701 107.451 37.3107 107.549 37.3828 107.621C37.455 107.693 37.5528 107.734 37.6548 107.734H106.033C106.135 107.734 106.233 107.693 106.305 107.621C106.377 107.549 106.417 107.451 106.417 107.349V53.153H107.981C108.083 53.153 108.181 53.1125 108.253 53.0403C108.325 52.9682 108.366 52.8703 108.366 52.7683V42.8613C108.365 41.6678 107.89 40.5236 107.045 39.6802C106.201 38.8369 105.056 38.3634 103.862 38.3641H103.861ZM65.9755 33.923C66.3733 33.3636 66.8326 33.0466 67.342 32.9805C68.2983 32.8535 69.057 33.3098 69.8587 33.7922C72.0454 35.1056 72.4647 34.8386 73.7766 33.9014C74.1713 33.6198 74.5791 33.3282 74.9069 33.2613C77.3451 32.7727 77.8599 35.945 78.2592 38.3633H64.7152C64.7021 37.6985 64.9806 35.3218 65.9747 33.9222L65.9755 33.923ZM105.647 106.964H38.0388V53.153H105.647V106.964ZM107.595 52.3836H36.096V42.8613C36.096 40.85 37.7264 39.1335 39.8238 39.1335H103.861C104.851 39.1329 105.8 39.5252 106.5 40.2243C107.201 40.9233 107.594 41.8719 107.595 42.8613V52.3836Z" fill="#501200"/>
<path d="M57.3214 99.9558C61.1931 99.9558 64.3277 103.091 64.3277 106.956C64.3277 110.821 61.1924 113.962 57.3214 113.962C53.4513 113.962 50.3213 110.821 50.3213 106.956C50.3213 103.091 53.4567 99.9558 57.3214 99.9558Z" fill="white"/>
<path d="M57.3214 94.3159C50.3513 94.3159 44.6807 99.9865 44.6807 106.956C44.6756 108.617 44.9991 110.263 45.6326 111.799C46.2661 113.335 47.197 114.731 48.3718 115.905C49.5466 117.08 50.9422 118.011 52.4781 118.644C54.014 119.278 55.6601 119.601 57.3214 119.596C64.3754 119.596 69.9676 114.004 69.9676 106.956C69.9676 100.086 64.4139 94.3159 57.3214 94.3159ZM57.3214 113.578C53.6736 113.578 50.7052 110.608 50.7052 106.957C50.7052 103.306 53.6729 100.34 57.3214 100.34C60.97 100.34 63.943 103.308 63.943 106.957C63.943 110.605 60.9723 113.578 57.3214 113.578Z" fill="#501200"/>
<path d="M127.75 99.9586C131.622 99.9586 134.756 103.094 134.756 106.959C134.756 110.824 131.621 113.965 127.75 113.965C123.879 113.965 120.75 110.824 120.75 106.959C120.75 103.094 123.885 99.9586 127.75 99.9586Z" fill="white"/>
<path d="M127.75 94.3188C120.78 94.3188 115.109 99.9894 115.109 106.959C115.104 108.62 115.428 110.266 116.061 111.802C116.695 113.338 117.626 114.733 118.801 115.908C119.975 117.083 121.371 118.014 122.907 118.647C124.443 119.281 126.089 119.604 127.75 119.599C134.804 119.599 140.396 114.007 140.396 106.959C140.396 100.089 134.843 94.3188 127.75 94.3188ZM127.75 113.581C124.102 113.581 121.134 110.61 121.134 106.96C121.134 103.309 124.102 100.343 127.75 100.343C131.399 100.343 134.372 103.311 134.372 106.96C134.372 110.608 131.401 113.581 127.75 113.581Z" fill="#501200"/>
<path d="M32.7521 69.3237H9.58344C9.48141 69.3237 9.38356 69.2832 9.31141 69.2111C9.23926 69.1389 9.19873 69.0411 9.19873 68.939C9.19873 68.837 9.23926 68.7391 9.31141 68.667C9.38356 68.5949 9.48141 68.5543 9.58344 68.5543H32.7521C32.8541 68.5543 32.952 68.5949 33.0241 68.667C33.0963 68.7391 33.1368 68.837 33.1368 68.939C33.1368 69.0411 33.0963 69.1389 33.0241 69.2111C32.952 69.2832 32.8541 69.3237 32.7521 69.3237Z" fill="#501200"/>
<path d="M32.7517 63.54H0.384708C0.282677 63.54 0.184825 63.4995 0.112678 63.4274C0.0405317 63.3552 0 63.2574 0 63.1553C0 63.0533 0.0405317 62.9555 0.112678 62.8833C0.184825 62.8112 0.282677 62.7706 0.384708 62.7706H32.7517C32.8537 62.7706 32.9516 62.8112 33.0237 62.8833C33.0959 62.9555 33.1364 63.0533 33.1364 63.1553C33.1364 63.2574 33.0959 63.3552 33.0237 63.4274C32.9516 63.4995 32.8537 63.54 32.7517 63.54Z" fill="#501200"/>
<path d="M32.7516 80.8912H17.7119C17.6098 80.8912 17.512 80.8507 17.4398 80.7786C17.3677 80.7064 17.3271 80.6086 17.3271 80.5065C17.3271 80.4045 17.3677 80.3067 17.4398 80.2345C17.512 80.1624 17.6098 80.1218 17.7119 80.1218H32.7516C32.8537 80.1218 32.9515 80.1624 33.0237 80.2345C33.0958 80.3067 33.1363 80.4045 33.1363 80.5065C33.1363 80.6086 33.0958 80.7064 33.0237 80.7786C32.9515 80.8507 32.8537 80.8912 32.7516 80.8912Z" fill="#501200"/>
<path d="M32.7516 75.1067H3.58539C3.48336 75.1067 3.38551 75.0662 3.31336 74.994C3.24122 74.9219 3.20068 74.824 3.20068 74.722C3.20068 74.62 3.24122 74.5221 3.31336 74.45C3.38551 74.3778 3.48336 74.3373 3.58539 74.3373H32.7516C32.8537 74.3372 32.9515 74.3776 33.0238 74.4497C33.096 74.5218 33.1366 74.6196 33.1367 74.7216C33.1368 74.8236 33.0964 74.9215 33.0243 74.9937C32.9522 75.066 32.8544 75.1066 32.7524 75.1067H32.7516Z" fill="#501200"/>
<path d="M132.643 39.8031C131.551 40.7418 130.39 42.2975 130.244 44.0934C130.105 45.883 131.006 47.6096 131.938 48.7006C131.005 47.608 129.444 46.4478 127.648 46.3016C125.858 46.1623 124.132 47.0633 123.041 47.9958C124.132 47.0625 125.293 45.5014 125.44 43.7117C125.579 41.9159 124.678 40.1955 123.745 39.0975C124.679 40.1955 126.24 41.3573 128.036 41.4966C129.825 41.6351 131.552 40.7418 132.643 39.8031Z" fill="#FFB949"/>
<path d="M70.7197 8.44401C69.3363 8.05699 67.3943 7.96774 65.8262 8.85026C64.2589 9.73278 63.3318 11.4463 62.9447 12.8297C63.3318 11.4463 63.4272 9.49734 62.5385 7.9362C61.656 6.3689 59.9494 5.44175 58.5591 5.05473C59.9486 5.44175 61.8914 5.531 63.4587 4.64848C65.0199 3.76596 65.9462 2.05248 66.334 0.669067C65.947 2.05248 65.8578 4.0014 66.7403 5.56255C67.6228 7.12985 69.3363 8.05699 70.7197 8.44401Z" fill="#FFB949"/>
<path d="M29.5996 35.849C28.21 35.4681 26.2672 35.3727 24.6999 36.2552C23.1326 37.1439 22.2124 38.8512 21.8246 40.2408C22.2116 38.8512 22.3009 36.9085 21.4184 35.3412C20.5359 33.78 18.8224 32.8537 17.439 32.4659C18.8224 32.8529 20.7644 32.9421 22.3324 32.0596C23.8997 31.1771 24.8269 29.4636 25.2139 28.0802C24.8269 29.4636 24.7315 31.4056 25.614 32.9737C26.5027 34.541 28.21 35.4681 29.5996 35.849Z" fill="#FFB949"/>
<path d="M50.9223 65.6362C50.8447 65.6363 50.7689 65.6129 50.7048 65.5691C50.6407 65.5253 50.5914 65.4632 50.5633 65.3909C50.5351 65.3186 50.5295 65.2395 50.5472 65.1639C50.5649 65.0883 50.605 65.0199 50.6622 64.9675C57.8409 58.3983 52.8689 48.7667 57.7993 41.2465C60.5407 37.0655 68.2241 34.945 72.9622 38.3027C73.0446 38.362 73.1002 38.4515 73.1169 38.5516C73.1336 38.6517 73.11 38.7544 73.0513 38.8372C72.9926 38.9201 72.9036 38.9764 72.8036 38.9938C72.7036 39.0113 72.6007 38.9886 72.5175 38.9305C68.1872 35.8621 60.9793 37.7995 58.4425 41.6673C53.726 48.8621 58.5833 58.7614 51.1816 65.5346C51.1109 65.5998 51.0184 65.636 50.9223 65.6362Z" fill="#501200"/>
<path d="M51.6939 64.2574C52.1786 65.2084 53.2174 72.0432 53.1296 73.7605C53.0589 75.1077 38.8624 99.4151 38.8624 99.4151L26.8672 91.7002C26.8672 91.7002 40.3504 63.3772 41.5476 63.0602C43.2657 62.6109 51.4477 63.755 51.6939 64.2574Z" fill="#FF7449"/>
<path d="M37.4535 92.9373C36.5637 92.4961 35.6768 92.049 34.7928 91.5962C35.0529 91.0623 35.7946 89.5734 36.0962 89.0449C36.1212 89.0009 36.1373 88.9525 36.1436 88.9023C36.1499 88.8521 36.1462 88.8012 36.1328 88.7524C36.1194 88.7037 36.0966 88.658 36.0655 88.6181C36.0345 88.5782 35.9959 88.5447 35.952 88.5197C35.908 88.4947 35.8595 88.4786 35.8094 88.4723C35.7592 88.4661 35.7083 88.4697 35.6595 88.4831C35.6107 88.4965 35.5651 88.5194 35.5252 88.5504C35.4853 88.5815 35.4518 88.6201 35.4268 88.664C34.6697 89.9943 34.1927 90.7745 33.998 91.1869C33.1955 90.7699 32.5646 90.4306 32.2822 90.2567C32.5007 89.6473 33.4433 87.8992 33.741 87.2975C33.7861 87.2059 33.793 87.1001 33.7601 87.0034C33.7272 86.9068 33.6572 86.8271 33.5656 86.782C33.474 86.7369 33.3682 86.7301 33.2715 86.763C33.1748 86.7959 33.0952 86.8658 33.0501 86.9574C32.1807 88.7256 31.3081 90.1028 31.5105 90.576C31.5767 90.7307 31.6598 90.923 37.1111 93.6275C37.565 93.8545 37.9082 93.1635 37.4527 92.9381V92.9373H37.4535Z" fill="white"/>
<path d="M40.071 88.0508C37.0326 86.245 34.5897 85.0778 34.869 84.3746C35.1459 83.6775 36.2862 82.1833 37.3896 81.9286C37.8274 81.8286 38.2259 81.9263 38.5414 82.2125C39.0099 82.6403 38.9676 83.6282 38.7045 85.0809C39.9256 84.3346 42.0776 83.2428 42.7285 83.0042C42.8244 82.9692 42.9303 82.9738 43.0229 83.0168C43.1155 83.0599 43.1871 83.138 43.2221 83.2339C43.2571 83.3298 43.2526 83.4357 43.2095 83.5283C43.1664 83.6208 43.0884 83.6925 42.9924 83.7275C41.8306 84.1522 38.4475 86.195 38.429 86.2142C38.5083 86.2612 40.378 87.3568 40.4572 87.3899C40.5343 87.446 40.5877 87.5288 40.6073 87.6221C40.6268 87.7154 40.6109 87.8127 40.5628 87.895C40.5147 87.9773 40.4378 88.0388 40.3469 88.0676C40.256 88.0964 40.1577 88.0904 40.071 88.0508ZM35.673 84.47C35.89 84.6508 36.4432 85.0324 37.7873 85.8349C37.8112 85.551 38.369 83.0981 38.022 82.7811C37.4165 82.2302 36.0854 83.7036 35.673 84.47Z" fill="white"/>
<path d="M46.0715 76.4486C45.9807 76.4021 45.8753 76.3934 45.7781 76.4244C45.681 76.4554 45.6 76.5236 45.5529 76.614C44.722 78.2244 43.6586 80.0787 43.2908 80.4549C43.0031 80.3942 42.3775 80.0879 41.7174 79.7309C42.1344 78.9415 43.497 76.3663 43.6886 76.0585C43.7153 76.0156 43.7332 75.9678 43.7413 75.9179C43.7495 75.8681 43.7478 75.8171 43.7362 75.7679C43.7247 75.7187 43.7036 75.6723 43.6741 75.6312C43.6446 75.5902 43.6073 75.5554 43.5644 75.5288C43.5214 75.5021 43.4737 75.4842 43.4238 75.4761C43.3739 75.4679 43.323 75.4696 43.2738 75.4812C43.2246 75.4927 43.1781 75.5138 43.1371 75.5433C43.0961 75.5728 43.0613 75.6101 43.0346 75.653C42.8261 75.99 41.4904 78.516 41.0449 79.357C40.6124 79.1127 40.1858 78.8582 39.7654 78.5937C40.3571 77.375 41.4227 75.2075 41.879 74.3904C41.9052 74.3462 41.9223 74.2972 41.9292 74.2463C41.9362 74.1954 41.9329 74.1436 41.9195 74.094C41.9062 74.0444 41.883 73.998 41.8514 73.9575C41.8198 73.917 41.7804 73.8832 41.7355 73.8582C41.6906 73.8332 41.6412 73.8174 41.5901 73.8118C41.5391 73.8061 41.4874 73.8108 41.4381 73.8255C41.3889 73.8402 41.3431 73.8646 41.3035 73.8972C41.2638 73.9299 41.2311 73.9702 41.2073 74.0157C40.711 74.9044 39.5199 77.3334 38.959 78.4937C38.8767 78.6645 38.9098 78.9107 39.1999 79.1362C39.9954 79.754 42.7653 81.2359 43.3801 81.2359C43.6086 81.2359 44.0341 81.2359 46.2377 76.968C46.2609 76.923 46.2751 76.874 46.2793 76.8236C46.2836 76.7733 46.2778 76.7225 46.2625 76.6744C46.2471 76.6262 46.2224 76.5816 46.1898 76.5429C46.1571 76.5043 46.1172 76.4725 46.0723 76.4494L46.0715 76.4486Z" fill="white"/>
<path d="M49.8488 69.6363C49.758 69.5897 49.6525 69.5809 49.5553 69.6119C49.4581 69.6429 49.3771 69.7112 49.3302 69.8018C48.4992 71.4122 47.4359 73.2664 47.0681 73.6427C46.7796 73.5819 46.154 73.2757 45.4939 72.9187C45.9094 72.1316 47.2712 69.5571 47.4651 69.2478C47.5143 69.1615 47.5282 69.0596 47.5039 68.9633C47.4797 68.867 47.4191 68.7839 47.3349 68.7312C47.2508 68.6785 47.1495 68.6604 47.0523 68.6807C46.9551 68.701 46.8695 68.7581 46.8134 68.84C46.6265 69.1385 45.2707 71.6876 44.8237 72.5463C44.3903 72.3013 43.9626 72.0463 43.5411 71.7815C44.1636 70.4973 45.203 68.3853 45.6547 67.5789C45.7046 67.4899 45.717 67.3846 45.6893 67.2864C45.6616 67.1881 45.596 67.1049 45.507 67.055C45.4179 67.0051 45.3126 66.9926 45.2144 67.0203C45.1161 67.048 45.0329 67.1136 44.983 67.2027C44.3705 68.2968 42.8009 71.5437 42.7347 71.6815C42.6486 71.86 42.6817 72.1108 43.0579 72.3862C43.9466 73.0356 46.5618 74.4236 47.1566 74.4236C47.3851 74.4236 47.8113 74.4237 50.0142 70.1557C50.0609 70.0649 50.0697 69.9592 50.0387 69.8619C50.0077 69.7645 49.9394 69.6834 49.8488 69.6363Z" fill="white"/>
</svg>
