<svg width="294" height="220" viewBox="0 0 294 220" fill="none" xmlns="http://www.w3.org/2000/svg">
<path d="M294 193.333H0V193.48H294V193.333Z" fill="#EBEBEB"/>
<path d="M264.541 202.834H245.066V202.982H264.541V202.834Z" fill="#EBEBEB"/>
<path d="M194.757 204.44H189.647V204.588H194.757V204.44Z" fill="#EBEBEB"/>
<path d="M244.479 197.354H233.195V197.502H244.479V197.354Z" fill="#EBEBEB"/>
<path d="M56.2424 198.346H30.8467V198.494H56.2424V198.346Z" fill="#EBEBEB"/>
<path d="M65.2035 198.346H61.4814V198.494H65.2035V198.346Z" fill="#EBEBEB"/>
<path d="M132.389 200.838H77.3047V200.986H132.389V200.838Z" fill="#EBEBEB"/>
<path d="M139.356 166.996H25.8194C24.9299 166.994 24.0775 166.638 23.4491 166.006C22.8207 165.374 22.4678 164.517 22.4678 163.624V3.34228C22.4755 2.45417 22.8319 1.60499 23.4594 0.979193C24.0869 0.353395 24.935 0.00152138 25.8194 0H139.356C140.247 0 141.101 0.355243 141.73 0.987579C142.36 1.61992 142.714 2.47755 142.714 3.37181V163.624C142.714 164.518 142.36 165.376 141.73 166.008C141.101 166.641 140.247 166.996 139.356 166.996ZM25.8194 0.118102C24.9689 0.119667 24.1538 0.460045 23.553 1.06453C22.9522 1.66901 22.6148 2.4882 22.6148 3.34228V163.624C22.6148 164.478 22.9522 165.297 23.553 165.902C24.1538 166.506 24.9689 166.847 25.8194 166.848H139.356C140.207 166.847 141.023 166.507 141.625 165.902C142.226 165.298 142.565 164.479 142.567 163.624V3.34228C142.565 2.48766 142.226 1.66848 141.625 1.06417C141.023 0.459853 140.207 0.119663 139.356 0.118102H25.8194Z" fill="#EBEBEB"/>
<path d="M266.547 166.996H153.004C152.114 166.994 151.261 166.639 150.632 166.007C150.002 165.375 149.648 164.518 149.646 163.624V3.34228C149.656 2.45363 150.013 1.60446 150.642 0.978824C151.27 0.353189 152.119 0.00150479 153.004 0H266.547C267.43 0.0030733 268.277 0.355634 268.903 0.981265C269.529 1.6069 269.885 2.45519 269.892 3.34228V163.624C269.892 164.516 269.54 165.372 268.913 166.004C268.286 166.636 267.435 166.993 266.547 166.996ZM153.004 0.118102C152.153 0.119663 151.337 0.459853 150.736 1.06417C150.134 1.66848 149.795 2.48766 149.793 3.34228V163.624C149.795 164.479 150.134 165.298 150.736 165.902C151.337 166.507 152.153 166.847 153.004 166.848H266.547C267.398 166.847 268.213 166.507 268.815 165.902C269.417 165.298 269.756 164.479 269.757 163.624V3.34228C269.756 2.48766 269.417 1.66848 268.815 1.06417C268.213 0.459853 267.398 0.119663 266.547 0.118102H153.004Z" fill="#EBEBEB"/>
<path d="M248.935 61.5193H42.0889V70.3769H248.935V61.5193Z" fill="#76D3DE"/>
<path d="M249.201 60.5863H247.178V71.3159H249.201V60.5863Z" fill="#C5FB01" fill-opacity="0.5"/>
<path d="M180.84 60.5863H178.816V71.3159H180.84V60.5863Z" fill="#C5FB01" fill-opacity="0.5"/>
<path d="M112.479 60.5863H110.456V71.3159H112.479V60.5863Z" fill="#E0E0E0"/>
<path d="M44.1123 60.5863H42.0889V71.3159H44.1123V60.5863Z" fill="#C5FB01" fill-opacity="0.5"/>
<path d="M221.723 60.5863H207.834V71.3159H221.723V60.5863Z" fill="#C5FB01" fill-opacity="0.5"/>
<path d="M215.944 47.347H213.614V61.9858H215.944V47.347Z" fill="#76D3DE"/>
<path d="M218.989 50.696C221.313 48.3622 221.313 44.5784 218.989 42.2447C216.665 39.9109 212.898 39.9109 210.574 42.2447C208.25 44.5785 208.25 48.3622 210.574 50.696C212.898 53.0297 216.665 53.0297 218.989 50.696Z" fill="#C5FB01" fill-opacity="0.5"/>
<path d="M219.006 46.473C219.005 47.3125 218.756 48.1327 218.291 48.8302C217.826 49.5276 217.165 50.0709 216.392 50.3913C215.62 50.7118 214.77 50.795 213.95 50.6305C213.13 50.466 212.378 50.0612 211.787 49.4672C211.196 48.8732 210.794 48.1166 210.632 47.2932C210.469 46.4698 210.553 45.6164 210.873 44.8409C211.193 44.0655 211.735 43.4027 212.43 42.9364C213.125 42.4702 213.943 42.2213 214.778 42.2213C215.334 42.2213 215.884 42.3313 216.398 42.5451C216.911 42.7588 217.377 43.0721 217.77 43.467C218.163 43.8618 218.474 44.3306 218.686 44.8464C218.898 45.3622 219.007 45.9149 219.006 46.473Z" fill="#76D3DE"/>
<path d="M248.935 79.2345H42.0889V88.0921H248.935V79.2345Z" fill="#76D3DE"/>
<path d="M249.201 78.3015H247.178V89.0311H249.201V78.3015Z" fill="#C5FB01" fill-opacity="0.5"/>
<path d="M180.84 78.3015H178.816V89.0311H180.84V78.3015Z" fill="#C5FB01" fill-opacity="0.5"/>
<path d="M112.479 78.3015H110.456V89.0311H112.479V78.3015Z" fill="#E0E0E0"/>
<path d="M44.1123 78.3015H42.0889V89.0311H44.1123V78.3015Z" fill="#C5FB01" fill-opacity="0.5"/>
<path d="M42.0889 97.5403V106.398H189.448C191.287 106.398 193.108 106.762 194.807 107.469C196.506 108.176 198.049 109.212 199.349 110.518C200.649 111.824 201.681 113.375 202.384 115.081C203.087 116.788 203.449 118.617 203.448 120.464V192.866H212.268V120.34C212.268 114.293 209.876 108.494 205.618 104.218C201.361 99.9424 195.586 97.5403 189.565 97.5403H42.0889Z" fill="#76D3DE"/>
<path d="M180.84 96.6074H178.816V107.337H180.84V96.6074Z" fill="#C5FB01" fill-opacity="0.5"/>
<path d="M112.479 96.6074H110.456V107.337H112.479V96.6074Z" fill="#E0E0E0"/>
<path d="M44.1123 96.6074H42.0889V107.337H44.1123V96.6074Z" fill="#C5FB01" fill-opacity="0.5"/>
<path d="M213.197 193.132V191.101H202.513V193.132H213.197Z" fill="#C5FB01" fill-opacity="0.5"/>
<path d="M213.202 130.975V128.943H202.518V130.975H213.202Z" fill="#E0E0E0"/>
<path d="M147 220C209.964 220 261.007 217.007 261.007 213.315C261.007 209.624 209.964 206.631 147 206.631C84.035 206.631 32.9922 209.624 32.9922 213.315C32.9922 217.007 84.035 220 147 220Z" fill="#F5F5F5"/>
<path d="M248.936 145.915C248.936 155.05 246.437 162.449 243.356 162.449H172.366C169.279 162.449 166.78 155.038 166.78 145.915C166.78 136.791 169.279 129.38 172.366 129.38H243.356C246.437 129.369 248.936 136.774 248.936 145.915Z" fill="#92DC50"/>
<path d="M178.458 127.774H172.578C168.961 127.774 166.033 135.835 166.033 145.785C166.033 155.735 168.973 163.789 172.578 163.789H178.458C182.068 163.789 184.996 155.729 184.996 145.785C184.996 135.841 182.068 127.774 178.458 127.774Z" fill="#92DC50"/>
<path opacity="0.4" d="M172.578 163.789C176.189 163.789 179.116 155.728 179.116 145.785C179.116 135.841 176.189 127.78 172.578 127.78C168.966 127.78 166.039 135.841 166.039 145.785C166.039 155.728 168.966 163.789 172.578 163.789Z" fill="white"/>
<path opacity="0.2" d="M178.458 127.774H172.578C168.961 127.774 166.033 135.835 166.033 145.785C166.033 155.735 168.973 163.789 172.578 163.789H178.458C182.068 163.789 184.996 155.729 184.996 145.785C184.996 135.841 182.068 127.774 178.458 127.774Z" fill="white"/>
<path d="M171.401 127.774H165.521C161.905 127.774 158.977 135.835 158.977 145.785C158.977 155.735 161.917 163.789 165.521 163.789H171.401C175.011 163.789 177.94 155.729 177.94 145.785C177.94 135.841 175.011 127.774 171.401 127.774Z" fill="#92DC50"/>
<path opacity="0.4" d="M165.522 163.789C169.133 163.789 172.061 155.728 172.061 145.785C172.061 135.841 169.133 127.78 165.522 127.78C161.911 127.78 158.983 135.841 158.983 145.785C158.983 155.728 161.911 163.789 165.522 163.789Z" fill="white"/>
<path opacity="0.2" d="M171.401 127.774H165.521C161.905 127.774 158.977 135.835 158.977 145.785C158.977 155.735 161.917 163.789 165.521 163.789H171.401C175.011 163.789 177.94 155.729 177.94 145.785C177.94 135.841 175.011 127.774 171.401 127.774Z" fill="white"/>
<path d="M169.555 145.915C169.555 155.05 167.056 162.449 163.975 162.449H110.626C107.539 162.449 105.04 155.038 105.04 145.915C105.04 136.791 107.539 129.38 110.626 129.38H163.975C167.056 129.369 169.555 136.774 169.555 145.915Z" fill="#92DC50"/>
<path d="M124.95 127.774H119.07C115.454 127.774 112.525 135.835 112.525 145.785C112.525 155.735 115.465 163.789 119.07 163.789H124.95C128.56 163.789 131.488 155.729 131.488 145.785C131.488 135.841 128.56 127.774 124.95 127.774Z" fill="#92DC50"/>
<path opacity="0.4" d="M119.07 163.789C122.681 163.789 125.608 155.728 125.608 145.785C125.608 135.841 122.681 127.78 119.07 127.78C115.459 127.78 112.531 135.841 112.531 145.785C112.531 155.728 115.459 163.789 119.07 163.789Z" fill="white"/>
<path opacity="0.2" d="M124.95 127.774H119.07C115.454 127.774 112.525 135.835 112.525 145.785C112.525 155.735 115.465 163.789 119.07 163.789H124.95C128.56 163.789 131.488 155.729 131.488 145.785C131.488 135.841 128.56 127.774 124.95 127.774Z" fill="white"/>
<path d="M118.111 129.369H87.917V162.437H118.111C121.192 162.437 123.691 155.026 123.691 145.903C123.691 136.779 121.192 129.369 118.111 129.369Z" fill="#92DC50"/>
<path d="M113.96 36.2866H81.0088V214.142H113.96V36.2866Z" fill="#92DC50"/>
<path d="M114.388 170.846H80.5781C80.1234 170.846 79.7549 171.216 79.7549 171.673V176.326C79.7549 176.782 80.1234 177.153 80.5781 177.153H114.388C114.843 177.153 115.211 176.782 115.211 176.326V171.673C115.211 171.216 114.843 170.846 114.388 170.846Z" fill="#92DC50"/>
<path d="M114.388 117.11H80.5781C80.1234 117.11 79.7549 117.48 79.7549 117.936V122.59C79.7549 123.046 80.1234 123.416 80.5781 123.416H114.388C114.843 123.416 115.211 123.046 115.211 122.59V117.936C115.211 117.48 114.843 117.11 114.388 117.11Z" fill="#92DC50"/>
<path d="M116.976 214.355H77.9912L79.7552 212.312H115.212L116.976 214.355Z" fill="#92DC50"/>
<path d="M114.388 82.8601H80.5781C80.1234 82.8601 79.7549 83.2302 79.7549 83.6868V94.2451C79.7549 94.7017 80.1234 95.0718 80.5781 95.0718H114.388C114.843 95.0718 115.211 94.7017 115.211 94.2451V83.6868C115.211 83.2302 114.843 82.8601 114.388 82.8601Z" fill="#92DC50"/>
<path opacity="0.2" d="M114.388 170.846H80.5781C80.1234 170.846 79.7549 171.216 79.7549 171.673V176.326C79.7549 176.782 80.1234 177.153 80.5781 177.153H114.388C114.843 177.153 115.211 176.782 115.211 176.326V171.673C115.211 171.216 114.843 170.846 114.388 170.846Z" fill="white"/>
<path opacity="0.2" d="M114.388 117.11H80.5781C80.1234 117.11 79.7549 117.48 79.7549 117.936V122.59C79.7549 123.046 80.1234 123.416 80.5781 123.416H114.388C114.843 123.416 115.211 123.046 115.211 122.59V117.936C115.211 117.48 114.843 117.11 114.388 117.11Z" fill="white"/>
<path opacity="0.2" d="M114.388 82.8601H80.5781C80.1234 82.8601 79.7549 83.2302 79.7549 83.6868V94.2451C79.7549 94.7017 80.1234 95.0718 80.5781 95.0718H114.388C114.843 95.0718 115.211 94.7017 115.211 94.2451V83.6868C115.211 83.2302 114.843 82.8601 114.388 82.8601Z" fill="white"/>
<path d="M80.9958 84.6257H79.5788C78.7085 84.6257 78.0029 86.5685 78.0029 88.966C78.0029 91.3634 78.7085 93.3062 79.5788 93.3062H80.9958C81.872 93.3062 82.5776 91.3634 82.5776 88.966C82.5776 86.5685 81.872 84.6257 80.9958 84.6257Z" fill="#92DC50"/>
<path opacity="0.4" d="M79.5788 93.3062C80.4491 93.3062 81.1546 91.363 81.1546 88.966C81.1546 86.5689 80.4491 84.6257 79.5788 84.6257C78.7085 84.6257 78.0029 86.5689 78.0029 88.966C78.0029 91.363 78.7085 93.3062 79.5788 93.3062Z" fill="white"/>
<path opacity="0.1" d="M80.9958 84.6257H79.5788C78.7085 84.6257 78.0029 86.5685 78.0029 88.966C78.0029 91.3634 78.7085 93.3062 79.5788 93.3062H80.9958C81.872 93.3062 82.5776 91.3634 82.5776 88.966C82.5776 86.5685 81.872 84.6257 80.9958 84.6257Z" fill="white"/>
<path d="M78.7913 87.6018H72.0058C71.5589 87.6018 71.1943 88.1923 71.1943 88.9659C71.1943 89.7394 71.5589 90.33 72.0058 90.33H78.7913C79.2382 90.33 79.5969 89.7394 79.5969 88.9659C79.5969 88.1923 79.2205 87.6018 78.7913 87.6018Z" fill="#92DC50"/>
<path opacity="0.4" d="M72.8119 88.9659C72.8119 89.7158 72.4531 90.33 72.0061 90.33C71.559 90.33 71.1943 89.7394 71.1943 88.9659C71.1943 88.1923 71.559 87.6018 72.0061 87.6018C72.4531 87.6018 72.8119 88.2159 72.8119 88.9659Z" fill="white"/>
<path opacity="0.1" d="M78.7913 87.6018H72.0058C71.5589 87.6018 71.1943 88.1923 71.1943 88.9659C71.1943 89.7394 71.5589 90.33 72.0058 90.33H78.7913C79.2382 90.33 79.5969 89.7394 79.5969 88.9659C79.5969 88.1923 79.2205 87.6018 78.7913 87.6018Z" fill="white"/>
<path d="M70.659 85.2515H73.1168C74.628 85.2515 75.851 86.9167 75.851 88.9658C75.851 91.0148 74.628 92.6801 73.1168 92.6801H70.659C69.1537 92.6801 67.9307 91.0148 67.9307 88.9658C67.9307 86.9167 69.1537 85.2515 70.659 85.2515Z" fill="#92DC50"/>
<path opacity="0.1" d="M70.659 85.2515H73.1168C74.628 85.2515 75.851 86.9167 75.851 88.9658C75.851 91.0148 74.628 92.6801 73.1168 92.6801H70.659C69.1537 92.6801 67.9307 91.0148 67.9307 88.9658C67.9307 86.9167 69.1537 85.2515 70.659 85.2515Z" fill="white"/>
<path opacity="0.2" d="M70.3828 88.9658C70.3828 91.0148 71.6059 92.6801 73.117 92.6801C74.6282 92.6801 75.8512 91.0148 75.8512 88.9658C75.8512 86.9167 74.6282 85.2515 73.117 85.2515C71.6059 85.2515 70.3828 86.9167 70.3828 88.9658Z" fill="black"/>
<path d="M178.639 149.133H179.592C181.403 149.133 182.867 147.102 182.867 144.592C182.867 142.082 181.403 140.051 179.592 140.051H178.639C176.828 140.051 175.364 142.088 175.364 144.592C175.364 147.096 176.828 149.133 178.639 149.133Z" fill="#92DC50"/>
<path opacity="0.4" d="M176.317 144.592C176.317 142.088 177.787 140.051 179.593 140.051C181.398 140.051 182.868 142.088 182.868 144.592C182.868 147.096 181.404 149.133 179.593 149.133C177.782 149.133 176.317 147.102 176.317 144.592Z" fill="white"/>
<path opacity="0.2" d="M178.639 149.133H179.592C181.403 149.133 182.867 147.102 182.867 144.592C182.867 142.082 181.403 140.051 179.592 140.051H178.639C176.828 140.051 175.364 142.088 175.364 144.592C175.364 147.096 176.828 149.133 178.639 149.133Z" fill="white"/>
<path d="M180.668 135.77C177.229 135.77 174.436 139.826 174.436 144.828C174.436 149.83 177.229 153.892 180.668 153.892C184.108 153.892 186.901 149.836 186.901 144.828C186.901 139.821 184.114 135.77 180.668 135.77ZM178.163 144.592H175.641C175.661 143.053 176.01 141.537 176.664 140.145L178.493 143.505C178.304 143.838 178.192 144.21 178.163 144.592ZM178.163 145.182C178.2 145.526 178.308 145.858 178.481 146.157L176.652 149.517C176.013 148.16 175.665 146.683 175.629 145.182H178.163ZM180.921 145.182H185.719C185.686 146.7 185.333 148.193 184.684 149.564L180.815 145.69C180.864 145.524 180.898 145.354 180.915 145.182H180.921ZM180.921 144.592C180.905 144.392 180.867 144.194 180.809 144.001L184.678 140.122C185.344 141.527 185.699 143.06 185.719 144.615L180.921 144.592ZM184.384 139.561L180.515 143.405C180.397 143.224 180.243 143.069 180.063 142.95L180.898 136.998C182.279 137.069 183.502 138.055 184.384 139.561ZM180.304 136.998L179.516 142.809C179.287 142.819 179.067 142.902 178.887 143.045L176.987 139.525C177.828 138.09 179.004 137.134 180.304 136.998ZM176.987 150.137L178.898 146.635C179.077 146.777 179.294 146.86 179.522 146.871L180.298 152.682C178.998 152.522 177.822 151.566 176.987 150.137ZM180.898 152.694L180.098 146.712C180.278 146.593 180.432 146.438 180.551 146.257L184.396 150.101C183.497 151.613 182.279 152.605 180.886 152.694H180.898Z" fill="#92DC50"/>
</svg>
