<svg width="105" height="148" viewBox="0 0 105 148" fill="none" xmlns="http://www.w3.org/2000/svg">
<path d="M89.0854 46.0502C89.3009 46.1271 99.311 38.1098 102.935 36.4171C102.935 36.4171 97.7106 56.4912 97.6413 65.7626C93.824 67.389 90.1132 69.2547 86.531 71.3486C78.291 71.1096 70.0469 71.6532 61.9097 72.972C61.9097 72.972 62.202 46.4888 62.0559 40.6104C62.0174 40.6797 72.4584 40.0872 89.0854 46.0502Z" fill="#FFB949"/>
<path d="M67.0185 40.5336L68.7804 35.8248C72.389 36.5942 76.0899 35.0554 77.6826 32.147C80.5217 27.0227 81.7989 16.6279 81.7989 16.6279C75.2589 17.7358 69.8884 12.9501 69.8884 12.9501C68.4188 18.613 62.1942 21.6291 62.1942 21.6291C62.1942 21.6291 60.0168 19.2208 58.6626 21.2675C56.7929 24.0835 60.4323 25.4531 60.4323 25.4531C59.986 31.4853 61.8249 33.0318 61.8249 33.0318L59.1781 38.3254C59.1781 38.3254 57.5624 36.4326 52.8535 36.7866C47.7061 37.1713 40.1274 45.8272 36.7497 54.9525C32.0024 67.6709 38.2193 71.6334 38.2193 71.6334C38.2193 71.6334 7.39647 71.7796 4.89587 71.7026C2.39527 71.6257 2.91078 72.8798 2.91078 73.7647C2.88405 73.9868 2.92662 74.2117 3.03268 74.4087C3.13874 74.6056 3.30309 74.765 3.50323 74.8649C0.602536 90.3302 9.26615 98.5629 14.0596 101.725C16.5525 103.356 23.6465 106.211 24.062 108.788C24.2236 109.743 23.4773 111.951 19.5763 113.79C15.6754 115.629 6.45779 121.061 3.02619 128.355C0.95179 132.861 0.343595 137.904 1.28732 142.774C0.5179 142.92 0.33324 143.435 0.256299 145.082C0.179357 146.728 1.14113 146.774 1.79513 146.774C2.44913 146.774 49.6758 146.774 52.0995 146.921C54.5232 147.067 54.4539 146.259 54.5309 144.566C54.6078 142.874 53.3536 142.874 53.3536 142.874C53.6104 140.505 53.6593 138.118 53.4998 135.741C53.4998 135.741 56.0774 139.857 56.8853 139.419C57.6932 138.98 57.1776 128.093 57.1776 128.093C55.2825 125.7 53.6328 123.122 52.2534 120.399C50.93 120.622 47.8369 123.192 47.8369 123.192C47.8369 123.192 46.2212 120.761 40.0428 116.944C35.2647 113.99 30.4635 111.797 30.402 109.142C30.3097 104.734 41.8663 103.987 47.6908 94.585C49.9036 91.1359 51.2255 87.1914 51.5378 83.1054C66.2491 73.5492 83.2377 75.9729 83.2377 75.9729C82.653 73.8416 81.622 71.1948 81.622 71.1948C81.622 71.1948 64.6333 71.9642 61.9788 73.0337V67.3785C61.9788 67.3785 62.3481 66.863 62.4943 66.6091C62.4943 66.6091 64.3101 66.4398 66.1029 64.2547C67.8956 62.0696 68.011 61.2386 67.7186 61.0924C67.4263 60.9462 65.5874 61.6771 65.5874 61.6771C65.5874 61.6771 67.7263 58.4379 67.1262 57.63C66.6876 57.0453 65.2873 57.9301 65.2873 57.9301C65.2873 57.9301 67.1954 55.2756 66.3876 54.6909C65.872 54.3215 64.6256 55.1294 64.6256 55.1294C64.6256 55.1294 65.872 52.8212 65.2873 52.4134C64.4717 51.8979 62.048 54.3985 62.048 54.3985V40.6798C62.048 40.6798 62.3096 40.3874 67.0185 40.5336Z" fill="white"/>
<path d="M98.8649 55.8295C101.512 57.0067 101.219 55.1678 101.219 55.1678C102.989 55.0216 102.543 53.0365 102.543 53.0365C104.382 52.2671 102.989 50.5359 102.989 50.5359C102.989 50.5359 103.866 50.5359 103.651 49.0663C103.435 47.5967 100.704 45.904 100.704 45.904C100.704 45.904 99.2343 45.4655 99.0881 45.904C98.9419 46.3426 100.119 47.9661 100.119 47.9661C100.119 47.9661 97.9801 47.0043 97.5415 47.5198C97.103 48.0353 99.5266 50.5359 99.5266 50.5359C99.5266 50.5359 96.3643 49.5049 96.1412 50.1666C95.9181 50.8283 99.0881 53.629 99.0881 53.629C99.0881 53.629 96.1412 52.8595 95.9258 53.8444C95.8488 54.66 98.8649 55.8295 98.8649 55.8295Z" fill="white"/>
<path d="M69.8115 141.596C69.8115 141.596 70.9195 145.343 71.2811 145.636C71.6427 145.928 86.2924 146.228 90.2626 145.636C86.8089 142.551 82.6331 140.386 78.1212 139.342C75.4674 140.47 72.6714 141.228 69.8115 141.596Z" fill="white"/>
<path d="M13.1059 100.702C14.199 101.101 15.3982 101.101 16.4913 100.702C18.261 100.048 23.2545 96.8009 26.7169 96.947C30.1793 97.0932 36.8578 100.509 38.2581 100.625C39.8148 100.555 41.361 100.333 42.8746 99.9632C40.1034 102.292 36.989 104.179 33.6416 105.557C28.2557 107.534 29.7407 117.175 32.1028 124.384C35.1805 133.871 52.5462 134.602 53.0617 142.92H1.34156C1.34156 142.92 0.572144 141.158 4.28073 138.134C12.1518 131.671 21.1386 131.886 23.7008 121.738C24.6625 117.891 25.155 111.443 23.847 108.204C22.539 104.964 16.8607 104.38 13.1059 100.702Z" fill="#FFB949"/>
<path d="M73.3429 27.4459C73.1968 27.4459 73.1198 27.369 73.0506 27.2228C73.0166 27.1445 73.0128 27.0565 73.0397 26.9755C73.0667 26.8946 73.1226 26.8265 73.1968 26.7842C73.6491 26.5733 74.0688 26.2986 74.4432 25.9686C73.5661 25.3069 73.2814 24.1374 73.5661 22.5909C73.7324 21.7734 74.0066 20.9817 74.3817 20.2365C74.4204 20.1589 74.4884 20.1 74.5707 20.0726C74.6529 20.0451 74.7427 20.0515 74.8202 20.0903C74.8978 20.1291 74.9567 20.1971 74.9841 20.2793C75.0116 20.3616 75.0052 20.4513 74.9664 20.5289C74.9664 20.6058 72.9121 24.499 75.1203 25.6763C75.1895 25.7532 75.2665 25.8224 75.2665 25.8994C75.277 26.0029 75.2497 26.1068 75.1895 26.1918C74.6358 26.6943 74.0142 27.1165 73.3429 27.4459Z" fill="#501200"/>
<path d="M69.6652 28.3228C69.633 28.2443 69.63 28.1568 69.6568 28.0763C69.6837 27.9958 69.7385 27.9277 69.8114 27.8842C69.891 27.8515 69.9797 27.8482 70.0615 27.875C70.1433 27.9018 70.2129 27.9569 70.2577 28.0304C70.3269 28.1074 71.6734 30.5772 74.6664 29.1307C74.7469 29.0986 74.8362 29.0965 74.9181 29.1248C75 29.153 75.0691 29.2097 75.1127 29.2846C75.1443 29.3639 75.1461 29.452 75.1178 29.5326C75.0896 29.6132 75.0331 29.6809 74.9588 29.7231C74.2279 30.0847 71.3579 31.1927 69.6652 28.3228Z" fill="#501200"/>
<path d="M79.8908 20.1595C79.5392 19.8862 79.116 19.7204 78.6723 19.6822C78.2286 19.644 77.7834 19.7349 77.3902 19.9441C77.3124 19.9772 77.2249 19.9793 77.1456 19.9499C77.0663 19.9205 77.0013 19.8619 76.9638 19.7861C76.9264 19.7103 76.9195 19.623 76.9444 19.5422C76.9693 19.4614 77.0242 19.3932 77.0978 19.3516C77.6027 19.0676 78.182 18.9434 78.759 18.9957C79.336 19.0479 79.8836 19.2739 80.3293 19.644C80.3911 19.6985 80.4323 19.7725 80.4463 19.8536C80.4603 19.9347 80.4462 20.0182 80.4063 20.0903C80.3373 20.1523 80.2512 20.192 80.1592 20.2044C80.0673 20.2168 79.9737 20.2011 79.8908 20.1595Z" fill="#501200"/>
<path d="M72.6814 18.913C72.2783 18.4118 71.7283 18.0495 71.1086 17.877C70.489 17.7045 69.8309 17.7304 69.2267 17.9512C69.1471 17.984 69.0584 17.9872 68.9766 17.9604C68.8948 17.9336 68.8253 17.8785 68.7805 17.8051C68.7489 17.7257 68.747 17.6376 68.7753 17.557C68.8036 17.4764 68.8601 17.4087 68.9343 17.3665C69.6683 17.0643 70.4804 17.0082 71.2489 17.2066C72.0174 17.4049 72.7009 17.8471 73.1969 18.4667C73.2739 18.6129 73.2739 18.8361 73.12 18.913C72.9738 19.1284 72.7583 18.9823 72.6814 18.913Z" fill="#501200"/>
<path d="M9.3585 91.1381C5.68069 85.6983 6.55783 78.1888 6.63477 77.8964C6.64497 77.8087 6.68961 77.7286 6.75887 77.6737C6.82813 77.6189 6.91634 77.5938 7.00409 77.604C7.09184 77.6142 7.17193 77.6589 7.22676 77.7281C7.2816 77.7974 7.30667 77.8856 7.29647 77.9734C7.29647 78.0426 6.41164 85.5444 9.94325 90.7687C10.0202 90.9149 10.0202 91.1381 9.86631 91.2073C9.71243 91.2765 9.48161 91.2689 9.3585 91.1381Z" fill="#501200"/>
<path d="M7.07326 129.901C6.99976 129.856 6.94467 129.787 6.91787 129.705C6.89108 129.623 6.89434 129.534 6.92707 129.455C9.18343 125.463 12.5917 122.245 16.7063 120.222C16.7859 120.189 16.8746 120.186 16.9564 120.213C17.0382 120.239 17.1078 120.295 17.1526 120.368C17.1848 120.447 17.1878 120.534 17.161 120.615C17.1342 120.695 17.0793 120.763 17.0064 120.807C10.2048 124.284 7.51951 129.632 7.51951 129.709C7.39641 129.909 7.31177 129.901 7.07326 129.901Z" fill="#501200"/>
<path d="M69.5226 23.1678C69.7322 23.2127 69.9542 23.1575 70.14 23.0142C70.3257 22.871 70.4598 22.6514 70.5129 22.4039C70.5659 22.1564 70.5336 21.9011 70.4229 21.6943C70.3122 21.4875 70.1323 21.3461 69.9227 21.3012C69.8189 21.2789 69.711 21.281 69.6051 21.3073C69.4992 21.3336 69.3974 21.3837 69.3055 21.4546C69.2135 21.5255 69.1333 21.6158 69.0693 21.7205C69.0054 21.8252 68.9589 21.9421 68.9327 22.0646C68.9064 22.1871 68.9008 22.3128 68.9162 22.4345C68.9317 22.5562 68.9678 22.6715 69.0226 22.7739C69.0773 22.8763 69.1497 22.9637 69.2355 23.0311C69.3213 23.0986 69.4188 23.1447 69.5226 23.167" fill="#501200"/>
<path d="M77.2276 24.6482C77.3314 24.6704 77.4393 24.6684 77.5452 24.642C77.6511 24.6157 77.7529 24.5657 77.8448 24.4948C77.9367 24.4239 78.017 24.3335 78.0809 24.2288C78.1449 24.1242 78.1914 24.0073 78.2176 23.8847C78.2439 23.7622 78.2495 23.6365 78.2341 23.5148C78.2186 23.3931 78.1825 23.2778 78.1277 23.1754C78.0729 23.0731 78.0006 22.9857 77.9148 22.9182C77.829 22.8508 77.7315 22.8046 77.6277 22.7824C77.524 22.7601 77.4161 22.7622 77.3102 22.7885C77.2043 22.8148 77.1025 22.8649 77.0106 22.9358C76.9186 23.0067 76.8384 23.097 76.7744 23.2017C76.7105 23.3064 76.664 23.4233 76.6377 23.5458C76.6115 23.6683 76.6059 23.794 76.6213 23.9157C76.6367 24.0374 76.6729 24.1527 76.7276 24.2551C76.7824 24.3575 76.8548 24.4449 76.9406 24.5123C77.0263 24.5798 77.1239 24.6259 77.2276 24.6482Z" fill="#501200"/>
<path d="M76.436 27.5151C76.436 27.602 76.4607 27.688 76.5087 27.7683C76.5566 27.8486 76.6269 27.9215 76.7155 27.983C76.8041 28.0444 76.9092 28.0932 77.025 28.1264C77.1408 28.1597 77.2648 28.1768 77.3901 28.1768C77.5154 28.1768 77.6395 28.1597 77.7552 28.1264C77.871 28.0932 77.9762 28.0444 78.0647 27.983C78.1533 27.9215 78.2236 27.8486 78.2716 27.7683C78.3195 27.688 78.3442 27.602 78.3442 27.5151C78.3442 27.4282 78.3195 27.3422 78.2716 27.2619C78.2236 27.1816 78.1533 27.1086 78.0647 27.0472C77.9762 26.9858 77.871 26.937 77.7552 26.9038C77.6395 26.8705 77.5154 26.8534 77.3901 26.8534C77.2648 26.8534 77.1408 26.8705 77.025 26.9038C76.9092 26.937 76.8041 26.9858 76.7155 27.0472C76.6269 27.1086 76.5566 27.1816 76.5087 27.2619C76.4607 27.3422 76.436 27.4282 76.436 27.5151Z" fill="#FCCAC2"/>
<path d="M67.616 26.8487C67.7648 26.8958 67.9187 26.9222 68.0688 26.9265C68.219 26.9307 68.3623 26.9125 68.4906 26.8732C68.6188 26.8338 68.7294 26.7739 68.8159 26.6971C68.9024 26.6202 68.9631 26.5279 68.9944 26.4255C69.0257 26.3231 69.027 26.2127 68.9983 26.1006C68.9696 25.9885 68.9114 25.877 68.8271 25.7726C68.7428 25.6682 68.6341 25.573 68.5073 25.4925C68.3805 25.412 68.2381 25.3478 68.0884 25.3037C67.9397 25.2566 67.7858 25.2301 67.6356 25.2259C67.4855 25.2217 67.3421 25.2398 67.2139 25.2792C67.0856 25.3186 66.975 25.3784 66.8885 25.4553C66.802 25.5321 66.7414 25.6245 66.7101 25.7269C66.6788 25.8293 66.6774 25.9397 66.7061 26.0518C66.7349 26.1639 66.7931 26.2754 66.8774 26.3798C66.9617 26.4841 67.0704 26.5794 67.1972 26.6599C67.324 26.7404 67.4664 26.8045 67.616 26.8487Z" fill="#FCCAC2"/>
<path d="M103.058 47.5198C102.506 46.8277 101.8 46.2743 100.996 45.9041C101.511 43.4035 102.912 37.225 103.427 36.3402C103.497 36.194 103.497 36.0478 103.35 35.9709C103.204 35.894 103.058 35.8247 102.981 35.9709C102.542 36.271 95.1176 41.126 91.1397 43.9882C93.3479 41.4876 97.295 37.6636 101.588 36.0478C101.664 36.0039 101.725 35.9392 101.765 35.8614C101.804 35.7836 101.82 35.6961 101.811 35.6093C101.767 35.5326 101.701 35.4706 101.622 35.4309C101.542 35.3913 101.453 35.3757 101.365 35.3861C97.9106 36.7095 94.6559 39.4102 92.54 41.4876C91.7706 42.257 91.1397 42.8879 90.6319 43.4727C92.7397 39.8585 95.7901 36.8852 99.4571 34.8706C99.5008 34.8543 99.5406 34.8288 99.5737 34.796C99.6069 34.7632 99.6328 34.7237 99.6497 34.6802C99.6665 34.6367 99.6739 34.5901 99.6715 34.5434C99.6691 34.4968 99.6568 34.4513 99.6355 34.4097C99.6142 34.3682 99.5843 34.3316 99.5479 34.3025C99.5114 34.2733 99.4692 34.2522 99.424 34.2405C99.3788 34.2288 99.3317 34.2268 99.2857 34.2346C99.2396 34.2424 99.1958 34.2599 99.157 34.2859C94.6385 36.7468 91.0498 40.6192 88.9392 45.3116C81.799 37.8867 70.4732 37.8098 70.327 37.8098C70.2506 37.8169 70.1792 37.8511 70.1256 37.906C70.072 37.961 70.0398 38.0333 70.0346 38.1099C70.04 38.1856 70.0725 38.2569 70.1263 38.3106C70.18 38.3644 70.2513 38.3969 70.327 38.4023C70.404 38.4023 79.56 38.4715 86.4386 43.919C80.7045 40.9153 74.3719 39.2303 67.9034 38.987C68.3419 37.8867 68.8574 36.5634 69.0806 35.9709C70.7026 36.393 72.4178 36.2777 73.9688 35.6423C75.5198 35.0069 76.8229 33.8857 77.6826 32.447C79.2215 30.031 81.0681 24.7528 82.0991 16.6278C82.6174 16.477 83.1121 16.2542 83.5687 15.9661C89.3624 12.5345 84.2227 6.05603 80.5526 4.42487C78.2443 3.40155 73.0508 1.40876 68.6343 4.1248C66.3261 -0.876403 60.7632 1.33182 60.6939 1.33182C60.6555 1.35102 60.6213 1.37759 60.5932 1.41002C60.5651 1.44245 60.5436 1.4801 60.53 1.52083C60.5164 1.56155 60.511 1.60455 60.5141 1.64737C60.5171 1.69019 60.5286 1.73199 60.5478 1.77039C60.567 1.80878 60.5935 1.84302 60.626 1.87115C60.6584 1.89927 60.696 1.92074 60.7368 1.93431C60.7775 1.94789 60.8205 1.95331 60.8633 1.95026C60.9061 1.94722 60.9479 1.93577 60.9863 1.91657C60.9863 1.91657 65.3258 0.00842464 67.7572 3.75548C66.5377 3.2226 65.2154 2.96626 63.8851 3.00484C62.5548 3.04342 61.2496 3.37596 60.063 3.97861C49.7144 9.60303 44.6747 23.4294 41.8971 33.9858C41.8799 34.0548 41.8783 34.1267 41.8924 34.1964C41.9066 34.2661 41.9361 34.3317 41.9789 34.3885C42.0217 34.4453 42.0766 34.4918 42.1397 34.5246C42.2027 34.5575 42.2723 34.5758 42.3434 34.5783L59.763 35.9709L58.9474 37.5944C57.7009 36.8249 53.0921 34.609 47.5523 38.9178C44.6978 41.1414 40.2121 46.3503 37.2499 52.6672C32.9411 61.9002 34.4646 67.2246 36.4804 70.1791C36.7653 70.5992 37.0899 70.9908 37.4499 71.3486H3.98804C2.5877 71.3486 2.51076 72.3104 2.51076 73.2645C2.51076 73.2645 2.44151 74.2185 2.88008 74.5879C2.95702 74.6648 3.10321 74.734 3.18015 74.811C1.77981 83.49 3.48022 90.761 8.2506 96.5085C12.1592 101.21 17.0758 103.641 19.6533 104.972C22.077 106.226 23.6928 107.842 23.7697 108.942C23.839 109.904 23.2542 110.927 21.9308 111.958C19.9149 113.72 9.78943 117.76 4.4266 125.492C-0.93622 133.225 0.825741 142.481 0.894988 142.558C0.964236 142.635 0.602608 142.781 0.525666 142.85C0.336118 143.042 0.191524 143.273 0.102362 143.527C0.0132004 143.781 -0.0182939 144.052 0.0101594 144.32C0.0101594 146.459 0.233291 146.967 2.36457 146.967L53.046 147.044C53.5737 147.089 54.0988 146.932 54.5155 146.605C55.031 146.09 54.9541 145.566 54.9541 144.835C55.1234 143.358 54.6694 142.95 53.7692 142.581C54.0968 140.606 54.1743 138.597 54 136.603C54.4386 137.187 56.3083 139.765 56.9392 139.68C57.2393 139.68 57.6009 139.457 57.6009 134.602C57.6009 134.602 58.5627 134.972 58.6319 134.972C58.7012 134.972 58.855 134.902 58.932 134.756C58.964 134.676 58.9661 134.586 58.9379 134.504C58.9097 134.423 58.853 134.354 58.7781 134.31L57.6009 133.871V132.332C58.932 132.91 58.7319 132.848 58.932 132.848C59.132 132.848 59.1474 132.771 59.2244 132.625C59.2566 132.546 59.2596 132.459 59.2328 132.378C59.2059 132.298 59.1511 132.23 59.0782 132.186L57.6009 131.602C57.6009 130.424 57.5316 129.247 57.4547 128.362C58.1164 128.216 60.6939 127.477 64.1486 126.231C63.0517 121.97 61.7264 117.77 60.1784 113.651C57.8098 115.808 55.2758 117.776 52.5997 119.537C52.4535 119.606 49.522 121.445 47.9832 122.615C42.5973 116.775 34.5954 113.497 32.6872 111.881C31.4485 110.827 30.7791 109.896 30.8483 108.865C30.9176 107.834 31.8793 106.657 33.6413 105.626C34.5415 104.949 41.4586 102.725 46.5136 96.6547C48.9278 93.7692 50.5951 90.3341 51.3686 86.6523L60.6939 113.182C62.6775 118.654 64.37 124.227 65.7644 129.878C67.6802 136.418 69.3729 141.35 69.5191 141.789C69.8885 143.189 70.4655 145.559 71.1349 145.836C72.0813 146.228 89.8933 145.913 90.4088 145.613C90.4855 145.57 90.5479 145.506 90.5876 145.428C90.6274 145.349 90.6428 145.261 90.6319 145.174C90.5549 144.659 88.8622 143.558 85.6307 141.935C85.4636 141.852 85.2915 141.78 85.1152 141.719L85.7 140.835C85.7769 140.688 85.7769 140.465 85.6307 140.396C85.4845 140.327 85.2614 140.319 85.1844 140.465L84.5227 141.427C84.1534 141.273 83.7533 141.058 83.4225 140.911L84.0842 139.95C84.1534 139.803 84.1534 139.58 84.0072 139.511C83.861 139.442 83.6379 139.434 83.5687 139.58L82.7992 140.611C81.3846 139.969 79.936 139.404 78.4597 138.919L76.0361 120.314C73.9048 106.411 70.1501 89.1991 70.1501 88.9836C70.149 88.9074 70.1693 88.8323 70.2088 88.767C70.2482 88.7017 70.3052 88.6488 70.3732 88.6143C70.8887 88.4681 73.9048 86.6985 75.082 86.1137C75.1603 86.0798 75.2483 86.0759 75.3293 86.1029C75.4102 86.1299 75.4783 86.1858 75.5206 86.2599C75.5528 86.3384 75.5558 86.4258 75.529 86.5063C75.5021 86.5868 75.4473 86.655 75.3744 86.6985C75.0051 86.9216 71.912 88.6835 70.8118 89.1298C71.2503 91.338 74.6588 107.003 76.6208 119.945C79.7184 117.973 82.4344 115.457 84.6382 112.52C91.5244 102.841 85.2999 81.4049 83.761 76.4806C83.3697 74.6911 82.7518 72.9587 81.9221 71.3255C85.6923 71.3255 86.1308 71.6025 86.3309 71.4025C89.9064 69.3083 93.627 67.4724 97.4643 65.9089C97.6105 65.8396 97.6797 65.7627 97.6797 65.6165C97.6797 65.4703 98.3414 57.9685 98.8569 55.9065C98.9416 55.9065 100.434 56.445 101.165 55.9834C101.275 55.8671 101.352 55.7245 101.39 55.5694C101.427 55.4143 101.424 55.2521 101.381 55.0986C102.473 54.8216 102.758 54.006 102.635 52.8903C103.057 52.6597 103.392 52.2977 103.589 51.8593C103.663 51.609 103.675 51.3444 103.624 51.0884C103.573 50.8324 103.461 50.5926 103.296 50.3897C103.666 50.6129 103.958 50.4667 104.027 50.1666C104.312 49.5049 104.02 48.697 103.058 47.5198ZM78.3443 139.757C79.5215 140.119 80.9911 140.711 82.5377 141.373L82.0991 141.958C82.0221 142.112 82.0221 142.327 82.1683 142.404C82.2482 142.458 82.3456 142.481 82.4411 142.466C82.5366 142.452 82.6232 142.402 82.6838 142.327L83.1993 141.665C83.5687 141.812 83.9688 142.035 84.2996 142.181L83.861 142.843C83.7918 142.989 83.7918 143.212 83.938 143.281C84.0842 143.351 84.3227 143.343 84.4535 143.212L84.9613 142.443C86.6191 143.172 88.1992 144.066 89.6778 145.112C87.108 145.405 72.5352 145.751 71.6504 145.459C71.358 145.243 70.7733 143.697 70.404 142.004C73.222 142.116 76.0026 141.329 78.3443 139.757ZM84.0072 43.4035C83.7918 43.4727 83.6379 43.5496 83.4225 43.6266C78.2319 41.9635 72.8806 40.852 67.4571 40.3104C67.5394 40.0822 67.6397 39.8609 67.7572 39.6487C73.3575 39.8991 78.8648 41.1716 84.0072 43.4035ZM62.0173 33.1625C62.0551 33.1083 62.0753 33.0439 62.0753 32.9779C62.0753 32.9118 62.0551 32.8474 62.0173 32.7932C60.9807 30.4132 60.6007 27.7988 60.9171 25.2222C60.9171 25.2222 57.07 23.8295 58.6088 21.5444C59.9476 19.6362 62.0712 21.9829 62.0712 21.9829C62.0712 21.9829 67.9495 19.5593 70.0808 13.5194C70.0808 13.5194 76.113 18.1359 81.4835 16.9048C81.045 20.3595 79.8139 27.9459 77.221 32.2008C75.4667 35.0784 71.5119 36.7788 67.2878 34.7706C67.21 34.7375 67.1225 34.7354 67.0432 34.7648C66.964 34.7941 66.8989 34.8528 66.8615 34.9286C66.8241 35.0044 66.8171 35.0917 66.842 35.1725C66.8669 35.2533 66.9218 35.3215 66.9955 35.3631C67.511 35.5862 68.0265 35.7324 68.465 35.8786C68.1727 36.5403 67.6956 37.9406 67.2186 38.9562C66.4087 38.9137 65.5971 38.9137 64.7872 38.9562C64.6995 38.9664 64.6194 39.0111 64.5646 39.0803C64.5097 39.1496 64.4847 39.2378 64.4949 39.3256C64.5051 39.4133 64.5497 39.4934 64.619 39.5482C64.6882 39.6031 64.7764 39.6281 64.8642 39.6179C65.5739 39.5737 66.2857 39.5737 66.9955 39.6179C66.9095 39.8344 66.835 40.0553 66.7723 40.2796C65.1566 40.2104 63.5408 40.2796 62.0712 40.2796C61.9939 40.2865 61.9216 40.3204 61.8667 40.3752C61.8119 40.4301 61.778 40.5024 61.7711 40.5797V40.8721C60.0092 40.5028 59.5706 38.5638 59.4629 38.1483L62.0173 33.1625ZM65.095 61.554C63.9589 62.5489 62.9277 63.6575 62.0173 64.8624C61.725 64.8624 61.2094 64.8624 60.9863 64.5701C60.8607 64.3906 60.7816 64.1828 60.7561 63.9653C60.7306 63.7477 60.7594 63.5272 60.8401 63.3236C62.0957 61.351 63.6536 59.5881 65.4566 58.0993C66.5646 57.5068 66.78 57.73 66.78 57.73C66.78 57.73 67.2417 58.3301 65.1027 61.5694L65.095 61.554ZM65.5413 62.0695C66.3107 61.6309 67.3032 61.3001 67.5264 61.4078C67.5264 61.4847 67.5264 61.8463 66.7569 62.9466C65.1181 65.2087 63.0791 66.4013 62.5636 66.1782C62.4867 66.1089 62.4174 65.8858 62.5636 65.301C63.435 64.1205 64.4364 63.0416 65.549 62.0849L65.5413 62.0695ZM65.0257 57.5838C63.1851 59.0605 61.6219 60.8529 60.4093 62.8774C60.0543 62.7934 59.7408 62.5862 59.5244 62.2926C59.4236 62.055 59.3842 61.7959 59.4097 61.5391C59.4353 61.2823 59.525 61.0361 59.6706 60.823C61.1147 58.7904 62.8224 56.9586 64.7488 55.3756C65.132 55.0923 65.5956 54.9386 66.0722 54.937C66.1337 55.0216 66.4338 55.3909 65.0334 57.5992L65.0257 57.5838ZM64.2563 55.0062C62.4669 56.5522 60.8402 58.277 59.4013 60.1536C59.2837 60.0787 59.1839 59.9789 59.109 59.8612C58.8858 59.4919 59.0474 58.8379 59.4706 58.0223C60.7709 55.5448 64.4718 52.4364 65.1335 52.5826C65.3258 52.8903 64.8103 54.1445 64.2256 55.0216L64.2563 55.0062ZM37.8192 53.0365C40.6276 47.1582 45.021 41.78 47.9678 39.5025C53.623 35.1476 58.1164 37.8098 58.855 38.3253C59.0012 38.9178 59.5167 41.1952 61.7942 41.5645V54.1445C60.6336 55.1799 59.6646 56.4119 58.932 57.7838C58.6525 58.2819 58.4771 58.8316 58.4165 59.3996C54.8849 60.0613 50.6146 60.6537 47.7447 60.9384C48.8526 56.6759 53.4153 50.4975 53.4153 50.4205C53.4153 50.3436 53.4845 50.0512 53.3383 49.982C53.1921 49.9127 52.969 49.905 52.8998 50.0512C52.6766 50.3513 48.0448 56.5989 47.0137 61.0154C45.4749 61.1616 44.4362 61.3078 44.4362 61.3078C44.3491 61.3193 44.2698 61.3643 44.2152 61.4332C44.1607 61.5021 44.1351 61.5896 44.1438 61.6771C44.1492 61.7528 44.1817 61.8241 44.2354 61.8778C44.2891 61.9315 44.3604 61.9641 44.4362 61.9694C44.5131 61.9694 52.3843 61.1616 58.3395 60.0536C58.3726 60.2057 58.4446 60.3466 58.5485 60.4626C58.6523 60.5786 58.7844 60.6656 58.932 60.7153C58.1626 63.0697 59.7014 63.3698 60.1015 63.439C59.6629 65.3549 61.3556 65.4241 61.725 65.5011C61.6377 65.8507 61.6902 66.2205 61.8711 66.5321C58.1933 69.7636 49.6605 74.1108 43.1897 73.2952C33.9183 72.095 33.6028 61.9464 37.8192 53.0365ZM54.377 145.566C54.3854 145.686 54.3699 145.806 54.3316 145.92C54.2933 146.033 54.2329 146.138 54.1539 146.228C53.6604 146.497 53.0859 146.576 52.5381 146.451H2.36457C0.748799 146.451 0.67955 146.374 0.67955 144.458C0.67955 143.474 1.01809 143.135 2.07219 143.135H51.938C52.7114 143.048 53.4913 143.23 54.1462 143.651C54.4232 144.02 54.377 144.52 54.377 145.566ZM52.2458 120.776C53.5283 123.32 55.0537 125.734 56.8007 127.985C56.8776 129.016 56.8776 130.294 56.9469 131.594L55.7697 131.078C55.6914 131.044 55.6034 131.041 55.5224 131.068C55.4415 131.094 55.3734 131.15 55.3311 131.225C55.2989 131.303 55.2959 131.39 55.3227 131.471C55.3496 131.551 55.4044 131.62 55.4773 131.663L56.9469 132.256V133.794L55.5542 133.21C55.4746 133.177 55.386 133.174 55.3042 133.2C55.2224 133.227 55.1528 133.282 55.108 133.356C55.0747 133.435 55.072 133.524 55.1004 133.605C55.1288 133.686 55.1864 133.753 55.2619 133.794L56.8776 134.456C56.9171 135.998 56.8425 137.541 56.6545 139.073C55.5723 137.975 54.6102 136.765 53.7846 135.464C53.3085 130.929 51.3725 126.671 48.2679 123.33C49.5458 122.41 50.871 121.557 52.2381 120.776H52.2458ZM34.8031 104.526C31.2023 106.219 30.3174 107.757 30.2405 109.081C30.1712 110.258 30.8252 111.451 32.3025 112.612C35.1263 114.836 44.5131 118.621 49.6605 126.077C52.8357 130.996 54.0672 136.92 53.1152 142.697C52.5458 142.581 55.5466 142.62 1.4105 142.62C1.4105 142.55 -0.374547 133.633 4.86517 126.077C10.1049 118.521 19.8072 114.644 22.2232 112.612C23.6697 111.404 24.3545 110.258 24.2852 109.081C24.2083 107.757 22.8156 106.065 19.7995 104.595C17.222 103.349 12.3977 100.894 8.61992 96.2854C4.00342 90.6686 2.35944 83.6336 3.68796 75.1803C3.76491 75.1803 48.4141 75.6189 50.7608 75.6189C54 95.2544 40.1044 102.033 34.8031 104.526ZM3.98804 74.5186C3.7473 74.5298 3.51116 74.4501 3.32634 74.2955C3.01857 73.9877 3.21093 72.5951 3.2494 72.4566C3.34942 72.1642 3.54947 72.0873 4.01881 72.0873H38.2193C42.4126 75.3265 49.322 73.703 52.6305 72.5258C52.4227 73.8031 52.7844 74.9572 51.5302 74.9572L3.98804 74.5186ZM82.9762 75.5419C72.1421 74.3723 61.2261 76.8293 51.938 82.5282C52.0653 80.1932 51.944 77.8513 51.5764 75.5419C51.7702 75.5577 51.9652 75.5336 52.1494 75.4712C52.3335 75.4087 52.503 75.3091 52.6472 75.1786C52.7913 75.0481 52.9073 74.8895 52.9878 74.7124C53.0683 74.5354 53.1116 74.3437 53.1152 74.1493C53.1768 73.4799 53.2614 72.6105 53.2614 72.2334C56.2425 71.1318 59.045 69.597 61.5788 67.6785V72.9721C61.5788 73.1875 61.7942 73.2645 62.0173 73.2645C68.4267 72.3251 74.8853 71.7599 81.3604 71.5717C82.0358 72.8353 82.5773 74.1659 82.9762 75.5419ZM85.4768 70.987C75.4744 70.4715 62.679 72.5258 62.2405 72.6028V67.163C62.3867 67.0861 62.4559 66.9399 62.6021 66.8629C63.9332 67.163 65.9414 65.1933 67.2186 63.4083C68.1188 62.1695 69.4191 59.7304 66.1876 61.1C67.7264 58.4532 68.3189 56.3142 66.0414 57.1991C66.9955 55.7987 67.511 53.452 65.272 54.4753C65.8567 53.5982 66.8877 49.7742 62.3251 53.5982V40.9721C68.2111 40.3104 78.2905 42.811 82.553 44.1421C80.1986 45.3116 78.4674 49.805 77.9365 54.7292C77.5826 57.8839 76.1823 66.2243 73.5201 67.6016C73.4472 67.645 73.3923 67.7132 73.3655 67.7937C73.3387 67.8742 73.3417 67.9616 73.3739 68.0401C73.4509 68.1171 73.5201 68.2633 73.6663 68.1863C75.359 67.6016 76.2669 65.401 77.2748 61.9387C77.9296 59.6024 78.3953 57.2172 78.6675 54.8062C79.1753 50.0281 81.0219 45.3885 83.4532 44.3575C85.3614 44.95 86.9079 45.4655 87.862 45.8271L85.4768 70.987ZM97.1719 65.6011C94.1429 66.8336 91.1952 68.2573 88.3467 69.8636L90.655 45.0808C93.2248 43.1649 98.8877 39.3409 102.566 36.9173C101.835 39.2255 100.804 44.2729 100.503 45.5963C99.9957 45.4501 99.0339 45.15 98.7415 45.6655C98.6723 45.8117 98.5184 46.0349 99.5109 47.3582C98.6261 46.9889 97.5951 46.7735 97.3027 47.3582C97.0796 47.8045 97.5951 48.6816 98.9954 50.082C97.6721 49.6357 96.2871 49.3126 95.9793 50.005C95.7639 50.4513 96.1255 51.3284 98.4799 53.1673C97.3027 52.9519 96.1255 52.9519 95.9024 53.6136C95.8599 53.7889 95.8875 53.9738 95.9793 54.1291C96.3487 54.7908 97.5951 55.4525 98.5492 55.8911C97.9106 57.8223 97.3181 64.3623 97.1719 65.6165V65.6011ZM99.5263 55.6679C98.4953 55.3756 96.364 54.1984 96.364 53.829C96.441 53.6136 96.8795 53.2443 99.6033 54.1983C100.188 54.5677 100.927 55.0832 100.927 55.3063C101.073 56.1988 99.5263 55.6833 99.5263 55.6833V55.6679ZM101.296 54.7908C100.839 54.3329 100.345 53.9134 99.8187 53.5367C97.8798 52.1825 96.2948 50.6667 96.2948 50.3051C96.364 50.082 97.9798 50.3744 99.9726 51.2592C100.688 51.8373 101.373 52.4511 102.027 53.0981C102.766 54.5061 101.511 54.8062 101.311 54.8062L101.296 54.7908ZM102.542 52.5826C102.25 52.2902 100.48 50.7437 100.48 50.7437C99.157 49.5665 97.7644 48.0199 97.6874 47.666C97.8336 47.5968 98.7185 47.666 100.265 48.4816C101.125 49.1939 101.935 49.9651 102.689 50.7898C103.797 52.0055 102.766 52.521 102.542 52.598V52.5826ZM103.058 50.1512C102.326 49.3294 101.54 48.5583 100.704 47.843C100.182 47.2637 99.7374 46.6198 99.3801 45.9271C100.019 45.9928 100.637 46.1909 101.194 46.5089C101.752 46.8268 102.238 47.2576 102.619 47.7737C104.05 49.705 103.204 50.1666 103.058 50.1666V50.1512Z" fill="#501200"/>
</svg>
