<svg width="97" height="148" viewBox="0 0 97 148" fill="none" xmlns="http://www.w3.org/2000/svg">
<path d="M56.514 104.955C48.9629 103.653 29.0966 102.581 23.7923 107.032C22.0157 108.513 22.8859 107.069 25.8074 140.525C25.866 141.379 26.0957 142.213 26.4827 142.977C26.8696 143.741 27.4061 144.419 28.0602 144.972C30.2531 146.69 48.9883 149.062 58.3521 143.904C59.3593 143.371 59.4185 141.652 59.4185 141.652C59.7932 137.824 62.5208 110.427 62.4808 109.297C62.3692 106.145 59.0361 105.448 56.514 104.955Z" fill="#FF7449"/>
<path d="M60.841 108.571C50.5709 109.631 39.746 110.256 29.3643 109.282C26.0304 108.97 25.7573 108.018 25.4518 108.631C24.9748 110.06 38.4726 110.409 40.3307 110.409C47.2663 110.409 54.2618 109.756 60.9011 109.105C61.2519 109.104 61.2342 108.571 60.841 108.571Z" fill="#501200"/>
<path d="M29.0679 115.388C26.712 117.744 19.1424 120.014 19.4048 116.277C19.5333 114.453 22.4579 111.535 22.9618 111.535C23.1273 111.452 23.2257 111.001 22.8433 111.001C22.2593 111.001 18.9393 113.937 18.8124 116.277C18.5046 122.001 30.7083 116.673 29.4826 115.448C29.4645 115.41 29.4375 115.378 29.4039 115.354C29.3704 115.33 29.3313 115.314 29.2903 115.308C29.2494 115.303 29.2078 115.307 29.169 115.321C29.1301 115.335 29.0952 115.358 29.0671 115.388H29.0679Z" fill="#501200"/>
<path d="M62.7978 110.231C62.2515 110.231 62.427 110.77 62.8471 110.856C67.1427 111.741 68.0791 116.891 62.1454 115.744C62.0684 115.732 61.9899 115.751 61.9261 115.795C61.8622 115.84 61.8179 115.907 61.8022 115.983C61.7863 116.06 61.8008 116.139 61.8428 116.205C61.8847 116.271 61.9508 116.318 62.0269 116.336C68.7208 117.675 68.1345 111.052 62.7978 110.231Z" fill="#501200"/>
<path d="M33.9876 116.159C33.9807 115.781 33.3851 115.75 33.3951 116.159C33.5875 124.341 34.6578 132.365 35.5287 141.945C35.5264 141.985 35.5324 142.025 35.5465 142.062C35.5606 142.099 35.5824 142.132 35.6105 142.16C35.6386 142.188 35.6723 142.21 35.7094 142.224C35.7465 142.238 35.7861 142.244 35.8257 142.242C36.6398 142.242 34.2315 129.075 33.9876 116.159Z" fill="#501200"/>
<path d="M44.658 115.862C44.3956 115.6 44.0609 115.976 44.184 116.099C44.2433 117.048 43.5908 141.886 43.5908 142.123C43.5908 142.57 44.1833 142.453 44.1833 142.183C44.1833 140.822 44.9873 116.192 44.658 115.862Z" fill="#501200"/>
<path d="M54.6763 115.21C54.6238 115.165 54.5575 115.139 54.4883 115.137C54.4192 115.134 54.3513 115.156 54.2959 115.197C54.2406 115.239 54.201 115.298 54.1839 115.365C54.1667 115.432 54.173 115.503 54.2016 115.566C54.3209 116.989 52.542 141.293 52.542 141.53C52.542 141.986 53.1352 141.952 53.1352 141.648C53.1352 140.738 55.2026 115.561 54.6763 115.21Z" fill="#501200"/>
<path d="M60.2514 94.8181L59.2435 65.2379L52.6635 65.7711L56.5759 91.0241C56.5759 91.5188 56.6244 91.3365 38.1992 94.1664L38.3177 95.5298L60.2514 94.8181Z" fill="#FCCAC2"/>
<path d="M55.9216 90.8463L51.5344 62.2148L29.1274 66.8383L34.818 94.1071L55.9216 90.8463Z" fill="white"/>
<path d="M38.7897 57.2945C38.7874 57.334 38.7936 57.3735 38.8077 57.4105C38.8218 57.4474 38.8435 57.481 38.8715 57.5089C38.8994 57.5369 38.933 57.5586 38.97 57.5727C39.0069 57.5868 39.0464 57.593 39.0859 57.5907C39.5252 57.5907 39.3829 57.333 39.1451 54.093C38.7666 48.9325 38.9143 48.7578 38.4934 48.7578C38.1087 48.7578 38.0403 48.6778 38.7897 57.2945Z" fill="#501200"/>
<path d="M42.5836 59.1319C42.5836 59.1708 42.5912 59.2093 42.6061 59.2453C42.621 59.2812 42.6428 59.3139 42.6703 59.3414C42.6979 59.3689 42.7305 59.3907 42.7664 59.4056C42.8024 59.4205 42.8409 59.4281 42.8798 59.4281C42.9187 59.4281 42.9572 59.4205 42.9932 59.4056C43.0291 59.3907 43.0618 59.3689 43.0893 59.3414C43.1168 59.3139 43.1386 59.2812 43.1535 59.2453C43.1684 59.2093 43.176 59.1708 43.176 59.1319C41.9988 41.4623 42.2789 41.8478 41.6941 42.2417C41.2333 42.4679 42.5043 54.39 42.5836 59.1319Z" fill="#501200"/>
<path d="M12.0553 79.8209C12.0553 79.2631 11.8353 79.4962 2.92544 77.7435C0.0670579 77.1826 0.148618 77.1233 0.0208947 77.5065C-0.106828 77.8897 0.294805 77.8581 2.80695 78.3367C12.0092 80.0909 11.8476 80.2356 12.0553 79.8209Z" fill="#501200"/>
<path d="M10.6318 83.674C0.951062 84.8597 0.96876 84.5689 0.96876 85.0374C0.966395 85.077 0.972465 85.1167 0.986564 85.1537C1.00066 85.1908 1.02247 85.2244 1.05055 85.2524C1.07863 85.2804 1.11233 85.3022 1.14943 85.3162C1.18653 85.3302 1.22618 85.3361 1.26576 85.3337C1.68663 85.2913 12.9032 84.0695 13.0024 83.9703V83.3778C12.9432 83.3778 12.113 83.4925 10.6326 83.674H10.6318Z" fill="#501200"/>
<path d="M52.6609 65.7713C51.99 61.3556 52.1416 61.5626 51.713 61.5626C28.4174 66.426 28.4751 66.2475 28.4751 66.7199L34.2842 94.522C34.2842 94.9598 33.9426 94.8659 56.3364 91.4397C56.7542 91.4397 56.6734 92.1845 52.6609 65.7713ZM34.8182 94.1073L29.1245 66.8384L51.5314 62.1558L55.9779 90.8465L34.8189 94.1073H34.8182Z" fill="#501200"/>
<path d="M53.6574 20.0195C34.2528 19.6156 35.3969 21.7461 43.3542 22.4385C43.4727 22.4385 44.5399 22.3793 44.5991 22.4978C44.8361 22.8533 43.7697 22.6178 43.3542 22.6755C37.492 23.485 29.6709 26.4972 30.428 27.8306C30.9543 28.7539 38.193 26.8758 41.3945 26.2918C41.6915 26.2372 42.0462 26.2325 42.3432 26.1725C42.2239 26.5288 40.3881 26.9466 40.0903 27.062C32.103 30.1619 23.8057 35.0647 39.798 30.8544C39.9757 30.7952 42.7025 30.262 42.7025 30.262C42.6433 30.6174 41.0429 31.0314 40.8051 31.1506C31.2328 35.1654 32.4908 37.3252 43.058 33.285C43.2949 33.2258 44.7176 32.5156 44.8953 32.6918C45.1954 32.9918 40.6297 35.3847 41.3391 36.4858C41.8723 37.316 44.9553 35.7163 45.4885 35.4778C50.4482 33.2888 58.931 32.1947 60.3083 31.5061C58.5894 30.2035 54.0729 20.852 53.6574 20.0195Z" fill="white"/>
<path d="M96.6451 28.0074C96.6451 28.0074 90.729 0.160762 89.828 0.857083C78.6407 9.51762 57.1071 18.4074 53.8463 19.8301C53.5617 19.5446 40.5278 20.0078 40.4493 20.0078C39.2044 20.1263 37.9002 20.3041 37.6632 21.0158C37.4262 21.7275 38.4096 22.0083 39.1451 22.1422H39.2636C44.6703 23.2963 40.5262 21.1104 32.0911 25.5799C31.2309 26.0354 29.5582 27.0157 30.0753 27.8328C30.5923 28.6499 32.5512 28.0698 32.6836 28.0698C37.2593 27.3557 39.2736 26.7618 39.5598 26.7618C38.0441 27.3204 29.9729 30.5719 30.3122 32.1561C30.62 33.5857 35.2919 31.9199 40.3308 30.9112C38.5677 31.6501 36.8634 32.5221 35.2326 33.5195C33.8354 34.2189 33.8085 34.9345 33.8692 35.1792C34.1732 36.0894 35.6566 35.7108 36.596 35.4762C38.9776 34.8827 41.3182 34.1356 43.6031 33.2395C42.7568 33.9935 40.1838 35.5593 40.924 36.6695C41.5949 37.5644 43.8016 36.5595 45.192 35.9001C48.6159 34.2705 55.2521 33.1618 60.591 31.7568C71.0705 35.8709 96.6451 28.0074 96.6451 28.0074ZM45.0173 35.3607C40.6901 37.4382 40.3785 36.4179 43.8316 33.9381C44.154 33.6165 45.0765 33.0648 45.0765 32.6932C45.0765 31.9522 43.6839 32.5793 42.9991 32.8709C41.0025 33.8712 31.1955 36.5741 35.4111 34.1166C37.2441 33.0429 39.1461 32.0919 41.1048 31.2698C42.2305 30.8551 42.7645 30.6181 42.8237 30.2626C42.9968 29.9164 42.7937 29.6263 39.6229 30.4403C21.8848 34.9922 36.6153 28.256 40.5116 27.0611C41.9827 26.6102 42.409 26.4086 42.5275 26.1131C42.5275 25.8762 42.4675 25.6977 42.2305 25.6977C40.5424 25.6977 30.6715 28.3721 30.6715 27.4765C31.0209 26.0785 39.9507 22.8524 43.9501 22.8524C45.2073 23.0062 45.5105 22.0829 43.5946 22.0829C42.3282 22.0829 38.2588 21.5082 38.2588 21.1343C38.6265 20.034 52.2621 20.3048 53.7309 20.3048C54.5611 22.0237 58.3551 29.5524 59.9555 31.3305C56.567 32.2392 48.2965 33.718 45.0173 35.3607Z" fill="#501200"/>
<path d="M88.5249 4.77124C88.8927 4.89435 88.7757 4.90897 87.577 8.50598C87.5308 8.59677 87.45 8.68372 87.2207 8.68372C86.8537 8.56138 86.9706 8.54676 88.1694 4.94898C88.1694 4.83202 88.3471 4.77124 88.5249 4.77124Z" fill="white"/>
<path d="M88.1694 19.1186C87.7847 19.1186 88.2548 19.9449 86.1536 15.8586C86.0289 15.6154 86.3236 15.1984 86.6875 15.5616C88.4357 18.9939 88.4626 18.8254 88.1694 19.1186Z" fill="white"/>
<path d="M81.471 25.7578C81.5209 25.795 81.558 25.8469 81.5771 25.9063C81.5907 25.9507 81.5937 25.9977 81.5858 26.0435C81.578 26.0893 81.5595 26.1326 81.5319 26.17C81.5043 26.2074 81.4684 26.2378 81.4269 26.2588C81.3855 26.2798 81.3397 26.2908 81.2932 26.291C81.1393 26.2917 81.434 26.4764 78.3294 24.0981C78.2983 24.0748 78.2721 24.0456 78.2523 24.0121C78.2325 23.9786 78.2194 23.9416 78.2139 23.9031C78.2084 23.8645 78.2106 23.8253 78.2202 23.7876C78.2299 23.75 78.2468 23.7146 78.2702 23.6834C78.2935 23.6523 78.3228 23.6261 78.3562 23.6063C78.3897 23.5865 78.4268 23.5734 78.4653 23.5679C78.5038 23.5624 78.543 23.5646 78.5807 23.5742C78.6184 23.5839 78.6538 23.6008 78.6849 23.6242L81.471 25.7578Z" fill="white"/>
<path d="M80.1664 10.5234C80.4741 10.8312 80.1525 10.8643 77.558 13.3703C77.485 13.4186 77.397 13.4392 77.3101 13.4283C77.2232 13.4174 77.143 13.3758 77.0841 13.311C76.7763 13.0033 77.0541 12.9263 79.6924 10.4642C79.7649 10.4141 79.8533 10.3925 79.9407 10.4034C80.0281 10.4143 80.1084 10.4571 80.1664 10.5234Z" fill="white"/>
<path d="M71.0378 27.9514C71.3379 28.2515 71.0186 28.3261 68.4887 30.7983C68.416 30.8475 68.3278 30.8687 68.2406 30.8578C68.1534 30.8469 68.0731 30.8047 68.0148 30.739C67.707 30.4313 67.9847 30.3543 70.6231 27.8922C70.6899 27.8582 70.7656 27.8457 70.8398 27.8563C70.914 27.8669 70.9831 27.9001 71.0378 27.9514Z" fill="white"/>
<path d="M70.3266 17.3404C70.4052 17.3404 70.4805 17.3716 70.5361 17.4272C70.5916 17.4827 70.6229 17.5581 70.6229 17.6366C70.6229 17.7152 70.5916 17.7905 70.5361 17.8461C70.4805 17.9017 70.4052 17.9329 70.3266 17.9329L66.7696 17.8144C66.7109 17.8147 66.6535 17.7975 66.6046 17.765C66.5557 17.7325 66.5176 17.6862 66.4951 17.6319C66.4727 17.5777 66.4669 17.518 66.4785 17.4605C66.4901 17.4029 66.5186 17.3501 66.5603 17.3089C66.5878 17.2813 66.6204 17.2595 66.6563 17.2445C66.6922 17.2296 66.7307 17.2219 66.7696 17.2219L70.3266 17.3404Z" fill="white"/>
<path d="M62.3241 26.7658C61.9933 26.7658 61.9994 26.4288 61.0792 23.0903C61.0622 23.0138 61.0747 22.9337 61.1143 22.8661C61.1539 22.7985 61.2177 22.7484 61.2928 22.7258C61.3678 22.7033 61.4486 22.7101 61.5189 22.7447C61.5892 22.7793 61.6438 22.8393 61.6717 22.9126C62.4988 26.1649 62.7965 26.7658 62.3241 26.7658Z" fill="white"/>
<path d="M53.254 26.3511C53.271 26.3855 53.28 26.4234 53.2802 26.4619C53.2795 26.5199 53.2588 26.5759 53.2217 26.6204C53.1845 26.665 53.1332 26.6954 53.0763 26.7066C49.6285 27.9076 46.0884 25.4378 45.8438 24.2167C45.8438 23.5173 46.6755 23.6781 46.437 24.1575C46.7663 24.6499 47.1895 25.0731 47.6819 25.4024C50.7411 27.6922 53.254 25.497 53.254 26.3511Z" fill="#501200"/>
<path d="M93.2084 24.6314C93.5162 24.9392 93.1946 24.973 90.6001 27.4782C90.5363 27.5225 90.4581 27.541 90.3811 27.5301C90.3042 27.5191 90.2343 27.4794 90.1854 27.419C89.8777 27.1112 90.1993 27.0781 92.793 24.5721C92.8604 24.54 92.9357 24.5285 93.0096 24.5391C93.0836 24.5496 93.1527 24.5817 93.2084 24.6314Z" fill="white"/>
</svg>
