<svg width="115" height="148" viewBox="0 0 115 148" fill="none" xmlns="http://www.w3.org/2000/svg">
<path d="M45.5349 144.031C25.08 134.838 19.9904 106.552 30.9453 88.3251C45.2564 64.5194 81.7706 68.0248 95.3454 90.4679C114.071 121.437 77.3503 158.328 45.5349 144.031Z" fill="#FCCAC2"/>
<path d="M59.6955 95.1975C59.3831 96.9672 57.8051 97.6689 56.3063 98.3136C54.5091 99.1371 52.6089 99.7138 50.6572 100.028C45.5975 100.745 46.2862 102.746 43.4693 105.034C41.5458 106.596 40.1955 106.062 38.6389 106.419C36.5292 106.9 36.0291 109.46 33.8078 110.86C33.0676 111.327 32.172 111.561 31.4703 112.068C30.984 112.419 30.4177 113.16 31.0225 113.587C31.6057 113.997 32.2282 114.094 32.6383 114.717C34.4472 117.451 28.9843 119.303 34.4887 120.93C36.7893 121.61 37.8018 120.397 39.5338 119.645C45.556 117.029 49.8532 121.449 47.4587 122.177C46.0507 122.606 45.5252 124.084 45.2382 125.352C44.6758 127.837 44.575 128.035 46.2515 129.267C50.7572 132.58 48.6706 139.458 45.5306 144.052C25.8566 135.208 20.1884 108.62 29.9884 90.0386C39.3753 85.9091 43.6986 90.6464 48.649 89.2984C50.4595 88.8052 52.2145 88.0458 54.1227 88.1881C57.7135 88.4528 60.1049 92.8616 59.6955 95.1975Z" fill="#FFB949"/>
<path d="M84.5307 138.635C82.4656 139.141 80.3535 136.974 79.5249 135.343C79.0394 134.155 78.6739 132.922 78.4338 131.662C77.6783 128.987 75.7632 128.616 70.3503 122.623C68.7692 120.873 66.2563 118.765 66.9649 116.16C67.5851 113.861 69.8064 112.203 71.5814 110.764C74.9876 108.004 78.5608 106.557 82.4302 108.544C83.8674 109.282 84.4383 109.589 85.6833 108.621C89.4896 105.664 87.336 104.913 86.2865 103.614C85.2562 102.34 85.3586 100.639 87.2413 99.5631C86.4473 99.0245 84.0498 98.7937 83.3458 96.914C82.891 95.7022 83.4227 95.2598 81.6315 94.7904C78.5885 93.9925 78.4 93.3855 77.6382 90.5248C77.1466 88.672 76.3072 88.9559 75.7686 87.661C74.2813 84.0855 79.4895 80.3139 82.5079 77.8633C105.77 91.8205 106.077 122.146 84.5307 138.635Z" fill="#FFB949"/>
<path d="M102.822 94.6712C103.016 94.6496 103.072 94.8835 102.975 95.0028C100.069 98.6545 99.9177 103.103 95.1451 105.443C94.0633 105.868 93.0768 106.503 92.2428 107.313C92.1336 107.438 91.9258 107.493 91.912 106.865C91.7265 98.3436 94.9842 93.7933 92.7299 90.1686C92.7016 90.122 92.6928 90.0662 92.7052 90.0131C92.7185 89.9604 92.752 89.9149 92.7985 89.8866C92.845 89.8582 92.9007 89.8492 92.9538 89.8616C93.0067 89.8747 93.0522 89.9082 93.0807 89.9547C95.312 93.4532 92.4883 97.5911 92.3213 104.544C93.8909 99.0484 99.4499 96.0423 99.4499 90.1878C99.3929 88.4903 99.1446 86.8046 98.7098 85.1628C98.6521 84.9096 99.0237 84.7919 99.0798 85.0266C99.9978 88.8382 100.426 91.572 98.5543 95.0382C96.6823 98.5044 93.2177 101.451 92.5352 105.421C93.6162 102.718 95.6813 100.36 97.658 98.1551C99.0506 96.607 100.653 94.9159 102.822 94.6712ZM102.393 95.1582C100.378 95.6422 98.9698 97.2618 97.5818 98.8006C95.7035 100.688 94.1501 102.873 92.9845 105.268C94.9135 102.513 97.1109 100.92 98.809 98.5475C98.9629 98.3321 99.2999 98.5306 99.1599 98.7422C97.3271 101.512 94.4795 103.411 92.8876 106.242C95.3967 104.549 96.8732 105.241 99.53 100.417C100.388 98.6134 101.344 96.8578 102.393 95.1582Z" fill="#501200"/>
<path d="M102.393 95.1582C101.336 96.8439 100.374 98.5867 99.5095 100.379C96.9158 105.104 94.8731 104.754 92.8672 106.202C94.4614 103.369 97.159 101.485 99.1395 98.7037C99.2933 98.4875 98.9248 98.3136 98.7894 98.5082C97.092 100.94 94.8354 102.556 92.9649 105.229C94.2167 102.333 99.2579 95.8345 102.393 95.1582Z" fill="white"/>
<path d="M92.2056 125.584C92.4395 127.058 92.2191 128.569 91.5737 129.915C90.9282 131.261 89.8884 132.378 88.5924 133.119C87.7322 133.611 86.7813 133.923 85.7972 134.038C85.7771 134.058 85.7579 134.077 85.7387 134.077C85.7125 134.154 85.7148 134.508 85.4655 134.408C85.2509 134.623 83.6805 133.331 83.3227 132.986C80.8914 130.639 80.6675 127.658 78.9794 125.369C78.4615 124.54 83.9159 125.667 85.3878 131.251C85.3878 125.403 90.7122 124.989 90.1405 119.038C90.1159 118.785 90.5067 118.766 90.5298 119.019C91.1277 125.583 84.6823 126.113 85.8941 132.323C87.1836 129.099 90.7045 128.184 91.8186 125.524C91.894 125.292 92.1664 125.409 92.2056 125.584ZM91.874 126.285C90.2359 128.978 87.1321 129.303 85.8725 133.473C87.7815 132.242 89.6865 130.851 90.7029 128.759C90.8176 128.524 91.1707 128.701 91.0538 128.954C90.1413 130.923 88.4047 132.263 86.6512 133.454C88.2212 133.056 89.6026 132.121 90.5564 130.812C91.5102 129.503 91.9763 127.901 91.874 126.285ZM85.3101 133.784C85.3101 129.493 82.7849 126.39 79.5833 125.526C81.2807 128.166 81.4369 131.426 84.8031 133.648C84.1799 132.287 83.3951 131.005 82.4656 129.83C82.3117 129.635 82.6433 129.4 82.8164 129.617C83.8272 130.89 84.6656 132.292 85.3101 133.784Z" fill="#501200"/>
<path d="M91.8549 126.285C91.9603 127.897 91.4977 129.494 90.5475 130.8C89.5973 132.107 88.2195 133.038 86.6536 133.434C88.4978 132.356 90.0183 130.802 91.0562 128.935C91.1701 128.699 90.82 128.505 90.7054 128.739C89.689 130.832 87.7639 132.226 85.875 133.454C87.0768 129.313 90.66 128.575 91.8549 126.285Z" fill="white"/>
<path d="M85.3295 133.784C84.6734 132.287 83.829 130.88 82.8166 129.596C82.6627 129.402 82.3295 129.596 82.4657 129.811C83.406 130.978 84.1917 132.261 84.8032 133.629C81.4324 131.404 81.2777 128.141 79.5835 125.506C82.7319 126.406 85.2164 129.256 85.3295 133.784Z" fill="white"/>
<path d="M39.672 90.6003C37.1929 91.9391 34.3738 91.7436 34.3738 91.4574C34.3685 91.496 34.3503 91.5317 34.322 91.5586C34.2938 91.5854 34.2572 91.6018 34.2184 91.6052C34.1927 91.6067 34.167 91.6028 34.143 91.5936C31.2554 90.7303 31.0376 86.9771 29.7796 84.8735C29.3218 83.9587 33.986 84.982 34.5323 90.5026C36.2619 85.6607 35.0016 85.0759 33.9483 82.77C33.6117 82.0166 33.4795 81.1879 33.565 80.3672C33.6505 79.5465 33.9507 78.7628 34.4353 78.095C34.5892 77.8803 34.8839 78.1542 34.727 78.3674C33.5336 79.9978 33.7937 81.7528 34.747 83.4324C35.9011 85.4629 36.3166 86.8948 34.8439 90.7757C37.3437 89.4069 40.3983 90.1463 39.672 90.6003ZM38.9903 90.5026C38.3158 90.3703 37.6227 90.364 36.946 90.4841C37.3837 90.9211 36.4328 90.9458 34.8616 91.2243C36.2758 91.3188 37.692 91.0713 38.9903 90.5026ZM34.1984 90.8534C34.1426 89.9743 33.9589 89.1081 33.6528 88.282C33.388 87.5224 32.9519 86.8338 32.3781 86.2698C31.8044 85.7058 31.1085 85.2815 30.3444 85.0297C31.4215 87.0402 31.6301 89.9286 33.7529 90.9896C33.0445 89.9956 32.511 88.8879 32.1756 87.7142C32.0986 87.4603 32.4872 87.3441 32.5457 87.578C32.9017 88.7577 33.461 89.8662 34.1984 90.8534Z" fill="#501200"/>
<path d="M36.9457 90.4641C37.6237 90.3535 38.3157 90.36 38.9915 90.4833C38.2683 90.798 37.5097 91.0204 36.7318 91.1458C36.1122 91.2322 35.4851 91.2518 34.8613 91.2043C34.9106 91.2043 36.5448 90.8965 36.9072 90.8342C36.9583 90.8179 37.001 90.7823 37.0264 90.7351C37.0518 90.6879 37.0579 90.6327 37.0434 90.5811C37.0026 90.5226 36.9641 90.5026 36.9457 90.4641Z" fill="white"/>
<path d="M32.3669 109.572C31.727 107.627 30.5026 105.927 28.8607 104.703C27.2187 103.48 25.2393 102.793 23.1924 102.735C25.1636 104.197 25.603 106.637 27.3995 108.209C28.0163 108.743 28.7343 109.148 29.5107 109.399C30.2872 109.65 31.1062 109.743 31.9191 109.671C30.2633 108.268 28.5629 106.876 26.9125 105.444C26.7148 105.272 26.9894 104.982 27.1856 105.151C27.261 105.217 32.3176 109.474 32.3669 109.572ZM37.295 97.8074C37.3281 97.7972 37.3633 97.7959 37.397 97.8036C37.4308 97.8113 37.4619 97.8277 37.4873 97.8512C37.5125 97.8746 37.5313 97.9041 37.542 97.9368C37.5526 97.9695 37.5547 98.0044 37.5481 98.0382C36.8818 101.371 38.1744 107.094 32.7177 109.823C32.6408 109.823 32.7008 109.946 32.5423 109.976C31.5819 110.164 30.5913 110.13 29.646 109.876C28.7008 109.623 27.8259 109.157 27.0879 108.515C25.0436 106.709 24.6066 103.916 22.3945 102.749C20.868 101.944 29.627 101.671 32.4454 108.75C32.6014 107.369 32.2858 105.975 31.5498 104.796C29.7755 101.91 29.0984 101.998 28.9976 97.0433C29.055 95.5849 28.8027 94.1308 28.2574 92.7769C28.0327 92.233 27.6912 91.7452 27.2569 91.348C26.8226 90.9508 26.3063 90.654 25.7445 90.4787C25.5137 90.4017 25.5906 90.027 25.8422 90.0894C26.4876 90.29 27.0791 90.6344 27.5722 91.0965C28.0652 91.5587 28.4471 92.1267 28.6891 92.7577C29.9355 95.563 28.8868 98.7953 30.0525 101.621C30.5995 102.945 31.6598 103.982 32.273 105.263C33.2733 107.356 32.6062 109.255 33.3448 106.256C33.9219 103.903 33.9019 99.05 37.295 97.8074ZM37.0811 98.3336C33.9811 99.9333 34.6259 104.158 33.0093 108.696C33.9001 107.885 34.6193 106.903 35.1245 105.809C35.6297 104.715 35.9107 103.531 35.9508 102.326C35.9554 102.073 36.354 102.054 36.3409 102.307C36.2096 104.909 35.0539 107.353 33.1263 109.105C37.6997 106.166 36.5279 101.614 37.0811 98.3321V98.3336Z" fill="#501200"/>
<path d="M37.081 98.332C36.5001 101.775 37.7258 106.07 33.1462 109.123C34.1176 108.269 34.9039 107.226 35.4566 106.056C36.0093 104.887 36.3168 103.617 36.3601 102.325C36.3601 102.071 35.9754 102.094 35.9708 102.345C35.9272 103.549 35.6448 104.733 35.1398 105.827C34.6349 106.921 33.9175 107.904 33.0293 108.719C34.5358 104.487 34.0988 99.7762 37.081 98.332Z" fill="white"/>
<path d="M34.0422 89.646C34.1137 90.0361 34.1399 90.4639 34.1961 90.8532C33.4707 89.8677 32.9295 88.7591 32.5988 87.5809C32.5257 87.3262 32.154 87.4632 32.2287 87.7171C32.5659 88.8891 33.0992 89.9955 33.806 90.9894C31.7555 89.9438 31.3831 87.0654 30.3975 85.0295C32.0786 85.5058 33.5698 87.0685 34.0422 89.646Z" fill="white"/>
<path d="M32.3669 109.572C32.3277 109.496 32.3115 109.636 27.1857 105.151C26.9887 104.978 26.7355 105.289 26.9125 105.443C28.5514 106.865 30.2441 108.268 31.9191 109.67C26.3516 110.209 25.7907 104.564 23.1924 102.735C25.2394 102.792 27.2192 103.479 28.8612 104.703C30.5032 105.926 31.7275 107.627 32.3669 109.572Z" fill="white"/>
<path d="M26.9912 87.8534C27.5367 86.997 27.9768 85.9783 27.5167 85.0297C27.2528 84.4841 26.7781 84.5565 26.3095 84.9319C25.8223 85.2659 25.4323 85.7231 25.1792 86.2569C25.1792 79.2644 21.1644 81.7404 22.4524 85.9252C18.6992 81.9374 17.899 87.6895 20.9528 88.0288C20.3813 88.4428 19.8412 88.8985 19.3371 89.3922C16.8788 91.799 19.9387 93.6756 22.0446 91.4381C20.168 95.0213 23.1649 95.6383 24.9861 92.5284C25.4104 91.8339 25.6518 91.0432 25.6878 90.2301C25.7763 90.2301 26.9897 89.6608 27.7522 89.3345C28.1615 89.1591 28.7455 88.9444 28.707 88.3989C28.7339 87.8011 27.8522 87.2571 26.9912 87.8534Z" fill="#FF7449"/>
<path d="M38.8922 76.6144C36.9002 75.5249 36.7093 77.1299 38.3859 75.0171C38.8268 74.5247 39.1763 73.9574 39.4177 73.3421C39.7986 72.1426 38.1782 70.9638 35.9707 74.1015C35.9224 72.7784 35.604 71.4792 35.0351 70.2837C32.9646 66.0419 31.7428 71.497 33.3793 74.3162C29.5723 71.7202 27.6087 75.3934 31.5096 76.9653C31.8928 77.1208 32.3044 77.1937 32.7176 77.1792C28.3281 79.7729 30.2293 81.8218 32.7369 80.0037C35.1551 78.251 33.7156 77.8124 34.9182 80.2176C35.1839 80.7968 35.5316 81.3348 35.9507 81.8149C36.874 82.6205 37.8473 81.3448 36.5547 78.3287C39.894 80.5061 41.6467 78.1209 38.8922 76.6144Z" fill="#FF7449"/>
<path d="M100.406 82.9252C101.073 80.8785 101.56 75.7319 99.3345 76.7314C98.6112 77.0561 98.3235 78.0171 98.1073 78.718C97.1432 81.8457 98.9075 82.215 96.5684 79.926C96.1068 79.4728 95.4851 78.9619 94.855 79.3997C93.4023 80.4092 95.065 83.5607 96.9585 84.1524C96.1014 84.8341 94.718 85.165 94.6988 86.4514C94.6841 87.4001 95.7105 87.9433 97.017 86.9385C99.0998 85.3342 97.4971 84.871 99.7631 86.9385C100.265 87.4392 100.82 87.8833 101.419 88.2626C103.188 89.1359 103.712 86.8177 101.594 85.2042C106.479 85.9021 104.063 79.8314 100.406 82.9252Z" fill="#FF7449"/>
<path d="M94.7378 88.5742C94.1702 88.4017 93.5718 88.3552 92.9843 88.438C93.2998 88.0695 93.5322 87.6378 93.666 87.1716C94.2893 84.9403 92.6443 84.8687 91.6602 87.9318C91.3678 87.5655 91.6056 87.0985 91.0169 86.4514C90.8705 86.2371 90.6678 86.0673 90.4311 85.9606C90.1945 85.8539 89.933 85.8146 89.6754 85.8467C89.4179 85.8789 89.1741 85.9815 88.971 86.1431C88.7679 86.3048 88.6132 86.5192 88.524 86.763C88.1955 87.834 89.6012 88.4557 90.1398 88.8858C87.917 88.802 86.2997 90.994 87.0429 91.3795C88.254 91.6968 89.5384 91.5724 90.6661 91.0287C88.7233 93.7216 91.5001 94.808 92.068 92.8206C92.575 94.0863 93.633 92.6944 92.9451 90.1715C95.1426 91.1133 97.5831 89.4714 94.7378 88.5742Z" fill="#FF7449"/>
<path d="M93.9002 116.644C93.5319 116.487 93.1296 116.427 92.7315 116.469C95.5598 113.973 91.6489 112.089 90.7841 115.203C90.721 114.211 90.4557 113.242 90.0047 112.356C88.2619 109.065 86.8424 113.644 89.4007 115.745C83.8455 116.173 85.9668 119.054 87.8034 118.2C86.59 119.523 85.8798 121.701 87.6495 121.508C88.8544 121.379 89.62 120.138 90.1616 119.054C91.0734 122.699 94.1695 121.331 92.9861 119.112C95.0497 120.118 96.4462 117.762 93.9002 116.644Z" fill="#FF7449"/>
<path d="M23.7186 87.7757C23.5345 87.8415 23.3829 87.9759 23.2956 88.1508C23.2083 88.3258 23.1919 88.5277 23.25 88.7143C23.3011 88.8679 23.4027 88.9997 23.5382 89.0881C23.6738 89.1766 23.8353 89.2165 23.9965 89.2015C24.1576 89.1864 24.3089 89.1172 24.4257 89.0051C24.5425 88.893 24.6179 88.7447 24.6396 88.5843C24.6577 88.4637 24.6452 88.3405 24.6033 88.2259C24.5614 88.1113 24.4914 88.0091 24.3997 87.9287C24.3081 87.8482 24.1977 87.792 24.0787 87.7653C23.9597 87.7385 23.8359 87.7421 23.7186 87.7757Z" fill="white"/>
<path d="M34.4513 75.9913C34.4241 76.061 34.4112 76.1355 34.4133 76.2103C34.4155 76.2852 34.4327 76.3588 34.4639 76.4268C34.4951 76.4949 34.5397 76.5559 34.595 76.6064C34.6503 76.6568 34.7151 76.6957 34.7858 76.7205C34.8564 76.7453 34.9313 76.7557 35.006 76.751C35.0807 76.7463 35.1537 76.7266 35.2206 76.6931C35.2876 76.6596 35.3471 76.613 35.3956 76.556C35.4441 76.499 35.4807 76.4328 35.5031 76.3614C35.8725 75.6689 34.4513 75.058 34.4513 75.9913Z" fill="white"/>
<path d="M91.2704 89.6067C91.2213 89.7463 91.2297 89.8997 91.2936 90.0331C91.3576 90.1665 91.472 90.269 91.6116 90.3181C91.7512 90.3671 91.9045 90.3588 92.0379 90.2948C92.1713 90.2308 92.2738 90.1164 92.3229 89.9768C92.7045 89.3082 91.2704 88.6596 91.2704 89.6067Z" fill="white"/>
<path d="M90.1213 117.5C90.0945 117.57 90.0819 117.645 90.0843 117.719C90.0866 117.794 90.1039 117.868 90.1351 117.936C90.1663 118.004 90.2107 118.065 90.2659 118.115C90.321 118.166 90.3856 118.205 90.456 118.23C90.5622 118.268 90.6777 118.273 90.7867 118.244C90.8957 118.214 90.993 118.152 91.0654 118.065C91.1141 118.008 91.1507 117.942 91.1731 117.871C91.5555 117.201 90.1213 116.553 90.1213 117.5Z" fill="white"/>
<path d="M98.6731 83.5684C98.6463 83.6382 98.6337 83.7127 98.636 83.7874C98.6384 83.8621 98.6557 83.9357 98.6868 84.0036C98.718 84.0716 98.7625 84.1326 98.8176 84.1831C98.8727 84.2337 98.9374 84.2727 99.0078 84.2978C99.114 84.3363 99.2294 84.3411 99.3384 84.3116C99.4475 84.2821 99.5448 84.2199 99.6172 84.1332C99.6658 84.0762 99.7024 84.01 99.7249 83.9385C100.059 83.2222 98.6731 82.6521 98.6731 83.5684Z" fill="white"/>
<path d="M30.4771 75.348C30.6372 75.605 30.8473 75.8271 31.095 76.0012C31.3427 76.1753 31.6229 76.2977 31.919 76.3613C31.9469 76.3628 31.9744 76.3543 31.9967 76.3374C32.0192 76.3209 32.0352 76.297 32.0421 76.2699C32.049 76.2429 32.0462 76.2142 32.0344 76.1889C32.0226 76.1635 32.0025 76.1429 31.9774 76.1305C31.7041 76.081 31.4445 75.9738 31.216 75.8159C30.9875 75.658 30.7954 75.453 30.6525 75.2149C30.5633 75.0633 30.3755 75.348 30.4771 75.348Z" fill="white"/>
<path d="M33.9639 69.836C34.5527 70.5643 34.8325 71.4944 34.7433 72.4267C34.7433 72.5629 34.9379 72.6213 34.9741 72.4851C35.0725 71.4918 34.779 70.4992 34.1562 69.7191C34.0285 69.5891 33.8677 69.836 33.9639 69.836Z" fill="white"/>
<path d="M36.4571 79.4198C36.4444 79.3952 36.423 79.376 36.3971 79.366C36.3713 79.3555 36.3425 79.3549 36.3163 79.3644C36.2903 79.374 36.2685 79.3927 36.2551 79.417C36.2417 79.4413 36.2375 79.4696 36.2432 79.4968C36.4402 79.9992 36.4741 80.5509 36.341 81.0741C36.321 81.211 36.5356 81.2495 36.5718 81.1133C36.727 80.5522 36.6865 79.9549 36.4571 79.4198Z" fill="white"/>
<path d="M19.5893 85.8283C19.4985 86.4885 20.0386 87.1702 20.2125 86.9971C20.251 86.9578 20.251 86.8601 20.2125 86.8432C20.0691 86.7362 19.956 86.5938 19.8842 86.4299C19.8124 86.266 19.7845 86.0863 19.8032 85.9083C19.8509 85.7629 19.5893 85.6806 19.5893 85.8283Z" fill="white"/>
<path d="M19.355 91.7296C20.0167 92.0612 20.9469 91.9658 21.8871 90.9702C22.0041 90.8725 21.8286 90.717 21.7117 90.8163C21.1469 91.4003 20.2706 91.965 19.4519 91.5172C19.2742 91.4395 19.2488 91.7296 19.355 91.7296Z" fill="white"/>
<path d="M26.8345 86.8408C26.8225 86.8601 26.817 86.8827 26.8186 86.9054C26.8203 86.928 26.8291 86.9496 26.8437 86.967C26.8535 86.9788 26.8655 86.9884 26.8791 86.9954C26.9065 87.0079 26.9376 87.0095 26.9661 87.0001C26.9805 86.9947 26.9936 86.9863 27.0045 86.9754C27.0153 86.965 27.0237 86.9524 27.0292 86.9385C27.2046 86.5884 27.2915 86.1999 27.2823 85.8082C27.2776 85.7814 27.2631 85.7572 27.2415 85.7405C27.2254 85.7282 27.2062 85.7207 27.186 85.7188C27.1658 85.717 27.1455 85.7208 27.1274 85.73C27.1093 85.7392 27.0942 85.7532 27.0838 85.7706C27.0733 85.788 27.068 85.808 27.0684 85.8282C27.1454 85.8282 27.0261 86.503 26.8345 86.8408Z" fill="white"/>
<path d="M87.2577 120.89C88.1664 121.344 88.8289 120.453 89.2836 119.582C89.3421 119.445 89.1474 119.351 89.089 119.484C88.7404 120.112 88.2641 121.08 87.3747 120.692C87.2047 120.621 87.1431 120.89 87.2577 120.89Z" fill="white"/>
<path d="M88.6994 112.066C88.5677 112.908 88.7704 113.768 89.2642 114.462C89.3411 114.577 89.5342 114.444 89.4588 114.345C89.223 114.031 89.0545 113.672 88.9639 113.29C88.8734 112.908 88.8627 112.511 88.9326 112.125C88.9326 111.968 88.6994 111.929 88.6994 112.066Z" fill="white"/>
<path d="M93.1407 114.734C93.0314 114.698 92.9652 114.807 92.9652 115.007C92.8114 115.308 92.5805 115.458 92.6929 115.572C92.8821 115.859 93.4 114.734 93.1407 114.734Z" fill="white"/>
<path d="M90.2573 93.0939C90.2939 93.2125 90.3638 93.3181 90.4587 93.3981C90.5537 93.478 90.6697 93.529 90.7928 93.5447C90.9157 93.5604 91.0405 93.5409 91.1526 93.4883C91.2647 93.4357 91.3596 93.3523 91.4261 93.2478C91.5184 93.1146 91.2845 93.0054 91.2114 93.15C91.1652 93.2171 91.1005 93.2692 91.0252 93.3001C90.9504 93.3322 90.8678 93.3416 90.7877 93.3273C90.7075 93.3129 90.6333 93.2754 90.5743 93.2193C90.5146 93.164 90.4721 93.0927 90.452 93.0138C90.4197 92.8346 90.1681 93.0939 90.2573 93.0939Z" fill="white"/>
<path d="M89.3814 86.2952C88.6589 86.7346 89.1429 87.8587 89.3814 87.6202C89.4199 87.5809 89.4007 87.5032 89.3814 87.4663C89.324 87.3944 89.2818 87.3115 89.2574 87.2227C89.2331 87.1339 89.2271 87.0411 89.2399 86.9499C89.2526 86.8588 89.2838 86.7712 89.3316 86.6925C89.3793 86.6138 89.4426 86.5456 89.5176 86.4922C89.6353 86.4137 89.5176 86.1983 89.3814 86.2952Z" fill="white"/>
<path d="M93.179 86.3344C93.2138 86.8748 93.0474 87.4089 92.712 87.834C92.6351 87.951 92.8297 88.0495 92.9067 87.9317C93.095 87.6989 93.2351 87.4308 93.3188 87.1432C93.4024 86.8556 93.4279 86.5543 93.3937 86.2567C93.3745 86.1198 93.1406 86.1982 93.179 86.3344Z" fill="white"/>
<path d="M95.1274 86.2761C95.1203 86.4215 95.155 86.5659 95.2274 86.6921C95.2998 86.8184 95.4069 86.9213 95.5359 86.9886C95.6649 87.0561 95.8104 87.0854 95.9555 87.073C96.1005 87.0606 96.239 87.007 96.3546 86.9186C96.4985 86.7747 96.3184 86.67 96.2376 86.7239C96.1769 86.7729 96.106 86.8079 96.0301 86.8262C95.9542 86.8445 95.8752 86.8457 95.7987 86.8297C95.7223 86.8137 95.6504 86.7809 95.5882 86.7338C95.526 86.6866 95.475 86.6262 95.439 86.5569C95.3902 86.4649 95.3699 86.3605 95.3805 86.2569C95.3805 86.1161 95.1274 86.1191 95.1274 86.2761Z" fill="white"/>
<path d="M95.0106 80.4515C94.9486 80.887 95.0289 81.3308 95.2395 81.7169C95.45 82.103 95.7797 82.4108 96.1794 82.5944C96.3156 82.6528 96.4102 82.4582 96.2771 82.3997C95.9201 82.2366 95.625 81.9629 95.4356 81.6191C95.2462 81.2753 95.1725 80.8797 95.2253 80.4908C95.2285 80.4764 95.229 80.4615 95.2268 80.4469C95.2239 80.4325 95.2184 80.4187 95.2107 80.4061C95.2022 80.3938 95.1915 80.3831 95.1791 80.3746C95.1669 80.3662 95.153 80.3607 95.1384 80.3584C95.1238 80.3556 95.1088 80.3558 95.0944 80.3591C95.0799 80.3624 95.0663 80.3688 95.0545 80.3777C95.0425 80.3861 95.0325 80.3972 95.0253 80.41C95.0175 80.4226 95.0125 80.4368 95.0106 80.4515Z" fill="white"/>
<path d="M99.9384 77.4322C100.418 77.8246 100.241 78.3186 100.445 78.2509C100.702 78.2509 100.415 77.5284 100.095 77.2568C99.9099 77.1337 99.8615 77.4322 99.9384 77.4322Z" fill="white"/>
<path d="M102.082 84.8733C102.762 84.8894 103.845 84.5201 103.913 83.88C103.913 83.7438 103.718 83.6853 103.682 83.8215C103.616 84.3524 102.636 84.6517 102.066 84.6201C101.91 84.6417 101.961 84.8671 102.082 84.8733Z" fill="white"/>
<path d="M20.0187 61.8495C17.7874 64.2624 17.9182 65.3473 17.5843 65.1803C16.6693 64.2181 15.5223 63.5072 14.2535 63.1159C14.0227 63.039 13.9203 63.4322 14.1558 63.5053C15.2372 63.8305 16.2209 64.4196 17.018 65.2195C18.2906 66.5075 17.7543 64.8441 20.3265 62.1611C20.485 61.928 20.1764 61.6771 20.0187 61.8495Z" fill="#501200"/>
<path d="M15.2058 102.482C14.583 103.175 14.1767 104.035 14.0371 104.956C12.7703 104.197 11.3421 103.749 9.86916 103.648C9.61525 103.629 9.63833 104.019 9.88839 104.037C11.3857 104.147 12.8314 104.63 14.0956 105.44C14.6341 105.78 14.0632 104.261 15.4805 102.713C15.6736 102.564 15.3805 102.287 15.2058 102.482Z" fill="#501200"/>
<path d="M98.9642 61.4408C98.3182 61.5853 97.7108 61.8671 97.1833 62.2669C96.6557 62.6668 96.2203 63.1754 95.9065 63.7583C95.2965 62.5734 94.3906 61.5662 93.2767 60.8345C93.0635 60.696 92.8689 61.0469 93.082 61.1846C95.5195 62.7588 95.7642 65.0401 96.0827 64.3015C96.346 63.6775 96.7564 63.1266 97.279 62.6958C97.8016 62.265 98.4207 61.9672 99.0834 61.8278C99.1308 61.8088 99.1694 61.7728 99.1914 61.7268C99.2135 61.6808 99.2175 61.6281 99.2027 61.5793C99.1878 61.5303 99.1549 61.4888 99.1107 61.4631C99.0664 61.4374 99.0141 61.4295 98.9642 61.4408Z" fill="#501200"/>
<path d="M112.814 97.7881C111.486 98.5404 110.342 99.5782 109.464 100.826C109.185 99.441 108.562 98.1481 107.652 97.0671C107.481 96.8686 107.166 97.0864 107.302 97.2818C108.267 98.4437 108.904 99.8422 109.148 101.333C109.152 101.375 109.169 101.415 109.197 101.447C109.225 101.479 109.263 101.501 109.305 101.509C109.346 101.518 109.39 101.513 109.428 101.495C109.467 101.477 109.499 101.447 109.518 101.41C110.393 100.039 111.59 98.9026 113.005 98.1012C113.262 98.002 113.028 97.6696 112.814 97.7881Z" fill="#501200"/>
<path d="M73.1546 85.3019C72.3944 84.7567 71.8713 83.9413 71.6928 83.0229C71.2634 81.1486 69.0814 80.8862 67.0955 77.8024C67.0955 77.4331 66.1968 75.6888 65.7105 75.6404C64.9684 75.0748 64.0523 74.7856 63.1199 74.8225C62.4775 74.8825 61.735 75.2164 61.0948 74.9979C60.9978 74.9723 60.8963 74.9689 60.7978 74.9879C60.6993 75.0069 60.6063 75.0479 60.5258 75.1078C60.4453 75.1677 60.3793 75.2449 60.3328 75.3338C60.2862 75.4226 60.2603 75.5209 60.2569 75.6211C59.8376 78.6711 56.6199 79.5821 57.4324 80.6662C57.3655 84.7025 55.9967 84.2732 56.3999 85.1657C56.4905 85.3397 56.641 85.4749 56.8236 85.5465C57.0062 85.6181 57.2085 85.6211 57.3932 85.5551C57.764 85.4604 57.9925 85.1026 58.2311 84.8541C58.4049 84.6725 58.3496 84.5825 58.6012 85.4581C58.6401 85.5931 58.7221 85.7118 58.8345 85.796C58.947 85.8803 59.0838 85.9256 59.2244 85.9251C59.3649 85.9255 59.5017 85.8801 59.6141 85.7959C59.7266 85.7116 59.8085 85.5931 59.8476 85.4581C59.9061 85.3604 59.9453 85.2434 60.0015 85.1457C60.023 85.3077 60.1048 85.4555 60.2306 85.5596C60.3565 85.6638 60.517 85.7166 60.6801 85.7074C60.8433 85.6975 60.9967 85.6261 61.1093 85.5076C61.222 85.3891 61.2855 85.2323 61.2872 85.0688C61.2872 84.9918 61.2795 85.0872 61.3457 85.1857C61.39 85.3341 61.4853 85.4619 61.6148 85.5469C61.7443 85.6318 61.8995 85.6682 62.0533 85.6498C62.207 85.6314 62.3493 85.5594 62.455 85.4463C62.5608 85.3332 62.6232 85.1865 62.6313 85.0319C62.7275 85.0894 62.8372 85.1204 62.9492 85.1218C63.0613 85.1231 63.1717 85.0947 63.2692 85.0395C63.3665 84.9839 63.4471 84.9033 63.5027 84.806C63.5583 84.7088 63.5869 84.5984 63.5854 84.4863C63.5631 84.2555 63.6301 83.6861 63.6301 83.4722C64.1549 83.7498 64.6117 84.1401 64.9677 84.6151C65.3237 85.0902 65.57 85.6382 65.689 86.2198C65.7729 86.9008 65.786 88.2972 66.7408 88.3426C66.9515 88.3426 67.1564 88.2743 67.325 88.1479C67.4935 88.0215 67.6166 87.8439 67.6756 87.6417C67.7526 87.8171 67.8126 88.0118 67.8903 88.1872C67.936 88.3366 68.0332 88.4648 68.1647 88.5491C68.2962 88.6334 68.4534 88.6682 68.6082 88.6473C68.7628 88.6259 68.9047 88.5502 69.0087 88.4338C69.1127 88.3174 69.172 88.1678 69.176 88.0118C69.176 87.8756 69.1952 87.7587 69.1952 87.6225C69.3314 88.3042 70.5663 88.1472 70.4809 87.4078C70.4653 87.246 70.4589 87.0833 70.4617 86.9208C70.5386 87.0269 70.6102 87.1377 70.6756 87.2524C70.7576 87.3848 70.8837 87.4839 71.0318 87.5324C71.1798 87.5808 71.3401 87.5755 71.4845 87.5172C71.629 87.459 71.7482 87.3516 71.8212 87.2141C71.8942 87.0765 71.9163 86.9176 71.8836 86.7653C71.8251 86.5507 71.7466 86.356 71.7081 86.1421C71.9613 86.2391 72.2321 86.3622 72.526 86.4537C73.1316 86.6369 73.6047 85.7289 73.1546 85.3019Z" fill="white"/>
<path d="M66.3964 28.0342C66.3379 27.7419 66.2463 27.4287 66.1655 27.1386C65.8693 26.1107 66.1532 23.9286 64.529 22.3852C62.7786 20.7217 56.9949 18.6689 55.8808 21.9574C54.9636 22.6906 54.592 30.7287 55.1206 32.6123C55.7723 34.9282 58.1859 36.2547 58.9969 36.2547C58.9969 40.5634 63.3249 40.7734 65.383 38.4752C66.2848 37.4688 66.1432 36.2239 66.0647 31.7551C68.7585 31.9044 69.5856 28.0342 66.3964 28.0342Z" fill="white"/>
<path d="M56.4815 38.2022C56.1468 37.2881 55.3105 37.1365 54.4164 36.878C53.3623 36.5703 52.2559 36.1802 51.2026 36.6249C49.2021 37.4712 48.2834 39.4894 47.5209 41.3776C46.7167 43.585 46.0536 45.8414 45.5358 48.133C42.0481 45.5047 37.2615 42.8787 36.2259 41.4337C36.0274 41.1567 36.4621 39.6987 36.5929 39.0208C37.2362 35.6723 34.0946 34.6706 32.4435 36.7026C32.3291 36.8254 32.267 36.9878 32.27 37.1556C32.273 37.3233 32.341 37.4834 32.4596 37.602C32.5783 37.7207 32.7383 37.7887 32.9061 37.7917C33.0738 37.7947 33.2362 37.7325 33.3591 37.6182C33.5514 37.4543 34.4709 37.8044 34.4709 39.0332C34.4709 41.4183 32.4096 41.5138 31.9764 40.6759C31.6825 40.1096 31.9887 39.3909 32.1303 38.1052C32.124 37.9773 32.0814 37.8538 32.0077 37.7492C31.9339 37.6445 31.8319 37.5629 31.7136 37.5139C31.5953 37.4649 31.4655 37.4505 31.3393 37.4723C31.2131 37.4942 31.0957 37.5515 31.0008 37.6374C30.5 38.2053 30.1644 38.8997 30.0305 39.6449C29.8966 40.3902 29.9696 41.1579 30.2414 41.8646C30.5492 42.6733 30.7307 42.5717 30.3576 42.5655C29.5513 42.5257 28.7678 42.2848 28.0786 41.8646C27.9293 41.7868 27.7557 41.7699 27.5943 41.8175C27.4329 41.8651 27.2962 41.9734 27.213 42.1197C27.1297 42.266 27.1065 42.4389 27.1481 42.6019C27.1897 42.765 27.293 42.9056 27.4361 42.9941C27.7816 43.2042 28.1917 43.3365 28.2155 43.3834C28.1069 43.4126 27.9959 43.4321 27.8839 43.4419C27.1437 43.5004 26.9606 44.3267 27.6823 44.5599C28.3841 44.7799 29.1159 44.8891 29.8513 44.8838C29.5377 45.0591 29.2042 45.1963 28.858 45.2923C28.0393 45.5232 28.3894 46.8089 29.1888 46.5396C36.5129 44.0682 31.3147 42.3486 40.37 49.6942C40.6454 49.9173 40.3323 49.7326 44.8503 54.116C45.3119 54.5661 46.2352 56.2311 49.7199 54.603C51.4896 53.7759 51.7104 52.2879 52.3498 51.5839C53.2615 50.5782 54.034 51.8562 55.719 44.7268C55.9606 43.7158 56.8385 39.1793 56.4815 38.2022Z" fill="white"/>
<path d="M67.0781 38.2022C67.3974 37.2789 68.2484 37.1365 69.1425 36.878C70.1966 36.5703 71.303 36.1802 72.3563 36.6249C75.7756 38.066 76.9405 44.1336 77.8438 47.6814C78.1215 48.4231 77.6245 48.4785 80.7129 46.4611C82.5372 45.27 83.7267 44.1382 86.1281 42.7017C88.107 41.5191 87.0914 39.6764 86.966 39.0208C86.3227 35.6723 89.4643 34.6706 91.1147 36.7026C91.2284 36.8257 91.2903 36.988 91.2873 37.1556C91.2843 37.3232 91.2166 37.4831 91.0985 37.602C90.98 37.7209 90.8199 37.789 90.6521 37.792C90.4842 37.795 90.3218 37.7327 90.1991 37.6182C90.0067 37.4543 89.2835 37.6182 89.2835 38.8493C89.2835 41.2345 91.1485 41.5176 91.5817 40.6797C91.8756 40.1134 91.5694 39.3948 91.4278 38.1091C91.4346 37.9812 91.4773 37.8578 91.5511 37.7532C91.6249 37.6485 91.7267 37.5668 91.8448 37.5174C91.9631 37.4683 92.0929 37.4539 92.2191 37.4758C92.3452 37.4978 92.4626 37.5552 92.5573 37.6413C93.0584 38.2091 93.3941 38.9033 93.5282 39.6486C93.6622 40.3939 93.5893 41.1617 93.3175 41.8685C93.0097 42.6771 92.8274 42.5755 93.2006 42.5694C94.0068 42.5296 94.7903 42.2886 95.4796 41.8685C95.6293 41.7833 95.8068 41.7611 95.973 41.8067C96.1391 41.8524 96.2803 41.9622 96.3655 42.112C96.4507 42.2618 96.4729 42.4392 96.4273 42.6054C96.3816 42.7716 96.2718 42.9128 96.122 42.998C95.6119 43.3057 94.8986 43.4458 95.6742 43.4458C96.4144 43.5042 96.5013 44.0813 95.7804 44.3137C95.0387 44.5499 94.2654 44.6753 93.4868 44.6845C93.8709 44.9276 94.2771 45.1337 94.7001 45.3C95.5188 45.5309 95.1687 46.8166 94.3693 46.5473C92.4296 45.8925 92.2149 45.7171 89.3519 44.239C87.404 46.1769 85.346 48.0009 83.1881 49.7019C82.4669 50.4467 81.7904 51.2337 81.1623 52.0586C77.526 55.8526 76.1234 55.6748 73.8382 54.6107C72.0686 53.7836 71.8493 52.2971 71.2091 51.5916C70.2943 50.5836 69.5249 51.8655 67.8391 44.7345C67.5852 43.6604 66.7219 39.2409 67.0781 38.2022Z" fill="white"/>
<path d="M78.5505 25.0151C76.0214 14.0817 68.832 15.5459 67.2724 18.2758C65.2011 15.0719 58.2587 15.3751 55.5072 19.5838C55.0976 20.1358 54.8178 20.7731 54.6887 21.4483C54.5596 22.1234 54.5846 22.819 54.7617 23.4832C54.9879 24.0587 55.2364 23.9656 55.5603 23.6294C55.8589 23.3147 56.0689 22.9269 56.1697 22.5053C56.5133 22.5423 56.8607 22.4962 57.1828 22.3709C57.5048 22.2456 57.792 22.0446 58.0202 21.7851C58.1987 21.6058 58.4472 21.2665 58.7019 21.3758C59.0733 21.6914 59.5265 21.8955 60.009 21.9644C60.4915 22.0333 60.9837 21.9642 61.4287 21.7651C61.5734 22.1673 61.8462 22.5109 62.205 22.7431C62.5639 22.9754 62.9891 23.0835 63.4153 23.0508C63.6923 23.0231 63.8631 23.0816 63.8631 23.5378C63.9522 23.8928 64.1146 24.2252 64.3399 24.5137C64.5652 24.8022 64.8483 25.0403 65.1711 25.2128C65.1072 25.6465 65.1072 26.0872 65.1711 26.5208C65.4612 28.2643 65.8151 28.0981 66.556 28.0981C68.0595 28.0981 68.4303 28.2413 68.8543 27.2995C69.1528 26.6363 69.3252 25.9222 69.3613 25.1959C71.8904 34.3243 78.0765 40.7943 78.3989 40.9151C78.6236 40.9997 82.2767 40.6842 83.7948 39.0061C85.7406 37.2003 81.7251 38.7353 78.5505 25.0151Z" fill="#FFB949"/>
<path d="M63.3183 24.918C62.7574 24.5333 61.214 24.1171 61.2924 24.7426C61.2924 25.3212 62.0826 24.7865 62.9282 25.4628C63.2537 25.699 63.6784 25.1235 63.3183 24.918Z" fill="#FFB949"/>
<path d="M55.8384 25.5211C56.1892 25.772 56.3516 25.4442 56.4424 25.385C57.064 24.7633 57.8273 25.1803 57.7665 24.684C57.8527 23.6576 55.2451 24.9295 55.8384 25.5211Z" fill="#FFB949"/>
<path d="M71.3042 57.4082C70.1177 54.2721 71.3234 52.1339 71.1095 51.2921C69.8309 47.8512 68.885 44.2957 68.285 40.6742C67.6818 37.0841 68.2142 37.6081 66.3961 37.1295C66.3691 37.1224 66.3409 37.1215 66.3135 37.127C66.2862 37.1324 66.2605 37.1441 66.2383 37.1611C66.2159 37.1779 66.1977 37.1998 66.1853 37.2249C66.1729 37.2498 66.1661 37.2771 66.1653 37.3049C65.879 40.8612 59.1189 40.5711 58.9581 37.5358C58.9581 37.0641 58.3426 37.7797 55.8035 37.4965C55.773 37.4945 55.7426 37.5009 55.7155 37.5149C55.6884 37.529 55.6656 37.5503 55.6498 37.5764C55.6339 37.6025 55.6255 37.6325 55.6255 37.663C55.6255 37.6936 55.6338 37.7235 55.6497 37.7497C55.6497 38.3875 54.8033 48.1883 52.7082 51.2683C52.5041 51.5095 52.3269 51.7721 52.1796 52.0516C51.898 52.9256 53.5515 55.2569 53.8723 57.5444C54.0693 58.9424 52.9852 62.0532 57.3785 60.8167C62.0019 59.5164 64.3179 58.6393 66.5923 58.3046C66.9862 58.2453 71.4819 57.8783 71.3042 57.4082Z" fill="#FF7449"/>
<path d="M89.7897 55.3631C86.3804 52.854 82.1594 54.0628 78.083 55.2092C73.2526 56.5657 72.2393 57.4328 72.2393 57.1381C71.5345 54.3175 72.417 54.4606 66.2209 55.19C57.1826 56.2533 54.5989 57.3174 53.6371 57.3328C53.5553 57.3355 53.4776 57.3692 53.4198 57.4271C53.3619 57.4849 53.3282 57.5626 53.3255 57.6444C53.0447 61.2945 54.7312 60.065 49.4492 56.885C48.688 56.4221 47.9219 55.9673 47.151 55.5208C47.9171 55.664 48.7082 55.5839 49.43 55.29C51.5782 54.4144 51.4389 52.8402 52.4307 52.2123C52.5016 52.1664 52.552 52.0949 52.5715 52.0128C52.5909 51.9306 52.5779 51.8441 52.5352 51.7713C52.4924 51.6984 52.4232 51.6449 52.3419 51.6219C52.2607 51.5988 52.1737 51.6081 52.0991 51.6476C51.5984 52.0275 51.2026 52.5284 50.9488 53.1033C50.7205 53.5146 50.4126 53.8762 50.0429 54.167C49.6733 54.4578 49.2494 54.6721 48.796 54.7973C48.3427 54.9224 47.8689 54.9559 47.4024 54.8959C46.9359 54.8358 46.4861 54.6834 46.0792 54.4475C45.0558 53.862 45.546 54.6268 34.4695 43.9873C34.4259 43.9465 34.3715 43.9193 34.3127 43.9089C34.254 43.8985 34.1935 43.9055 34.1386 43.9288C33.9124 43.9288 30.2723 45.8108 29.5414 45.9939C28.3765 46.1601 28.3326 45.8901 29.3275 45.4484C29.8922 45.2337 30.5354 45.1568 31.0802 44.9029C31.1406 44.8672 31.1879 44.8128 31.2148 44.7479C31.2417 44.6831 31.2469 44.6113 31.2296 44.5432C31.2122 44.4752 31.1733 44.4146 31.1186 44.3706C31.064 44.3265 30.9965 44.3014 30.9263 44.2989C30.4354 44.322 27.5955 44.3412 27.5955 43.9096C27.5955 43.5803 29.379 44.1866 30.5562 43.8511C30.632 43.8305 30.6978 43.7834 30.7417 43.7183C30.7855 43.6533 30.8045 43.5746 30.7952 43.4966C30.7859 43.4187 30.7488 43.3467 30.6908 43.2939C30.6328 43.241 30.5577 43.2107 30.4793 43.2086C28.9274 43.1409 27.4893 42.3961 27.3631 42.1176C27.1323 41.6844 29.9361 42.7801 30.8301 42.7801C31.0652 42.9706 31.3362 43.112 31.627 43.1956C31.9178 43.2793 32.2225 43.3036 32.5228 43.2671C32.9322 43.2117 32.9322 42.5746 32.5228 42.6239C30.9117 42.827 29.5129 40.8188 30.8863 38.5721C31.0748 38.2644 31.5903 37.4757 31.8211 37.7543C32.0089 37.9812 31.4364 39.4762 31.5903 40.3256C31.9073 42.1422 34.1432 42.3577 34.7657 39.5655C35.2212 37.5211 34.0732 36.7356 33.1684 37.2865C33.0714 37.3457 32.9376 37.5011 32.7983 37.4619C32.6621 37.4619 32.6229 37.308 32.5844 37.2087C32.5498 36.6601 33.7693 35.6207 34.9019 35.923C36.4353 36.3331 36.3576 38.4406 35.9737 39.6047C35.8253 39.9013 35.7368 40.2243 35.7133 40.5551C35.6898 40.886 35.7317 41.2182 35.8367 41.5329C36.4576 42.8409 41.3942 44.879 45.0505 48.4284C45.2205 48.5938 48.1081 50.4412 47.5241 49.0908C47.4233 48.86 45.903 48.3499 45.9661 48.0975C47.2333 43.0478 48.2828 37.8558 51.5566 36.9164C52.221 36.7266 52.9231 36.7111 53.5951 36.8715C54.2672 37.0319 54.8866 37.3627 55.3937 37.832C55.7092 38.1205 56.1708 37.6589 55.8608 37.3649C55.3861 36.9184 54.8224 36.5772 54.2066 36.3638C53.5908 36.1504 52.9369 36.0696 52.2877 36.1266C51.6385 36.1837 51.0087 36.3773 50.4395 36.6948C49.8704 37.0123 49.3748 37.4465 48.9853 37.9689C47.2841 40.1141 46.7747 42.8863 45.8684 46.1694C45.7145 46.7156 45.5567 47.2596 45.4206 47.8444C43.1055 45.8513 40.615 44.0716 37.9795 42.5269C36.66 41.6806 36.0491 41.4836 36.5176 40.0725C37.1009 38.3205 37.0185 36.0169 35.2904 35.3791C34.6508 35.1877 33.9634 35.2366 33.3573 35.5164C32.7511 35.7962 32.2681 36.2878 31.9989 36.8987C31.9913 36.9729 31.9715 37.0455 31.9404 37.1133C30.6478 36.8548 28.8727 39.9663 30.0707 42.0022C27.4762 41.3736 27.3331 41.2882 26.9931 41.3982C26.4491 41.5752 26.2106 42.5416 27.7132 43.2102C27.2462 43.2687 26.7815 43.441 26.8569 43.9888C26.9815 44.8998 28.3657 44.7706 28.902 44.9044C27.6132 45.4569 27.6001 46.464 28.5904 46.6579C29.8168 46.8972 30.8986 46.1263 34.1609 44.5928L44.4026 54.0182C42.2919 52.8369 39.9692 52.0826 37.5671 51.7984C35.4897 51.5337 33.9509 51.9977 33.0091 54.7591C31.7011 58.6193 33.7878 63.1457 36.1068 66.4658C41.0172 73.5013 48.629 77.6031 56.8125 80.1791C56.9487 80.1983 57.0433 80.256 57.1826 80.276C56.7933 80.9777 57.1018 81.7948 56.8902 82.555C56.6733 83.3337 55.9554 83.8799 55.9554 84.7563C55.9554 85.9874 57.3403 86.3559 58.3321 85.438C58.345 85.587 58.3953 85.7303 58.4784 85.8547C58.5614 85.9791 58.6745 86.0805 58.8071 86.1495C58.9398 86.2186 59.0877 86.253 59.2372 86.2497C59.3867 86.2464 59.533 86.2054 59.6624 86.1305C59.8355 86.0312 59.971 85.8766 60.0456 85.6912C60.106 85.7759 60.1826 85.8479 60.271 85.9031C60.3593 85.9582 60.4577 85.9953 60.5604 86.0123C60.6631 86.0293 60.7682 86.0259 60.8696 86.0022C60.971 85.9785 61.0667 85.935 61.1512 85.8743C61.2644 85.7927 61.3536 85.6819 61.4098 85.555C61.5128 85.6309 61.6312 85.6835 61.7566 85.709C61.8821 85.7346 62.0116 85.7324 62.1361 85.7027C62.2606 85.6731 62.3772 85.6166 62.4776 85.5373C62.5781 85.4579 62.6601 85.3576 62.7178 85.2434C63.3018 85.8281 64.1874 85.2326 64.0419 84.2693C64.0065 84.115 63.955 83.9649 63.8881 83.8215C65.9416 85.9412 65.0868 87.13 66.2055 88.3402C66.3504 88.4984 66.5429 88.605 66.7539 88.6437C66.9648 88.6825 67.1827 88.6513 67.3743 88.5549C67.682 88.3702 67.5466 88.2787 67.7059 88.438C67.8032 88.5948 67.9469 88.7175 68.1171 88.7888C68.2874 88.8601 68.4756 88.8765 68.6557 88.8358C68.8357 88.7951 68.9985 88.6992 69.1215 88.5615C69.2444 88.4239 69.3214 88.2513 69.3417 88.0679C69.9072 88.5295 70.5604 88.3118 70.6497 87.4446C70.7935 87.5714 70.9733 87.6501 71.1639 87.6701C71.3546 87.69 71.5468 87.6501 71.7137 87.5559C71.8807 87.4617 72.0142 87.3178 72.0957 87.1443C72.1772 86.9708 72.2026 86.7762 72.1685 86.5875C72.3364 86.6856 72.5308 86.7285 72.7244 86.7102C72.9179 86.6918 73.1008 86.6131 73.2472 86.4852C73.3442 86.4006 73.4227 86.2959 73.4765 86.1782C73.9197 85.2026 72.9825 84.5693 72.3863 84.0161C71.513 83.2067 72.1362 82.3573 71.3929 81.4647C70.5235 80.2406 69.0439 80.056 67.7498 77.53C74.5283 74.7054 81.163 71.4231 87.0344 66.989C89.4657 65.1539 92.975 62.6972 92.3903 59.2179C92.0417 57.6505 91.1125 56.2732 89.7897 55.3631ZM32.5228 38.436C32.5228 38.0343 32.5552 38.2413 32.8537 38.2413C33.1653 38.2413 33.3192 38.0228 33.5939 37.9104C34.8249 37.4042 34.0332 41.5652 32.8345 41.0851C31.8542 40.7834 32.4867 38.746 32.5228 38.436ZM63.3764 84.6778C63.3764 84.8502 63.1902 85.0625 63.0255 84.7363C62.1992 83.8068 62.0976 84.6332 62.1684 84.7948C62.3292 85.1626 61.6421 85.2618 61.6037 84.7948C61.6036 84.7095 61.5699 84.6276 61.5098 84.567C61.4492 84.5071 61.3673 84.4735 61.282 84.4735C61.1968 84.4735 61.1149 84.5071 61.0543 84.567C60.9942 84.6276 60.9605 84.7095 60.9604 84.7948C60.9381 85.7389 60.4149 85.5642 60.4149 84.7948C60.3957 84.4632 59.8563 84.3285 59.7725 84.7178C59.7178 84.9717 59.5993 85.7627 59.1492 85.6327C58.9184 85.5657 59.0384 84.4993 59.0723 84.2693C59.0716 84.2102 59.0549 84.1523 59.0239 84.102C58.9929 84.0517 58.9487 84.0108 58.8962 83.9837C58.8437 83.9565 58.7848 83.9442 58.7258 83.948C58.6668 83.9519 58.61 83.9717 58.5614 84.0054C58.496 84.0495 58.449 84.116 58.4291 84.1923C58.0128 85.7381 55.9115 85.885 56.8518 84.0946C57.2118 83.5845 57.4696 83.0097 57.6112 82.4019C57.6766 81.7987 57.475 81.0939 57.842 80.5707C58.8422 80.9046 58.6253 80.7769 59.15 79.7336C60.5149 80.7486 61.804 81.8618 63.0071 83.0644C62.9386 83.8784 63.4079 84.1831 63.3772 84.6786L63.3764 84.6778ZM69.8041 80.9377C71.3668 82.1195 70.9836 82.2765 71.2452 83.4114C71.4391 84.7194 72.9479 84.9379 72.9202 85.8073C72.8971 86.5475 72.0793 85.9674 71.8492 85.7104C71.5914 85.4218 71.2006 85.7873 71.3237 86.0997C71.4168 86.3351 71.713 86.9376 71.3429 87.1515C70.9728 87.3269 70.7197 86.7037 70.6412 86.4698C70.505 86.1582 69.9988 86.1582 69.9988 86.5467C69.9988 87.0476 70.0342 87.7601 69.901 87.8132C69.6702 87.8717 69.4548 87.0522 69.3755 86.9168C69.3397 86.8566 69.2854 86.8096 69.2206 86.7829C69.1557 86.7563 69.084 86.7514 69.0162 86.7691C68.9487 86.7868 68.8884 86.8253 68.8439 86.8791C68.8 86.9337 68.7746 87.0008 68.7715 87.0707C68.7523 87.4016 68.9077 88.0448 68.5961 88.2779C68.1483 88.668 68.0706 87.5962 68.0706 87.3823C68.0675 87.3043 68.0368 87.2299 67.984 87.1724C67.9311 87.1149 67.8596 87.078 67.7821 87.0684C67.7044 87.0591 67.6259 87.0778 67.5609 87.1213C67.4958 87.1648 67.4485 87.2301 67.4274 87.3054C67.1842 88.408 66.7872 88.3056 66.4925 87.8117C66.0886 87.1384 66.0386 85.9866 65.5385 85.0456C64.3359 82.7843 59.3447 79.1981 59.4216 79.1981C60.0448 77.89 60.7296 76.5882 61.4282 75.341C63.0486 76.3135 64.6883 73.6367 66.8819 77.2114C67.9967 79.6682 68.1214 79.6666 69.8049 80.9385L69.8041 80.9377Z" fill="#501200"/>
<path d="M57.0074 35.8261C57.4859 36.1555 58.0314 36.3749 58.6047 36.4686C58.4747 37.4524 58.7255 38.4487 59.3056 39.2539C60.4105 40.4849 63.2704 40.6804 65.2863 39.2346C66.6713 38.1259 66.5089 37.4511 66.435 32.2414C67.1036 32.1861 67.7309 31.8954 68.2053 31.4211C68.6797 30.9467 68.9704 30.3194 69.0257 29.6508C69.1288 27.828 66.6866 27.3295 65.7341 28.1889C65.4171 28.4751 65.888 28.9491 66.2011 28.6559C66.4161 28.5147 66.6648 28.4331 66.9217 28.4196C67.1785 28.4061 67.4344 28.4611 67.663 28.579C69.1565 29.1037 68.0477 31.6166 66.0657 31.5797C65.6041 31.5705 65.8126 31.7274 65.8126 35.2806C65.8126 36.5694 65.9149 37.535 65.384 38.2605C64.4792 39.4978 61.7239 40.1387 60.1635 39.1369C59.3002 38.5829 59.2479 37.5011 59.2679 36.5463C61.2684 36.634 62.9896 35.5699 64.4884 34.2088C64.8046 33.9218 64.3345 33.4694 64.0206 33.7418C58.8655 38.2313 54.8153 35.2506 55.0408 28.6967C55.0969 27.0809 55.2385 25.4652 55.4501 23.8663C55.504 23.4562 54.8538 23.4578 54.8069 23.8663C54.3344 27.9681 53.6358 33.5225 57.0074 35.8261Z" fill="#501200"/>
<path d="M55.955 27.2163C55.9365 27.9565 55.8011 28.9598 56.3251 29.3784C56.4628 29.499 56.636 29.5717 56.8185 29.5856C57.0011 29.5995 57.1832 29.5538 57.3376 29.4553C57.7847 29.1383 57.8547 28.5813 58.3117 27.371C58.3243 27.3303 58.3281 27.2874 58.3229 27.2451C58.3178 27.2028 58.3037 27.162 58.2817 27.1255C58.2601 27.0889 58.2311 27.0572 58.1965 27.0324C58.1619 27.0076 58.1225 26.9903 58.0809 26.9817C57.6231 26.8278 57.4654 28.025 57.1845 28.6498C56.9652 29.1383 56.789 28.9698 56.7475 28.7105C56.6929 28.3728 56.7713 27.7511 56.719 27.3471C56.6421 26.7639 55.9635 26.8816 55.955 27.2163Z" fill="#501200"/>
<path d="M62.2276 29.7484C62.8808 29.4406 62.9339 28.6412 63.0647 27.664C63.0772 27.6128 63.0768 27.5593 63.0637 27.5082C63.0506 27.4571 63.0251 27.4101 62.9896 27.3712C62.954 27.3322 62.9094 27.3027 62.8597 27.285C62.81 27.2674 62.7568 27.2623 62.7046 27.2701C62.6421 27.2799 62.5838 27.3079 62.537 27.3506C62.4902 27.3932 62.457 27.4487 62.4415 27.5101C62.2876 28.2872 62.2107 29.1259 61.9352 29.1259C61.5059 29.1259 61.5259 28.0056 61.5259 27.5478C61.5416 27.4861 61.5385 27.421 61.5171 27.3611C61.4956 27.3011 61.4567 27.2488 61.4054 27.2111C61.3541 27.1733 61.2927 27.1517 61.229 27.1491C61.1654 27.1464 61.1024 27.1628 61.0481 27.1962C60.9756 27.2405 60.9233 27.3115 60.9027 27.3939C60.6688 28.5611 61.1566 30.1431 62.2276 29.7484Z" fill="#501200"/>
<path d="M58.9939 26.9047C58.6816 28.2727 58.5183 29.6704 58.5068 31.0734C58.5074 31.1368 58.5266 31.1986 58.5621 31.2512C58.5975 31.3037 58.6477 31.3447 58.7062 31.3689C58.7648 31.3932 58.8292 31.3997 58.8914 31.3877C58.9536 31.3756 59.0109 31.3455 59.0562 31.3012C59.1163 31.2406 59.1501 31.1588 59.1501 31.0734C59.1585 29.7293 59.3147 28.3897 59.6171 27.0802C59.7117 26.6701 59.0916 26.4762 58.9939 26.9047Z" fill="#501200"/>
<path d="M58.0781 32.7677C57.3933 32.7677 57.8773 34.5227 59.3861 34.5374C60.3794 34.5489 60.7202 33.891 60.9049 32.9216C60.9572 32.4515 60.3248 32.383 60.2817 32.7677C60.194 33.2386 60.1555 33.5833 59.8146 33.8387C59.676 33.898 59.5259 33.9254 59.3753 33.9189C59.2247 33.9123 59.0775 33.872 58.9445 33.801C58.8116 33.7299 58.6963 33.6299 58.6072 33.5083C58.5181 33.3868 58.4574 33.2467 58.4297 33.0986C58.4161 33.0122 58.3742 32.9328 58.3105 32.8729C58.2468 32.8131 58.1651 32.776 58.0781 32.7677Z" fill="#501200"/>
<path d="M96.5884 41.4551C96.2583 41.3166 96.1267 41.4043 93.5107 42.0199C94.8779 39.8716 92.7605 36.764 91.6602 37.1118C91.3525 35.0713 87.0999 33.9017 86.7514 37.7542C86.5913 39.5239 87.4585 40.4756 87.1607 41.2212C86.7868 42.0222 84.5185 43.1801 82.1541 44.7667C77.1298 48.139 78.4401 48.506 77.8692 46.7925C76.7621 42.5861 75.7349 36.9748 71.7332 36.1961C71.0135 36.0596 70.2717 36.0943 69.5679 36.2973C68.8641 36.5003 68.2178 36.866 67.6814 37.3649C67.3667 37.6534 67.8353 38.1243 68.1492 37.8319C69.8512 36.2385 72.7095 36.2685 74.4584 38.9422C75.9242 41.1804 76.3697 43.9726 77.4591 47.9997C77.613 48.566 76.0511 48.8169 75.9788 49.227C75.8364 50.0418 76.8175 49.6401 77.2452 49.3247C77.7069 48.9846 78.4517 48.4668 78.4917 48.4283C83.1397 43.9326 88.0324 42.8447 87.8609 40.6572C87.8186 40.1263 87.4369 39.4162 87.3738 38.4559C87.113 34.478 91.0432 35.9638 90.9778 37.1902C90.9416 37.8712 90.3499 36.9225 89.6144 37.1133C88.004 37.5288 88.7218 41.3358 90.393 41.6321C91.2825 41.7859 92.1904 40.9157 91.9711 39.3923C91.8534 38.5744 91.5479 37.7596 91.8349 37.658C92.1219 37.5565 93.0429 38.7745 93.2368 39.8986C93.4676 41.2204 92.4989 42.79 91.0162 42.5669C90.6077 42.5054 90.47 43.0978 90.8624 43.1901C91.1952 43.2608 91.5397 43.2555 91.8702 43.1747C92.2007 43.0938 92.5087 42.9394 92.7713 42.7231C92.8282 42.7424 92.8898 42.7424 92.9467 42.7231C96.4791 41.8398 96.88 41.6521 95.5958 42.5084C94.8272 42.8992 93.983 43.1186 93.1214 43.1517C92.672 43.1709 92.3219 44.1465 94.6025 43.8718C97.4493 43.5302 95.5989 44.4281 92.6736 44.2419C92.6025 44.2429 92.5337 44.2672 92.4778 44.3112C92.4219 44.3551 92.382 44.4162 92.3643 44.4851C92.347 44.5539 92.3529 44.6265 92.381 44.6917C92.4091 44.7569 92.4578 44.8111 92.5197 44.8459C93.3891 45.2229 94.6356 45.3014 94.9349 45.82C95.0118 45.9562 95.0118 45.8785 94.9349 45.9177C94.3963 46.4563 91.7695 44.7767 90.7077 44.5328C90.3769 44.3189 90.026 44.1434 89.6952 43.9288C89.6143 43.8682 89.5168 43.8339 89.4158 43.8304C89.3148 43.827 89.2152 43.8546 89.1304 43.9095C78.0008 54.0974 77.2429 55.7778 74.3653 54.5644C72.5441 53.795 72.6926 52.2962 71.5185 51.5637C71.1469 51.3329 70.8352 51.8961 71.1869 52.1284C71.7509 52.5008 71.9678 53.2179 72.3556 53.765C72.9283 54.5453 73.752 55.1048 74.6885 55.3495C75.625 55.5943 76.6171 55.5094 77.4984 55.1091C78.7194 54.5567 78.1955 54.9668 89.4389 44.4912C93.2198 46.3417 93.9646 46.7771 94.9903 46.5563C95.8866 46.3632 96.0675 45.5192 94.6787 44.8228C95.4896 44.7066 96.5968 44.6813 96.7045 43.9072C96.7815 43.3617 96.3144 43.1478 95.8474 43.1278C97.1431 42.8993 97.2785 41.7452 96.5884 41.4551ZM90.7839 41.1042C89.5197 41.5136 88.8496 37.4988 89.946 37.8904C90.2761 38.0081 90.5877 38.4167 91.017 38.1982C91.0501 38.9891 91.8195 40.7688 90.7839 41.1042Z" fill="#501200"/>
<path d="M56.3252 22.4052C56.7338 22.1743 56.2275 21.962 56.2275 21.1972C56.2275 20.9217 56.2998 20.6016 56.0328 20.5347C55.1942 20.4301 55.7597 22.8291 56.3252 22.4052Z" fill="#501200"/>
<path d="M59.0791 21.125C59.1799 20.0001 59.2499 20.1632 59.6816 19.6246C59.7373 19.5768 59.7735 19.5101 59.7831 19.4373C59.7928 19.3644 59.7752 19.2906 59.7339 19.2299C59.3792 18.6082 58.4043 19.8454 58.3489 20.8911C58.3135 21.4874 59.0276 21.7282 59.0791 21.125Z" fill="#501200"/>
<path d="M61.935 21.8598C62.3674 21.5959 62.7721 21.2892 63.143 20.9442C63.4046 20.7572 63.1291 20.2148 62.7583 20.4202C62.6398 20.4856 62.7729 20.4449 61.6419 21.2366C61.2895 21.4128 61.6103 22.103 61.935 21.8598Z" fill="#501200"/>
<path d="M64.3121 23.6124C65.0908 23.5293 66.2357 22.843 65.7925 22.4052C65.5678 22.2452 65.4686 22.2613 65.0715 22.6584C64.9238 22.8061 64.6099 22.8322 64.4091 22.9307C64.3632 22.9216 64.3159 22.9219 64.2702 22.9318C64.2245 22.9416 64.1813 22.9607 64.1432 22.9879C64.1051 23.015 64.073 23.0497 64.0489 23.0898C64.0247 23.1299 64.0091 23.1744 64.0028 23.2208C63.9958 23.2669 63.9985 23.314 64.0107 23.3591C64.0229 23.4041 64.0443 23.4461 64.0736 23.4824C64.1025 23.519 64.1386 23.5493 64.1796 23.5715C64.2206 23.5938 64.2657 23.6074 64.3121 23.6117V23.6124Z" fill="#501200"/>
<path d="M65.2275 25.3265C65.0043 25.3827 64.9251 26.0106 65.5191 25.8913C65.8946 25.7374 66.6101 25.2534 66.6101 24.918C66.6078 24.8536 66.5868 24.7913 66.5498 24.7386C66.5128 24.6859 66.4613 24.645 66.4016 24.621C66.3421 24.5967 66.2769 24.59 66.2138 24.6017C66.1506 24.6134 66.0921 24.6431 66.0454 24.6872C65.8171 24.9516 65.5392 25.1688 65.2275 25.3265Z" fill="#501200"/>
<path d="M68.6943 21.6065C68.5896 22.025 69.2198 22.7775 69.2198 24.9373C69.2204 25.0007 69.2396 25.0625 69.275 25.115C69.3105 25.1675 69.3606 25.2085 69.4192 25.2328C69.4777 25.257 69.5421 25.2636 69.6043 25.2515C69.6666 25.2395 69.7239 25.2094 69.7691 25.165C69.8293 25.1045 69.863 25.0226 69.863 24.9373C69.8642 23.857 69.6864 22.784 69.3367 21.7619C70.26 21.0779 69.4137 18.6996 68.2264 17.7694C67.3178 16.9361 66.7346 17.6094 67.1285 18.2549C67.9092 19.2319 68.446 20.3808 68.6943 21.6065Z" fill="#501200"/>
<path d="M49.6241 62.0055C49.3079 61.7185 48.8408 62.1856 49.1571 62.4726C53.4538 66.3231 57.4216 70.5256 61.0191 75.0363C61.2923 75.3095 61.7593 74.8617 61.4869 74.5301C57.8536 70.0625 53.8881 65.8757 49.6241 62.0055Z" fill="white"/>
<path d="M63.3767 74.9002C66.7691 69.2065 71.8542 65.1571 76.7584 61.3038C77.0862 61.0469 76.6245 60.5675 76.2906 60.8368C71.314 64.8439 65.9758 68.9057 62.8112 74.5493C62.7647 74.6243 62.7499 74.7147 62.77 74.8007C62.7901 74.8866 62.8436 74.961 62.9186 75.0075C62.9936 75.054 63.084 75.0689 63.1699 75.0487C63.2558 75.0286 63.3302 74.9752 63.3767 74.9002Z" fill="white"/>
<path d="M57.1434 52.1878C58.7722 52.3047 61.5444 51.2968 61.0589 50.6489C60.6696 49.968 60.0071 51.7438 57.1434 51.5645C56.7063 51.5053 56.7256 52.1878 57.1434 52.1878Z" fill="white"/>
<path d="M64.1364 50.7273C66.7178 52.8094 66.8162 51.1559 66.1038 51.1559C65.6298 51.1559 64.4572 50.0164 64.1364 50.3372C63.9517 50.428 64.0587 50.7273 64.1364 50.7273Z" fill="white"/>
<path d="M11.544 24.6845C10.9869 26.3949 10.1414 28.7247 7.99853 28.8139C7.20377 28.8031 6.42883 28.5643 5.76592 28.1257C5.103 27.6872 4.58001 27.0675 4.25918 26.3403C5.26437 24.8545 5.90494 23.1527 6.12885 21.3729C6.24119 20.4057 6.36968 18.6453 5.48639 18.2368C2.91808 17.0503 2.5403 23.5888 3.55747 26.301C2.66007 27.5212 1.50198 28.5261 0.167423 29.2425C-0.208051 29.4471 0.112025 30.0081 0.499041 29.8072C1.80833 29.1036 2.95599 28.1339 3.86831 26.9604C5.16016 29.3825 8.47865 30.4682 10.4722 28.3453C11.3089 27.3356 11.9079 26.1508 12.2249 24.8784C12.2393 24.792 12.2214 24.7033 12.1746 24.6293C12.1278 24.5553 12.0553 24.5011 11.9711 24.4772C11.8869 24.4532 11.7968 24.4611 11.718 24.4993C11.6392 24.5375 11.5773 24.6035 11.544 24.6845ZM3.9668 19.8925C4.06374 19.4055 4.27841 18.8007 4.8824 18.7238C5.50563 18.6469 5.50717 19.4055 5.52486 19.8148C5.60203 21.8407 5.05111 23.8409 3.94756 25.5416C3.52804 23.6812 3.53462 21.75 3.9668 19.8925Z" fill="#FFB949"/>
<path d="M114.099 41.6116C111.822 39.742 110.362 37.0591 110.028 34.1313C112.249 31.9108 113.916 25.3677 111.139 25.9309C109.184 26.3272 109.03 31.7692 109.288 33.8782C107.211 35.7556 105.139 33.6558 104.399 30.6059C104.305 30.2158 104.245 29.788 104.168 29.3979C107.261 27.8521 107.693 20.8512 106.37 20.3796C104.369 19.6671 103.134 25.9078 103.446 29.0086C99.8474 30.3166 98.7703 23.0594 100.427 19.2108C100.593 18.8261 100.031 18.5068 99.8621 18.88C97.7031 23.625 99.4989 30.9082 103.485 29.6903C104.366 35.1031 107.555 36.0926 109.348 34.6576C109.764 37.5762 111.25 40.236 113.517 42.1209C113.982 42.3518 114.411 41.884 114.099 41.6116ZM105.957 21.042C106.866 20.5965 106.635 27.1204 104.145 28.7162C103.914 25.9347 104.885 21.5668 105.957 21.042ZM111.606 26.6126C112.52 26.9004 111.573 31.3145 109.892 33.2357C109.718 31.6738 110.169 26.161 111.606 26.6126Z" fill="#FFB949"/>
<path d="M51.9431 4.69886C54.2193 6.38809 56.0563 8.59935 57.2998 11.1466C57.479 11.5151 58.0584 11.205 57.8645 10.8157C56.5403 8.18778 54.6271 5.90116 52.2739 4.13411C51.8677 3.82635 51.6369 4.69886 51.9431 4.69886Z" fill="#FF7449"/>
<path d="M62.0131 1.15486C62.0087 1.07239 61.973 0.9947 61.9132 0.93775C61.8534 0.880801 61.774 0.848913 61.6915 0.848633C61.6089 0.848736 61.5295 0.880588 61.4698 0.937593C61.4101 0.994598 61.3746 1.07239 61.3706 1.15486C61.3762 4.40859 61.6759 7.65515 62.2662 10.8549C62.3639 11.2642 62.9871 11.0857 62.9094 10.6795C62.3246 7.53803 62.0246 4.35023 62.0131 1.15486Z" fill="#FF7449"/>
<path d="M68.8115 1.87435C68.97 1.48964 68.343 1.32883 68.1883 1.69969C66.979 4.65549 66.2492 7.78533 66.0263 10.9711C65.9916 11.4005 66.6295 11.3997 66.6687 10.9904C66.9121 7.85993 67.6348 4.78542 68.8115 1.87435Z" fill="#FF7449"/>
</svg>
