<svg width="154" height="154" viewBox="0 0 154 154" fill="none" xmlns="http://www.w3.org/2000/svg">
<path d="M66.6564 75.2932C61.3603 76.5051 53.5094 79.2593 48.3728 82.463C45.9511 83.8444 43.8758 85.7591 42.3044 88.0621C38.0054 95.1384 28.8974 116.73 25.7842 124.321C29.1807 127.217 33.3642 129.033 37.7991 129.536C40.6493 121.761 44.3443 114.322 48.8177 107.353C54.7887 98.194 63.0416 89.2325 73.2165 87.2015C73.2165 87.2015 62.4724 95.5694 61.1854 108.013C60.68 112.9 59.9582 118.515 59.268 123.533C59.2434 123.711 57.2109 137.601 57.2078 137.62C56.9777 139.104 70.7836 138.992 71.944 137.189C72.2922 136.653 72.1166 137.189 74.9353 122.392C76.0129 116.73 77.1787 110.846 80.18 105.839C83.4082 100.454 89.117 97.2951 93.0087 92.4569C94.2061 91.1467 95.2163 89.677 96.0107 88.0897C96.51 86.3463 97.0423 84.6076 97.6881 82.9117C98.4827 80.8263 99.1868 79.2816 101.094 77.8427C81.5115 82.1785 66.6564 75.2932 66.6564 75.2932Z" fill="#A76C6C"/>
<path d="M67.1208 138.473C67.0311 139.763 67.2283 141.058 67.6983 142.263C69.2476 140.689 70.6671 138.992 71.9429 137.189C71.531 137.828 69.5253 138.255 67.1208 138.473ZM50.6266 143.255C48.6071 145.189 46.9888 147.069 47.3286 147.864C47.7619 148.882 51.3936 150.313 56.409 149.096C56.0238 148.356 55.5913 147.641 55.1143 146.956C53.9553 145.362 52.4113 144.089 50.6266 143.255ZM20.2538 120.794C18.1062 119.77 15.8321 119.171 14.4139 120.197C12.7787 121.379 16.2271 125.377 20.5759 129.085C22.0416 125.182 21.6443 123.656 20.2538 120.794ZM31.2056 131.303C29.384 131.538 27.5831 132.07 26.5891 133.618C29.1202 135.271 31.31 136.35 32.3285 136.225C34.0328 136.019 35.4893 133.924 36.5401 131.804C34.8367 131.172 32.997 130.999 31.2056 131.303ZM102.245 31.2618L102.234 30.0453C102.095 30.1411 101.932 30.1983 101.763 30.2111C101.594 30.2239 101.424 30.1919 101.272 30.1182C101.095 30.0394 100.935 29.9263 100.802 29.7856C100.669 29.6448 100.565 29.4791 100.497 29.2979C100.428 29.1168 100.396 28.9239 100.402 28.7303C100.408 28.5367 100.453 28.3463 100.533 28.17C100.656 27.9399 100.833 27.743 101.048 27.5961C101.264 27.4491 101.511 27.3566 101.77 27.3263C103.11 27.321 103.65 28.6939 103.66 30.0238V30.3981C104.041 30.163 104.352 29.8306 104.561 29.4354C104.77 29.0401 104.87 28.5961 104.851 28.1493C104.526 25.8107 101.52 25.8315 100.058 27.2964C100.436 26.919 99.8491 24.6595 99.7517 24.2284C99.464 22.7741 98.7876 21.425 97.7943 20.3245C96.5374 20.1415 95.2725 20.0183 94.0038 19.9555C91.7711 19.8512 90.0416 21.1367 88.3503 22.426C87.9945 22.6975 85.9665 24.5383 85.5286 23.7031C85.4252 23.3979 85.3921 23.0733 85.432 22.7536C85.4718 22.4339 85.5835 22.1273 85.7587 21.8569C84.3827 23.3364 84.3236 24.4885 84.1296 26.4849C83.503 32.9231 85.0546 39.2768 91.5326 40.0722C91.3424 41.735 91.2825 44.2799 92.6762 44.4118C94.7532 44.6089 96.2304 43.7215 97.7076 42.0487C98.7991 40.8116 99.0775 37.9637 99.1281 36.3178C100.002 34.9713 100.566 33.4473 100.779 31.8562C101.281 31.6926 101.771 31.494 102.245 31.2618ZM95.794 35.0008C95.5253 35.4818 95.1215 35.8734 94.6325 36.1271C94.1434 36.3809 93.5907 36.4855 93.0428 36.4282C91.8944 36.2307 90.8561 35.6249 90.119 34.7224C89.6636 34.236 89.2648 33.6995 88.9302 33.1232C88.9101 33.0889 88.898 33.0503 88.8951 33.0106C88.8921 32.9708 88.8983 32.931 88.9131 32.894C88.9278 32.857 88.9509 32.8238 88.9805 32.7971C89.01 32.7704 89.0453 32.7508 89.0836 32.7397C91.5159 32.1769 93.8287 31.1855 95.9136 29.8121C95.9482 29.7926 95.9866 29.7811 96.0262 29.7784C96.0657 29.7758 96.1054 29.782 96.1422 29.7968C96.179 29.8115 96.2121 29.8343 96.2389 29.8635C96.2657 29.8927 96.2856 29.9276 96.2971 29.9655C96.4012 30.578 96.4525 31.1982 96.4505 31.8194C96.5092 32.9187 96.283 34.0145 95.794 35.0008Z" fill="#FF8684"/>
<path d="M111.626 33.5039C111.497 26.4737 109.893 27.0091 108.53 33.0698C108.371 33.7778 108.279 34.2794 108.279 34.2794C108.279 34.2794 104.024 32.8129 101.52 35.6738C100.83 36.4615 100.764 36.9178 101.027 37.1663C101.717 37.8206 104.703 37.0329 104.703 37.0329C104.703 37.0329 101.494 39.0708 101.15 41.216C100.807 43.3613 105.311 40.1423 105.311 40.1423C104.833 41.4165 104.459 42.7272 104.191 44.0616C104.923 44.3146 105.685 44.4706 106.457 44.5256C108.084 44.6496 109.7 44.1804 111.007 43.2049C111.05 43.1741 111.103 43.1609 111.155 43.168C111.588 35.9292 111.663 35.4966 111.626 33.5039ZM79.6723 43.2187C78.814 43.076 77.6336 45.1499 77.6336 45.1499C77.6336 45.1499 78.2066 42.2891 77.4549 41.216C76.7033 40.143 73.0209 39.3929 70.3035 39.8577C67.8783 40.2726 66.2515 46.7215 65.9316 48.1036C66.0559 48.132 65.9953 48.1596 66.5836 48.7126C68.7534 50.7474 71.7385 52.2024 74.7705 51.7261C74.8181 51.7179 74.8671 51.7215 74.913 51.7368C74.9589 51.752 75.0003 51.7784 75.0335 51.8136C78.7918 48.5784 80.1609 46.4623 80.4845 45.1407C80.8082 43.8192 80.0964 43.2892 79.6723 43.2187Z" fill="#FF8684"/>
<path d="M67.1199 138.473C62.7481 138.87 57.0555 138.577 57.2058 137.62C57.2058 137.62 53.5066 140.495 50.6258 143.255C52.4104 144.089 53.9544 145.363 55.1135 146.956C55.5903 147.64 56.0227 148.355 56.4081 149.095C59.7392 148.286 63.6792 146.308 67.6975 142.262C67.2277 141.057 67.0305 139.763 67.1199 138.473ZM25.7837 124.319C24.0651 122.958 22.2119 121.778 20.2529 120.794C21.6542 123.658 22.0454 125.166 20.5751 129.086C22.485 130.718 24.4932 132.231 26.5883 133.618C26.9385 133.085 27.4024 132.638 27.9466 132.306C29.5795 131.3 32.5777 131.014 34.4116 131.253C35.1417 131.349 35.8575 131.534 36.5431 131.803C36.9122 131.054 37.2474 130.288 37.5478 129.508C30.8067 128.842 25.7837 124.319 25.7837 124.319Z" fill="#E59E70"/>
<path d="M111.389 39.264L111.159 43.1695C111.213 43.1753 111.264 43.1967 111.306 43.2312C111.349 43.2656 111.38 43.3116 111.396 43.3636C111.857 45.3117 114.944 58.1558 115.84 59.9643C115.989 60.2658 115.537 60.5319 115.386 60.229C114.423 58.2854 111.475 45.9575 110.978 43.8713C109.415 44.9082 107.51 45.2999 105.664 44.9643C105.242 44.904 104.825 44.8073 104.42 44.6751C103.817 47.3561 103.471 50.0885 103.388 52.8352C103.215 59.2365 104.754 64.7113 106.042 67.0444C106.205 67.3405 105.751 67.6051 105.588 67.3098C105.371 66.8977 105.177 66.4734 105.009 66.0389C102.861 60.782 101.98 53.007 103.973 44.2564C103.989 44.2064 104.017 44.1617 104.056 44.1273C104.096 44.0928 104.144 44.0701 104.195 44.0615C104.463 42.7271 104.837 41.4165 105.315 40.1422C105.315 40.1422 100.809 43.3636 101.154 41.216C101.499 39.0684 104.707 37.0328 104.707 37.0328C104.707 37.0328 101.722 37.8205 101.031 37.1663C100.38 37.2604 99.7238 37.378 99.0617 37.5191C98.9336 38.9979 98.5969 41.0473 97.711 42.0505C96.2338 43.7241 94.7565 44.6107 92.6795 44.4136C91.2859 44.2817 91.3457 41.736 91.5359 40.074C91.3866 40.0556 91.2376 40.0341 91.0888 40.0095C87.4437 41.4797 83.9014 43.1929 80.4859 45.1376C80.1622 46.4615 78.7916 48.5784 75.0349 51.8105C75.0716 51.8501 75.0947 51.9004 75.1008 51.9541C75.1069 52.0078 75.0956 52.062 75.0686 52.1088C74.8907 52.4547 70.1982 61.8941 70.1307 62.0582C70.005 62.365 69.4972 62.2316 69.6253 61.9186C70.2473 60.3931 73.6589 53.7118 74.3853 52.2944C71.8548 52.4616 69.355 51.6641 67.3888 50.0625C66.7707 49.6174 66.1992 49.1109 65.683 48.5507C65.6627 48.5279 65.6462 48.502 65.6339 48.474C63.1519 51.4316 59.6237 56.5021 58.214 60.1147C57.8631 61.0017 57.5873 61.9166 57.3895 62.8498C57.0359 64.5686 57.1026 66.7614 58.4103 68.0814C61.5972 71.3012 66.2199 67.4954 68.474 65.0556L79.4221 53.1956C79.4221 53.1956 78.2417 64.8877 66.6563 75.2934C66.6563 75.2934 81.5114 82.1787 101.094 77.8421C101.424 77.5928 101.77 77.3665 102.131 77.1649L106.257 67.5721C107.217 69.0154 108.569 70.1555 110.153 70.8593C111.738 71.5631 113.49 71.8015 115.205 71.5467L116.334 71.0865C121.029 67.6159 119.306 46.2053 111.389 39.264Z" fill="#FEE992"/>
<path d="M50.1361 46.7589L48.639 56.0917L44.6115 57.3787L38.2286 52.0511C37.1042 57.9869 38.9534 63.3635 40.2696 66.2267C41.2613 65.5602 42.5199 65.3638 44.2318 66.1078C48.3449 63.8319 52.6635 61.9493 57.1303 60.485C55.7087 55.5003 53.3334 50.8388 50.1361 46.7589ZM46.7614 63.0061C46.581 63.3272 46.3183 63.5943 46.0002 63.7801C45.6822 63.9658 45.3204 64.0633 44.9521 64.0627C44.5838 64.062 44.2224 63.9631 43.905 63.7762C43.5877 63.5893 43.3259 63.3212 43.1467 62.9994C42.9675 62.6777 42.8774 62.314 42.8856 61.9458C42.8937 61.5776 43 61.2182 43.1933 60.9048C43.3866 60.5913 43.66 60.335 43.9853 60.1624C44.3107 59.9898 44.6761 59.9071 45.0441 59.9228C45.396 59.9418 45.7373 60.0498 46.0361 60.2367C46.3349 60.4235 46.5815 60.683 46.7527 60.991C46.9239 61.299 47.0143 61.6454 47.0153 61.9978C47.0162 62.3502 46.9278 62.6971 46.7583 63.0061H46.7614ZM53.7947 59.8254C53.6143 60.1465 53.3516 60.4136 53.0335 60.5994C52.7155 60.7851 52.3537 60.8826 51.9854 60.8819C51.6171 60.8813 51.2557 60.7824 50.9383 60.5955C50.621 60.4086 50.3592 60.1405 50.18 59.8187C50.0008 59.497 49.9107 59.1333 49.9189 58.7651C49.927 58.3969 50.0333 58.0375 50.2266 57.724C50.4199 57.4106 50.6933 57.1543 51.0186 56.9817C51.344 56.8091 51.7094 56.7264 52.0774 56.7421C52.4295 56.7608 52.771 56.8686 53.0701 57.0553C53.3692 57.2419 53.6161 57.5014 53.7876 57.8094C53.9592 58.1174 54.0498 58.4639 54.0511 58.8165C54.0523 59.1691 53.9641 59.5162 53.7947 59.8254Z" fill="#FFD35C"/>
<path d="M44.2697 66.6991C43.3397 66.1776 42.2417 66.0431 41.2133 66.3248C39.0066 67.111 37.6383 70.8938 39.4108 74.0415C39.7614 74.6651 40.2699 75.4896 40.9793 75.5755C41.7655 75.676 41.8606 74.5907 41.8399 73.7953C41.8201 72.9991 41.6409 72.2148 41.313 71.489C41.1764 71.1822 41.6274 70.916 41.7663 71.2244C41.9639 71.6774 42.2388 72.0926 42.5785 72.4516C42.8342 72.7834 43.1987 73.0145 43.6078 73.1043C44.1094 73.1411 44.0258 72.3112 43.9982 71.9852C43.9503 71.4773 43.7829 70.9879 43.5096 70.5571C43.3562 70.3048 43.7236 70.0202 43.9223 70.2388C44.2076 70.5817 44.5639 70.8586 44.9665 71.0506C45.3692 71.2426 45.8087 71.3451 46.2547 71.3509C47.781 71.2466 47.1022 68.0797 44.2697 66.6991Z" fill="#FFD35C"/>
<path d="M72.5198 79.3885C72.4247 79.1982 70.3147 75.0818 70.1091 74.6807C69.9771 74.3563 69.7709 74.0673 69.507 73.837C69.2514 73.6717 68.9633 73.5632 68.6622 73.5186C68.3611 73.474 68.0539 73.4944 67.7614 73.5785L53.3841 75.4561C52.7437 75.5397 52.015 75.6417 51.7612 76.3527C51.6893 76.6936 51.7012 77.0467 51.7957 77.382L52.1531 77.3306C52.3523 77.2887 52.56 77.3254 52.7328 77.433C52.9056 77.5407 53.0301 77.7109 53.0804 77.9082L53.5782 80.8795C53.6026 81.1031 53.5389 81.3274 53.4005 81.5047C53.2622 81.6821 53.0601 81.7984 52.8372 81.829L52.4323 81.9057C52.4791 82.2371 52.5251 82.5715 52.5726 82.9028C52.5948 83.1594 52.6829 83.4059 52.8284 83.6184C52.974 83.8309 53.172 84.0021 53.4033 84.1154C53.905 84.2937 54.4524 84.2961 54.9557 84.1223C54.9557 84.1223 71.887 80.7322 72.0021 80.7069C72.1401 80.6789 72.2689 80.6168 72.3767 80.5262C72.4845 80.4357 72.568 80.3196 72.6195 80.1885C72.6709 80.0574 72.6888 79.9155 72.6714 79.7758C72.654 79.6361 72.6018 79.5029 72.5198 79.3885Z" fill="#B26EE6"/>
<path d="M101.178 26.5603C101.619 25.178 101.908 23.752 102.04 22.3073C101.942 21.0763 98.7422 12.7061 89.6825 14.3804C89.6825 14.3804 85.2508 14.5775 83.5772 18.0727C81.9036 21.5679 78.8986 21.2243 78.1116 21.9131C77.3247 22.6018 78.6531 24.3751 82.1491 23.7837C82.1491 23.7837 80.3175 28.9441 84.0359 30.1344C83.9776 28.9179 84.0089 27.6986 84.1294 26.4866C84.325 24.4802 84.3887 23.3289 85.7585 21.8586C85.5834 22.129 85.4717 22.4356 85.4319 22.7553C85.392 23.075 85.425 23.3996 85.5284 23.7047C85.9664 24.54 87.9943 22.6992 88.3502 22.4277C90.0414 21.1384 91.771 19.8529 94.0037 19.9572C95.2692 20.0163 96.5348 20.1436 97.7942 20.3261C98.7876 21.4266 99.464 22.7758 99.7515 24.2301C99.8466 24.6589 100.433 26.9146 100.058 27.2981C100.38 26.9811 100.76 26.7304 101.178 26.5603ZM96.3031 29.9672C96.2916 29.9293 96.2717 29.8944 96.2449 29.8652C96.2181 29.836 96.185 29.8132 96.1482 29.7985C96.1114 29.7837 96.0717 29.7775 96.0322 29.7801C95.9926 29.7828 95.9541 29.7943 95.9196 29.8138C93.8335 31.1851 91.5212 32.1763 89.0896 32.7414C89.0512 32.7523 89.0158 32.7719 88.9862 32.7986C88.9565 32.8253 88.9334 32.8584 88.9186 32.8955C88.9038 32.9325 88.8977 32.9725 88.9007 33.0123C88.9038 33.052 88.9159 33.0906 88.9362 33.1249C89.2708 33.7012 89.6696 34.2377 90.125 34.7241C90.8621 35.6266 91.9004 36.2324 93.0488 36.4299C93.5967 36.4872 94.1494 36.3826 94.6385 36.1288C95.1275 35.8751 95.5313 35.4835 95.8 35.0025C96.5808 33.6212 96.5555 31.3701 96.3031 29.9672ZM89.5674 33.1564C91.7861 32.5942 93.9052 31.6945 95.8506 30.4888C96.6145 37.0021 92.2312 37.3641 89.5674 33.1564ZM115.836 59.9643C114.949 58.1756 111.848 45.2864 111.393 43.3635C111.381 43.3258 111.361 43.2912 111.334 43.2623C111.307 43.2333 111.274 43.2107 111.238 43.196C111.201 43.1813 111.161 43.175 111.122 43.1774C111.082 43.1798 111.044 43.191 111.009 43.2101C109.702 44.1856 108.086 44.6548 106.46 44.5309C105.719 44.4965 104.988 44.3434 104.295 44.0776C104.228 44.0599 104.157 44.0692 104.096 44.1036C104.036 44.1381 103.991 44.1948 103.972 44.2617C101.984 52.9885 102.852 60.7711 105.008 66.0442C105.176 66.4787 105.369 66.903 105.587 67.3151C105.75 67.6104 106.2 67.3458 106.041 67.0497C104.729 64.6721 103.214 59.218 103.386 52.8405C103.469 50.092 103.813 47.3578 104.416 44.6751C104.822 44.8072 105.238 44.9039 105.66 44.9642C107.507 45.3002 109.411 44.9085 110.975 43.8713C111.477 45.9835 114.42 58.2907 115.383 60.2289C115.533 60.5318 115.986 60.2657 115.836 59.9643ZM74.7683 51.726C71.7364 52.2038 68.7513 50.7473 66.5814 48.7125C66.3977 48.5441 66.2221 48.367 66.0553 48.1817C65.8252 47.9263 65.4639 48.3068 65.6841 48.5537C66.1988 49.1136 66.7688 49.6201 67.3853 50.0655C69.3516 51.6668 71.8513 52.4642 74.3817 52.2974C73.6316 53.7601 70.2477 60.3884 69.6218 61.9216C69.4937 62.2346 70.0053 62.3703 70.1272 62.0612C70.4402 61.2942 75.0253 52.1885 75.0651 52.1118C75.0891 52.0665 75.0995 52.0152 75.0951 51.9641C75.0908 51.913 75.0718 51.8643 75.0406 51.8236C75.0093 51.783 74.967 51.7522 74.9188 51.7349C74.8705 51.7176 74.8183 51.7145 74.7683 51.726ZM41.3559 65.7313C38.7742 66.3848 37.4956 69.9283 38.3393 72.8351C38.6791 74.0094 39.6585 75.9031 40.875 76.0903C41.8207 76.2368 42.2809 75.3486 42.3529 74.4029C42.3716 74.1392 42.3739 73.8746 42.3598 73.6106C42.3146 72.7439 42.1643 72.7922 42.4174 73.0208C42.5955 73.2252 42.8195 73.3846 43.0711 73.4858C43.3226 73.5869 43.5946 73.6271 43.8647 73.6029C44.6785 73.4112 44.6133 72.0942 44.4123 71.3295C44.722 71.5508 45.0725 71.7085 45.4434 71.7937C45.8144 71.8788 46.1985 71.8898 46.5737 71.8258C47.5946 71.5804 47.7533 70.4 47.4289 69.4213C46.4694 66.7146 43.3324 65.2327 41.3559 65.7313ZM46.2554 71.3487C45.8093 71.3431 45.3698 71.2407 44.9671 71.0487C44.5644 70.8567 44.2082 70.5796 43.923 70.2366C43.7243 70.0149 43.3539 70.3025 43.5103 70.5549C43.7836 70.9857 43.951 71.4751 43.9989 71.983C44.0273 72.3098 44.1101 73.1389 43.6085 73.1021C43.1994 73.0123 42.8349 72.7812 42.5792 72.4494C42.2395 72.0904 41.9646 71.6752 41.767 71.2222C41.6281 70.9154 41.1771 71.1815 41.3137 71.4868C41.7334 72.4221 41.9084 73.4488 41.8222 74.4704C41.7647 75.0548 41.5645 75.6508 40.9785 75.5733C40.2683 75.4851 39.7605 74.6598 39.41 74.0393C38.8319 73.034 38.5515 71.8851 38.6013 70.7265C38.6511 69.5679 39.0292 68.4473 39.6915 67.4954C40.1236 66.8809 40.7587 66.4385 41.4848 66.2462C42.211 66.0538 42.9818 66.1238 43.6614 66.4438C47.027 67.6549 47.8822 71.2398 46.2554 71.3503V71.3487ZM57.6851 48.872C57.9206 48.6289 57.5494 48.2584 57.3139 48.5008C56.6942 49.1389 56.1338 49.8321 55.6395 50.5717C55.0962 51.26 54.7396 52.0768 54.6041 52.9432C54.5796 53.2807 55.1049 53.2792 55.1295 52.9432C55.2758 52.147 55.6217 51.401 56.135 50.7749C56.5949 50.0964 57.1136 49.4596 57.6851 48.872ZM58.6592 50.4191C58.91 50.189 58.5372 49.8208 58.2872 50.0478C57.3483 50.9002 56.5865 51.9292 56.0453 53.0759C56.0121 53.1365 56.0034 53.2074 56.021 53.2742C56.0385 53.3409 56.081 53.3984 56.1396 53.4349C56.1999 53.4694 56.2713 53.4788 56.3384 53.4612C56.4056 53.4435 56.4631 53.4002 56.4986 53.3405C57.0187 52.2336 57.7531 51.2406 58.6592 50.4191ZM59.4898 51.3019C58.6467 51.9334 57.8536 52.6291 57.1175 53.3827C56.8813 53.6251 57.2518 53.9963 57.4888 53.7547C58.1911 53.0305 58.9489 52.3623 59.7552 51.7559C59.8138 51.7192 59.8561 51.6616 59.8736 51.5947C59.8912 51.5279 59.8826 51.4569 59.8496 51.3962C59.8138 51.3366 59.7561 51.2934 59.6889 51.2758C59.6217 51.2582 59.5502 51.2675 59.4898 51.3019ZM37.5148 61.2827C35.4439 60.8755 33.4934 61.7429 31.6603 62.5989C31.3535 62.7423 31.6204 63.1956 31.9249 63.0529C33.6123 62.2614 35.4623 61.4123 37.3752 61.7889C37.7057 61.8526 37.8469 61.3464 37.5148 61.2827ZM37.0883 62.5007C35.34 62.8052 33.7446 63.6879 32.5577 65.0072C32.3322 65.258 32.7027 65.6308 32.9289 65.3785C34.0535 64.1259 35.5685 63.2904 37.2279 63.0077C37.56 62.9502 37.4189 62.4447 37.0883 62.5007ZM37.2279 63.7793C35.8857 64.5026 34.7505 65.5568 33.9298 66.8419C33.8951 66.9021 33.8856 66.9735 33.9032 67.0407C33.9209 67.108 33.9644 67.1655 34.0242 67.2008C34.0847 67.2345 34.1558 67.2435 34.2228 67.2261C34.2898 67.2087 34.3475 67.1661 34.3839 67.1073C35.1566 65.8996 36.2258 64.9099 37.4895 64.2326C37.5491 64.1971 37.5925 64.1396 37.6101 64.0724C37.6278 64.0053 37.6183 63.9339 37.5838 63.8736C37.5477 63.8155 37.4907 63.7734 37.4246 63.7558C37.3584 63.7383 37.2881 63.7467 37.2279 63.7793ZM45.1141 64.0577C45.4691 64.0278 45.8104 63.9073 46.1053 63.7076C46.4003 63.5079 46.639 63.2358 46.7986 62.9174C46.9582 62.599 47.0334 62.2449 47.0168 61.8891C47.0003 61.5333 46.8926 61.1877 46.7041 60.8854C46.508 60.5756 46.2331 60.3233 45.9075 60.1545C45.5819 59.9857 45.2174 59.9064 44.8511 59.9247C44.4848 59.943 44.13 60.0582 43.8228 60.2585C43.5157 60.4589 43.2673 60.7372 43.1029 61.0651C42.9386 61.3929 42.8643 61.7585 42.8876 62.1245C42.9109 62.4905 43.0309 62.8437 43.2355 63.1481C43.44 63.4525 43.7218 63.6971 44.0518 63.8569C44.3819 64.0167 44.7485 64.086 45.1141 64.0577ZM44.6417 60.4774C44.5617 60.74 44.5351 61.016 44.5637 61.2891C44.5922 61.5622 44.6752 61.8267 44.8078 62.0671C44.9404 62.3076 45.1199 62.5189 45.3356 62.6888C45.5513 62.8587 45.7988 62.9835 46.0637 63.056C45.8964 63.2321 45.69 63.3663 45.4612 63.4477C45.2323 63.5291 44.9875 63.5554 44.7466 63.5245C44.5057 63.4935 44.2755 63.4062 44.0747 63.2696C43.8739 63.133 43.7081 62.951 43.5908 62.7383C43.4735 62.5256 43.4081 62.2882 43.3997 62.0455C43.3913 61.8028 43.4403 61.5615 43.5427 61.3412C43.6451 61.121 43.7979 60.928 43.9889 60.7779C44.1798 60.6278 44.4035 60.5248 44.6417 60.4774ZM52.0746 56.7452C51.6118 56.7254 51.1557 56.8614 50.7793 57.1313C50.4029 57.4012 50.1278 57.7896 49.9981 58.2343C49.8684 58.6789 49.8915 59.1543 50.0637 59.5843C50.236 60.0143 50.5474 60.3741 50.9482 60.6062C51.3491 60.8384 51.8162 60.9294 52.2749 60.8648C52.7336 60.8002 53.1574 60.5837 53.4785 60.2499C53.7996 59.9161 53.9996 59.4842 54.0464 59.0234C54.0932 58.5626 53.9841 58.0993 53.7366 57.7078C53.5554 57.4274 53.3102 57.194 53.0213 57.0267C52.7324 56.8593 52.408 56.7629 52.0746 56.7452ZM51.0338 60.0379C50.8016 59.8553 50.6264 59.6102 50.5287 59.3315C50.4311 59.0527 50.4151 58.7519 50.4826 58.4643C50.5501 58.1768 50.6984 57.9145 50.9099 57.7083C51.1214 57.5022 51.3873 57.3607 51.6765 57.3005C51.5966 57.5631 51.5702 57.839 51.5988 58.112C51.6274 58.385 51.7104 58.6495 51.843 58.8898C51.9756 59.1301 52.155 59.3414 52.3706 59.5112C52.5863 59.681 52.8338 59.8059 53.0985 59.8784C52.8339 60.1538 52.4773 60.3223 52.0965 60.3517C51.7158 60.3811 51.3375 60.2694 51.0338 60.0379ZM70.4939 74.2802C70.299 73.8583 69.9832 73.5038 69.5865 73.2616C69.191 73.0288 68.73 72.932 68.2742 72.9862C67.7626 73.0507 53.2258 74.9497 52.8753 74.9973C52.4572 75.0279 52.0621 75.2002 51.7553 75.4858C51.4484 75.7715 51.2483 76.1533 51.1879 76.5681C51.1876 76.8457 51.2161 77.1225 51.2731 77.3941C51.5423 79.3017 51.7846 81.2145 52.0792 83.1174C52.1304 83.3929 52.2377 83.655 52.3943 83.8874C52.5509 84.1198 52.7535 84.3176 52.9896 84.4686C53.2256 84.6195 53.4902 84.7205 53.7669 84.7651C54.0435 84.8098 54.3264 84.7972 54.598 84.7281C55.0497 84.6392 70.5598 81.5298 71.3429 81.3733C71.7123 81.3257 72.076 81.2419 72.429 81.1233C72.6031 81.0348 72.7567 80.9108 72.8801 80.7594C73.0034 80.608 73.0937 80.4325 73.1451 80.2441C73.1966 80.0557 73.208 79.8586 73.1787 79.6655C73.1494 79.4724 73.0801 79.2876 72.9751 79.1229L70.4939 74.2802ZM72.0025 80.706C71.9258 80.7229 53.8394 84.3454 54.9562 84.1214C54.4529 84.2952 53.9055 84.2928 53.4038 84.1145C53.1726 84.0011 52.9746 83.8298 52.8291 83.6174C52.6836 83.4049 52.5954 83.1585 52.5731 82.9019C52.5256 82.5706 52.4328 81.9048 52.4328 81.9048L52.8377 81.8281C53.0605 81.7973 53.2624 81.6809 53.4008 81.5036C53.5391 81.3264 53.6029 81.1021 53.5786 80.8786L53.0809 77.9073C53.0306 77.71 52.9061 77.5398 52.7333 77.4321C52.5605 77.3245 52.3528 77.2878 52.1536 77.3297L51.7961 77.3811C51.7024 77.0457 51.6906 76.6927 51.7616 76.3518C52.0155 75.6416 52.7441 75.5388 53.3846 75.4552L67.7618 73.5784C68.0544 73.4943 68.3616 73.4739 68.6627 73.5185C68.9638 73.563 69.2519 73.6716 69.5075 73.8368C69.891 74.1283 69.776 74.0432 72.5203 79.3883C72.7918 79.9482 72.6583 80.5611 72.0025 80.706Z" fill="black"/>
<path d="M44.7443 78.698C45.8948 75.8088 44.0041 73.3651 42.3582 73.6152C42.3681 73.7855 42.3697 73.9573 42.3651 74.1283C43.3867 73.8645 45.035 75.5265 44.426 77.9702C44.3134 78.5266 44.0478 79.0406 43.659 79.4543C42.8092 80.2719 41.0919 79.6844 41.0106 77.2515C40.9968 76.8677 41.0243 76.4835 41.0926 76.1056C40.9166 76.109 40.7416 76.0783 40.5772 76.0151C40.5183 76.3443 40.4865 76.6778 40.4821 77.0122C40.4507 79.8286 42.3704 80.7628 43.5854 80.15C44.1329 79.8202 44.5441 79.305 44.7443 78.698ZM102.257 32.3342L102.25 31.8119L101.216 31.7052C100.947 31.8057 100.778 31.8586 100.778 31.8586C100.761 31.968 100.743 32.0771 100.723 32.1861C101.236 32.2345 101.746 32.2813 102.257 32.3342ZM48.8998 120.013C48.8922 119.383 48.8231 109.056 48.8178 107.352C48.6414 107.622 48.467 107.892 48.2947 108.162C48.2985 109.06 48.363 118.917 48.3714 119.82C47.5277 119.513 44.7512 118.499 44.2097 118.293C43.9468 117.756 43.6911 117.215 43.4427 116.67L43.1359 117.266C43.3499 117.726 43.567 118.18 43.7909 118.634C43.807 118.671 43.833 118.703 43.8662 118.727C43.8993 118.75 43.9383 118.764 43.9788 118.766C47.3421 120.051 53.3208 122.166 59.1906 124.063L59.2634 123.531C58.9198 123.421 51.9931 121.118 48.8998 120.013ZM37.2178 98.0255L37.6097 97.191C36.4508 89.9337 36.1294 80.4376 38.6068 73.5968C38.5015 73.3491 38.4111 73.0952 38.3361 72.8367C35.4706 80.0633 35.9239 90.3057 37.2178 98.0255ZM108.648 32.5627C106.978 32.3527 105.307 32.1512 103.635 31.9583C103.64 32.1324 103.625 32.3064 103.589 32.4768C105.238 32.6553 106.885 32.8529 108.53 33.0697C108.566 32.9102 108.606 32.7399 108.648 32.5627ZM139.676 42.7921C139.611 41.9392 139.258 41.1338 138.675 40.508C134.697 36.6232 117.132 33.77 111.613 32.97C111.619 33.1526 111.623 33.3297 111.626 33.5069C118.193 34.471 129.584 36.4606 135.586 39.2087C137.017 39.8622 135.795 39.1627 133.663 39.4856C126.039 40.6422 124.109 53.0552 123.608 60.7497C123.4 63.9519 123.412 67.23 123.471 68.3828C121.443 69.0631 118.548 70.1936 116.338 71.0864C116.273 71.1125 103.102 76.6939 102.977 76.7499C102.886 76.7882 102.44 76.9946 102.155 77.1526C99.5573 78.6213 98.6208 80.4621 97.6874 82.9142C93.6599 93.4833 89.117 119.171 87.8354 131.025C83.2963 130.253 78.3838 129.062 73.8915 127.872L73.791 128.397C80.8865 130.294 90.8428 132.546 98.1998 132.581C98.6105 132.633 99.0271 132.614 99.4315 132.526C99.4438 132.521 132.663 111.975 132.714 111.926C132.887 111.894 132.884 111.74 132.914 111.566C134.009 106.657 138.122 71.4208 138.506 67.6725C139.047 62.3565 140.481 48.0621 139.676 42.7921ZM99.1102 132.048C95.5019 132.063 91.8997 131.749 88.3485 131.11C89.6261 120.374 91.4436 109.709 93.7942 99.1552C94.7759 94.7389 96.958 85.4391 98.9077 81.361C101.132 76.7085 106.78 75.2297 109.967 77.9863C112.855 80.4844 113.158 85.387 112.743 89.1705C111.521 100.273 103.356 121.881 99.1102 132.048ZM135.525 83.6789C135.449 87.0652 135.178 90.5872 134.829 93.9842C134.315 97.8636 132.451 111.147 132.392 111.502C132.024 111.749 99.9385 131.589 99.8373 131.652C103.861 121.852 113.48 96.9839 113.428 86.4155C113.508 83.9997 112.962 81.604 111.842 79.462C111.26 78.3844 110.383 77.4943 109.315 76.8954C108.246 76.2965 107.029 76.0133 105.806 76.0788C106.71 75.6861 117.18 71.2958 118.982 70.5932C119.959 70.2097 123.091 68.9925 125.118 68.4142C126.137 68.1235 129.685 67.3841 131.012 67.7347C135.583 68.9618 135.633 78.9067 135.525 83.6789ZM136.019 84.7442C136.144 81.1225 136.095 76.5911 135.289 73.0745C134.719 70.5955 133.61 67.8996 131.167 67.2323C129.677 66.8281 125.655 67.7193 125.048 67.8896C124.758 67.9709 124.412 68.0744 123.993 68.2087C123.835 63.2134 124.183 58.215 125.032 53.2899C126.525 45.3193 129.921 38.0091 137.711 40.3707C138.883 41.232 139.059 41.8456 139.235 43.4325C140.124 51.4606 137.018 76.7261 136.016 84.7458L136.019 84.7442ZM84.1362 31.3701C84.1155 31.1883 84.0979 31.0065 84.0817 30.8247C80.9489 30.7806 77.8198 31.0582 74.7436 31.6531C73.0653 31.958 71.4861 32.6658 70.1417 33.7155C65.9332 37.1294 64.8494 43.9855 64.8571 49.422C65.0404 49.1919 65.2306 48.9618 65.4193 48.7371C65.5382 43.2078 66.51 36.7658 71.1081 33.6465C72.4355 32.812 73.9234 32.2653 75.4753 32.0419C78.3393 31.5837 81.2358 31.359 84.1362 31.3701ZM44.801 66.3901C49.0044 64.0989 53.416 62.2126 57.9764 60.7566C58.0531 60.541 58.1298 60.3271 58.2142 60.1146C53.369 61.6514 48.686 63.6587 44.2319 66.1079C44.3608 66.1623 44.6085 66.2827 44.801 66.3901ZM46.9103 71.6992C48.0922 74.8316 48.356 79.0984 48.3729 82.4632C48.5463 82.3551 48.7219 82.2492 48.8983 82.1426C48.8661 78.7978 48.557 74.4021 47.3237 71.3134C47.2199 71.4742 47.0778 71.6068 46.9103 71.6992Z" fill="#6DD3A8"/>
<path d="M104.677 90.367C106.704 89.9912 108.685 86.6701 106.896 84.5525C105.29 82.7539 103.011 84.2127 102.168 86.572C101.258 89.1245 103.004 90.6784 104.677 90.367ZM104.122 84.6913C104.289 84.5366 104.487 84.4189 104.703 84.3461C104.919 84.2732 105.148 84.2468 105.375 84.2685C105.602 84.2902 105.821 84.3596 106.02 84.4721C106.218 84.5846 106.39 84.7377 106.525 84.9214C108.38 87.1165 105.155 91.1747 103.099 89.4535C101.743 88.3207 102.705 85.7152 104.122 84.6921V84.6913Z" fill="#6DD3A8"/>
<path d="M86.5509 29.4649C86.304 29.695 86.6752 30.0662 86.9222 29.8361C87.4667 29.3291 88.2621 29.2225 89.2523 29.9174C89.3031 29.9656 89.3703 29.9929 89.4403 29.9939C89.5103 29.9949 89.5782 29.9695 89.6304 29.9228C89.6793 29.8734 89.7067 29.8067 89.7067 29.7372C89.7067 29.6677 89.6793 29.601 89.6304 29.5516C89.2219 29.1529 88.6782 28.9226 88.1076 28.9065C87.537 28.8905 86.9813 29.0898 86.5509 29.4649ZM94.6626 27.5551C94.7788 27.3845 94.9282 27.2391 95.1019 27.1276C95.2756 27.0161 95.47 26.9408 95.6735 26.9062C95.8157 26.8897 95.9593 26.8897 96.1015 26.9062C96.1345 26.9169 96.1693 26.921 96.2038 26.9182C96.2384 26.9154 96.2721 26.9059 96.3029 26.8901C96.3338 26.8744 96.3613 26.8527 96.3838 26.8263C96.4063 26.7999 96.4233 26.7693 96.434 26.7363C96.4447 26.7033 96.4488 26.6686 96.446 26.634C96.4432 26.5994 96.4337 26.5658 96.4179 26.5349C96.4021 26.504 96.3804 26.4766 96.3541 26.4541C96.3277 26.4316 96.2971 26.4145 96.2641 26.4038C95.9644 26.3502 95.6565 26.3653 95.3634 26.4478C95.0704 26.5302 94.7999 26.6781 94.5721 26.8801C94.1941 27.2423 93.915 27.6951 93.7614 28.1955C93.7453 28.2618 93.7556 28.3317 93.7902 28.3904C93.8247 28.4492 93.8808 28.4922 93.9465 28.5103C94.0122 28.5285 94.0824 28.5203 94.1422 28.4876C94.202 28.4549 94.2467 28.4002 94.2669 28.3351C94.356 28.0555 94.4897 27.7922 94.6626 27.5551ZM92.8081 23.24C93.1403 23.0808 93.4936 22.9703 93.8573 22.9117C94.2315 22.8419 94.6163 22.8519 94.9864 22.9411C95.3565 23.0303 95.7036 23.1967 96.0049 23.4294C96.0552 23.4766 96.1215 23.5028 96.1905 23.5028C96.2594 23.5028 96.3258 23.4766 96.3761 23.4294C96.4249 23.3798 96.4522 23.313 96.4522 23.2434C96.4522 23.1739 96.4249 23.1071 96.3761 23.0574C96.0251 22.7763 95.6194 22.5712 95.1848 22.4554C94.7502 22.3396 94.2963 22.3156 93.8519 22.3848C93.3942 22.4413 92.9498 22.5773 92.5388 22.7867C92.2443 22.9455 92.5097 23.3988 92.8081 23.24ZM88.1394 24.9488C88.4761 24.9366 88.4776 24.412 88.1394 24.4235C87.4598 24.478 86.8103 24.7268 86.2683 25.1402C85.7262 25.5536 85.3145 26.1142 85.0822 26.7551C85.0642 26.8222 85.0734 26.8937 85.1077 26.9541C85.142 27.0145 85.1986 27.059 85.2655 27.078C85.333 27.0945 85.4043 27.0845 85.4647 27.0499C85.5251 27.0154 85.5699 26.959 85.5899 26.8924C85.7819 26.3569 86.1248 25.8885 86.5772 25.5436C87.0296 25.1987 87.5722 24.9922 88.1394 24.9488ZM98.1517 37.1271C97.021 38.2699 95.6079 39.093 94.056 39.5125C93.3951 39.711 92.7103 39.8186 92.0204 39.8323C91.9531 39.836 91.8899 39.8652 91.8436 39.9141C91.7973 39.9629 91.7715 40.0277 91.7715 40.095C91.7715 40.1623 91.7973 40.2271 91.8436 40.2759C91.8899 40.3248 91.9531 40.3541 92.0204 40.3577C92.504 40.3498 92.9857 40.2943 93.4585 40.192C95.3809 39.831 97.1472 38.8912 98.5206 37.4984C98.7607 37.2568 98.3895 36.8855 98.1517 37.1271ZM77.3708 45.752C77.1117 46.3486 76.6558 46.8383 76.0792 47.1394C75.7172 47.2798 75.6267 47.2039 75.5254 46.9093C75.2133 46.0066 75.4487 43.5668 75.5362 42.8957C75.5784 42.5597 75.0537 42.5651 75.0108 42.8957C74.9563 43.3168 74.8244 44.0462 74.6656 44.7004C74.486 45.7339 74.0821 46.7154 73.4822 47.5759C73.3566 47.7368 73.2027 47.8736 73.0281 47.9793C72.7827 48.1189 72.5994 48.1404 72.4253 47.5651C72.2275 46.7176 72.1677 45.8438 72.2481 44.9773C72.2711 44.3537 72.3148 43.7294 72.3892 43.1097C72.4245 42.8175 71.929 42.7507 71.8738 43.0399C71.6874 44.0048 70.9174 47.0114 69.9563 47.0674C69.6372 47.0858 69.4961 46.5305 69.4332 46.2198C69.259 44.7579 69.2786 43.2794 69.4915 41.8227C69.5345 41.489 69.0091 41.4921 68.9661 41.8227C68.746 43.319 68.7313 44.8384 68.9224 46.3387C69.0513 46.9784 69.4302 47.7998 70.2309 47.5475C71.0155 47.3013 71.4282 46.3042 71.702 45.5648C71.6851 46.3932 71.7242 48.1151 72.4559 48.5062C72.6291 48.5745 72.8183 48.5914 73.0008 48.5549C73.1834 48.5185 73.3516 48.4302 73.4852 48.3007C74.1656 47.6759 74.6433 46.8616 74.8566 45.9629C74.8493 46.4328 74.9468 46.8983 75.1419 47.3258C75.4487 47.8995 76.103 47.7661 76.5824 47.47C77.1234 47.109 77.5531 46.6044 77.8233 46.0127C77.9691 45.7128 77.5158 45.4467 77.3708 45.752ZM20.4677 121.746C21.1536 123.37 21.4195 125.141 21.2408 126.894C21.2063 127.229 21.7325 127.227 21.7662 126.894C21.9489 125.093 21.6764 123.275 20.9739 121.607C20.8451 121.299 20.3366 121.434 20.4677 121.746ZM35.184 130.9C32.2196 130.719 28.9982 130.952 26.6788 133.025C26.4265 133.251 26.7985 133.622 27.05 133.397C29.259 131.422 32.3722 131.255 35.184 131.426C35.5215 131.446 35.5207 130.92 35.184 130.9ZM50.9127 143.187C50.5967 143.066 50.4602 143.57 50.7731 143.693C53.0766 144.595 54.9281 146.374 55.9211 148.639C56.0569 148.946 56.5094 148.681 56.3744 148.374C55.313 145.989 53.3486 144.124 50.9127 143.187ZM67.7619 141.95C67.5184 141.01 67.415 140.039 67.4552 139.069C67.469 138.73 66.9443 138.731 66.9305 139.069C66.8899 140.086 66.9995 141.104 67.2557 142.089C67.2777 142.152 67.3228 142.204 67.3818 142.235C67.4408 142.266 67.5094 142.274 67.5736 142.256C67.6379 142.238 67.6931 142.197 67.728 142.14C67.763 142.084 67.7751 142.016 67.7619 141.95Z" fill="black"/>
<path d="M56.1616 24.7262L54.6721 21.8883C54.6366 21.8286 54.5791 21.7853 54.512 21.7677C54.4448 21.75 54.3734 21.7595 54.3132 21.794C52.905 22.6453 51.4633 23.4379 49.9881 24.1716C49.9208 24.1643 49.8532 24.181 49.7971 24.2188C49.7409 24.2567 49.7001 24.3131 49.6817 24.3783C49.6633 24.4434 49.6686 24.5129 49.6966 24.5745C49.7246 24.6361 49.7735 24.6857 49.8347 24.7147C50.7715 26.0439 51.5058 27.5049 52.0137 29.0497C51.8184 29.0147 51.617 29.0437 51.4396 29.1324C51.2621 29.2211 51.1181 29.3648 51.0289 29.5421C50.9794 29.6711 50.9627 29.8103 50.9803 29.9473C50.9979 30.0843 51.0492 30.2148 51.1296 30.3271C51.21 30.4393 51.3171 30.5299 51.4411 30.5906C51.5652 30.6513 51.7024 30.6803 51.8404 30.675C52.612 30.6903 52.7777 29.8903 52.6258 29.2798C52.1356 27.5966 51.3731 26.005 50.3685 24.5682C51.7205 23.8917 53.0461 23.1651 54.3454 22.3884C56.144 25.8222 56.3956 26.1597 56.5804 26.9006C56.3711 26.837 56.1459 26.851 55.9462 26.9401C55.7464 27.0291 55.5854 27.1872 55.4928 27.3853C55.4463 27.515 55.4322 27.6541 55.4518 27.7904C55.4714 27.9268 55.5241 28.0563 55.6053 28.1676C55.6865 28.2789 55.7937 28.3686 55.9175 28.4289C56.0414 28.4892 56.1781 28.5183 56.3158 28.5136C57.0866 28.5328 57.2484 27.6975 57.1595 27.0923C56.9627 26.253 56.6253 25.453 56.1616 24.7262ZM51.7714 30.1358C51.3879 30.0591 51.4577 29.7523 51.6486 29.6104C51.7059 29.5599 51.7797 29.5321 51.8561 29.5325C51.9324 29.5328 52.006 29.5612 52.0628 29.6122C52.1196 29.6632 52.1556 29.7334 52.1641 29.8092C52.1726 29.8851 52.1529 29.9615 52.1088 30.0238C52.0521 30.1235 51.9478 30.1718 51.7714 30.1358ZM55.9821 27.564C56.1831 27.1967 56.934 27.3961 56.575 27.8754C56.3749 28.1424 55.8111 27.8754 55.9821 27.564ZM71.0689 13.5411C71.0144 13.2083 70.5082 13.3502 70.5627 13.6807C70.8234 15.2699 71.6679 16.0891 71.9394 18.5327C72.0026 19.0808 72.019 19.6332 71.9885 20.1841C71.9111 20.059 71.7983 19.9598 71.6644 19.899C71.5306 19.8381 71.3816 19.8184 71.2365 19.8423C71.0915 19.8662 70.9567 19.9327 70.8495 20.0333C70.7422 20.1338 70.6672 20.264 70.634 20.4072C70.6008 20.5718 70.6156 20.7424 70.6765 20.8989C70.7375 21.0553 70.8421 21.1909 70.9779 21.2896C71.1137 21.3883 71.2749 21.446 71.4425 21.4557C71.6101 21.4654 71.777 21.4268 71.9233 21.3445C72.5714 20.9695 72.5461 20.0475 72.5262 19.4025C72.4326 16.346 71.3496 15.2508 71.0689 13.5411ZM71.1732 20.7593C71.0198 20.4832 71.424 20.1534 71.5459 20.4448C71.5728 20.5083 71.6216 20.5599 71.6835 20.5904C71.7453 20.6208 71.816 20.6279 71.8827 20.6105C71.7423 20.9388 71.3435 21.0692 71.1732 20.7593ZM101.384 4.03121C101.366 3.96399 101.321 3.90692 101.26 3.87254C101.2 3.83817 101.128 3.8293 101.061 3.8479C99.841 4.3345 98.5386 4.58012 97.2256 4.57118C97.1635 4.57367 97.1043 4.59801 97.0583 4.6399C97.0124 4.6818 96.9828 4.73855 96.9746 4.80017C96.9665 4.86178 96.9803 4.9243 97.0137 4.9767C97.0472 5.0291 97.098 5.06802 97.1573 5.08659C97.409 6.23711 97.563 7.40685 97.6175 8.58331C97.6321 8.90161 97.6605 9.24292 97.6505 9.5804C97.3205 9.47912 96.9711 9.45757 96.6312 9.5175C96.587 9.52877 96.5466 9.55174 96.5144 9.584C96.4821 9.61625 96.4591 9.65661 96.4479 9.70081C96.3512 10.2423 96.6013 11.1121 97.2517 11.1957C98.7948 11.3959 98.0187 6.61597 97.6973 5.0912C98.803 5.05056 99.8953 4.83572 100.934 4.45459C101.256 5.84648 101.473 7.26037 101.585 8.68455C101.62 9.02186 101.631 9.36118 101.619 9.70005C101.446 9.60817 101.252 9.56335 101.056 9.57008C100.86 9.57681 100.669 9.63485 100.503 9.7384C100.382 9.82356 100.288 9.94205 100.232 10.0795C100.177 10.217 100.162 10.3676 100.191 10.5131C100.219 10.6586 100.289 10.7928 100.392 10.8993C100.495 11.0059 100.627 11.0803 100.771 11.1136C101.538 11.3146 102.037 10.5039 102.111 9.86188C102.289 8.34707 101.684 5.46549 101.384 4.03121ZM97.4012 10.5844C97.3 10.7063 97.2478 10.6427 97.1497 10.5353C97.0225 10.3874 96.9502 10.2003 96.9449 10.0053C97.1655 9.99383 97.386 10.0299 97.5914 10.1112C97.5651 10.2814 97.5 10.4433 97.4012 10.5844ZM101.153 10.5652C100.975 10.6457 100.593 10.5499 100.689 10.2807C100.73 10.1633 100.89 10.1311 100.995 10.1119C101.081 10.0913 101.169 10.0864 101.256 10.0973C101.26 10.1483 101.278 10.1971 101.309 10.238C101.34 10.2788 101.381 10.3099 101.429 10.3274C101.361 10.431 101.266 10.5136 101.153 10.566V10.5652ZM118.993 19.7499C118.967 19.582 118.091 15.1419 118.076 15.0652C118.011 14.7338 117.504 14.8742 117.569 15.2047C117.848 16.6229 118.461 19.7216 118.483 19.8558C118.325 19.7489 118.136 19.6971 117.946 19.7085C117.786 19.714 117.631 19.7622 117.496 19.8479C117.361 19.9337 117.251 20.054 117.178 20.1963C117.105 20.3387 117.072 20.4979 117.081 20.6576C117.09 20.8173 117.142 20.9715 117.231 21.1044C117.328 21.2402 117.459 21.348 117.611 21.4168C117.763 21.4857 117.931 21.5131 118.097 21.4964C118.263 21.4796 118.422 21.4193 118.557 21.3215C118.692 21.2237 118.799 21.092 118.867 20.9395C119.037 20.5671 119.081 20.1496 118.993 19.7499ZM117.977 20.9932C117.915 20.9889 117.854 20.9702 117.801 20.9388C117.747 20.9074 117.702 20.864 117.667 20.812C117.633 20.76 117.612 20.7009 117.604 20.6392C117.597 20.5775 117.604 20.5149 117.624 20.4563C117.664 20.3881 117.721 20.3316 117.79 20.2928C117.859 20.254 117.937 20.2342 118.016 20.2354C118.026 20.285 118.048 20.3316 118.079 20.3715C118.11 20.4115 118.15 20.4438 118.195 20.466C118.241 20.4882 118.291 20.4997 118.341 20.4996C118.392 20.4996 118.442 20.4879 118.487 20.4655C118.434 20.7087 118.256 21.0063 117.977 20.9932ZM58.9673 5.62426C58.9311 5.56531 58.8736 5.52265 58.8066 5.50521C58.7397 5.48777 58.6687 5.4969 58.6083 5.53068C57.447 6.15584 56.2453 6.70289 55.0111 7.16821C54.5878 7.35766 54.6767 7.67059 54.8079 7.9444C55.4633 9.20055 56.0245 10.5037 56.4868 11.843C56.3437 11.8884 56.215 11.9706 56.1136 12.0814C56.0123 12.1922 55.9418 12.3277 55.9093 12.4743C55.8724 12.6176 55.865 12.7669 55.8874 12.9132C55.9098 13.0595 55.9616 13.1998 56.0396 13.3256C56.1176 13.4513 56.2203 13.56 56.3415 13.645C56.4626 13.7301 56.5997 13.7897 56.7445 13.8203C56.887 13.8416 57.0324 13.8106 57.1537 13.7328C57.275 13.6551 57.364 13.5361 57.4041 13.3977C57.4477 13.0477 57.3871 12.6926 57.23 12.3768C56.6844 10.7532 56.0234 9.17073 55.252 7.64144C56.402 7.18726 57.5284 6.67528 58.6267 6.10746C59.3894 7.52922 60.0589 8.99907 60.6309 10.5077C60.4509 10.496 60.2714 10.5369 60.1141 10.6252C59.9569 10.7136 59.8287 10.8457 59.745 11.0055C59.6614 11.1653 59.6259 11.346 59.6429 11.5255C59.66 11.7051 59.7287 11.8759 59.8409 12.0171C59.9575 12.1685 60.1213 12.2768 60.3062 12.3248C60.4912 12.3729 60.6869 12.358 60.8625 12.2825C61.0296 12.1912 61.1677 12.0548 61.2611 11.8888C61.3544 11.7228 61.3991 11.5339 61.3902 11.3437C61.3327 10.8414 61.1859 10.3533 60.9569 9.90253C60.3813 8.43731 59.7168 7.00856 58.9673 5.62426ZM56.4431 12.9621C56.3946 12.8533 56.3851 12.7311 56.4163 12.6161C56.5359 12.2096 56.6893 12.4144 56.7353 12.5333C57.2392 13.8127 56.5221 13.1507 56.4431 12.9621ZM60.7145 11.7617C60.4921 11.9565 60.196 11.7356 60.1569 11.4879C60.1506 11.4234 60.1594 11.3582 60.1827 11.2977C60.206 11.2371 60.2431 11.1829 60.2911 11.1392C60.3391 11.0956 60.3966 11.0637 60.459 11.0462C60.5215 11.0287 60.5872 11.0261 60.6508 11.0384C60.7044 11.0453 60.7587 11.0331 60.8042 11.0039C60.8616 11.1256 60.8837 11.261 60.8678 11.3946C60.8519 11.5282 60.7988 11.6546 60.7145 11.7594V11.7617ZM62.1595 79.2938C61.0141 79.4172 59.878 79.6158 58.7587 79.8882C58.6283 79.0292 58.4562 78.1781 58.2425 77.3349C59.2121 77.0738 60.1953 76.8664 61.1877 76.7136C61.1202 77.1623 61.608 77.4438 62.0682 77.4875C62.1846 77.529 62.3095 77.541 62.4316 77.5225C62.5538 77.5041 62.6695 77.4557 62.7685 77.3817C63.5639 77.0281 63.2969 76.1944 62.3674 76.0939C62.0597 76.0631 61.7491 76.0807 61.447 76.146C60.2352 76.3167 59.0359 76.5662 57.8567 76.8931C57.7903 76.9128 57.7341 76.9574 57.6999 77.0176C57.6658 77.0778 57.6562 77.1489 57.6734 77.216C58.4074 80.0002 58.129 80.3492 58.4649 80.386C58.695 80.6023 58.9903 80.2111 61.7714 79.8667C61.7883 80.2502 62.24 80.5516 62.7992 80.5516C63.3583 80.5516 63.83 80.2356 63.83 79.8452C63.8285 79.2631 62.8452 78.9233 62.1595 79.2938ZM69.8938 78.5084L68.1259 74.8168C68.0731 74.7065 67.9862 74.6161 67.878 74.559C67.7699 74.5018 67.6463 74.4809 67.5254 74.4993L67.0061 74.576C66.9213 74.5888 66.8406 74.6206 66.7698 74.6689C66.699 74.7173 66.64 74.781 66.5972 74.8553C66.5545 74.9296 66.529 75.0126 66.5228 75.0981C66.5166 75.1836 66.5297 75.2694 66.5613 75.3491L68.0607 79.1611C68.1118 79.2898 68.2078 79.3956 68.3309 79.4589C68.454 79.5223 68.5959 79.5388 68.7303 79.5055L69.518 79.3068C69.5999 79.2863 69.6763 79.2478 69.7415 79.1942C69.8068 79.1406 69.8593 79.0731 69.8952 78.9967C69.9312 78.9203 69.9497 78.8368 69.9495 78.7524C69.9493 78.6679 69.9302 78.5846 69.8938 78.5084Z" fill="#DCBEFF"/>
<path d="M103.234 32.7505C103.339 32.7505 103.439 32.7098 103.514 32.637C103.588 32.5642 103.631 32.4651 103.634 32.3609C103.634 32.2842 103.661 30.1029 103.66 30.0254C103.651 28.7813 103.154 27.3279 101.785 27.3279C101.523 27.3556 101.272 27.4469 101.054 27.594C100.836 27.7411 100.657 27.9394 100.533 28.1716C100.373 28.5279 100.361 28.9333 100.499 29.2986C100.638 29.6639 100.915 29.9593 101.272 30.1197C101.424 30.1933 101.594 30.2252 101.763 30.2124C101.932 30.1997 102.094 30.1425 102.234 30.0469C102.234 30.1128 102.247 31.3768 102.263 32.2803C102.265 32.4056 102.316 32.5251 102.405 32.613C102.494 32.7008 102.614 32.75 102.74 32.7497L103.234 32.7505ZM102.586 29.4793C102.447 29.4141 102.356 29.5176 102.078 29.6549C101.174 30.1542 100.621 28.8036 100.883 28.4055C101.22 27.8962 101.604 27.6132 102.174 27.8088C102.839 28.0228 103.109 28.8059 103.205 29.5169C103.255 29.8958 103.218 31.9183 103.193 32.3302H102.675C102.652 29.5038 102.691 29.5445 102.586 29.477V29.4793Z" fill="black"/>
</svg>
