<svg width="490" height="151" viewBox="0 0 490 151" fill="none" xmlns="http://www.w3.org/2000/svg">
<g clip-path="url(#clip0_1_2)">
<rect width="490" height="151" fill="white"/>
<rect width="490" height="151" fill="#040404"/>
<path fill-rule="evenodd" clip-rule="evenodd" d="M210.582 77.1003C210.582 92.0404 210.637 98.2158 210.703 90.8233C210.77 83.4308 210.77 71.2071 210.704 63.6595C210.637 56.1119 210.582 62.1602 210.582 77.1003ZM352.043 55.7391C353.895 55.8215 356.817 55.821 358.535 55.7382C360.249 55.655 358.73 55.5879 355.159 55.5884C351.588 55.5888 350.186 55.6567 352.043 55.7391ZM102.784 66.1472C102.785 70.4846 102.85 72.1999 102.928 69.9584C103.007 67.7174 103.007 64.1686 102.928 62.0722C102.848 59.9762 102.784 61.8097 102.784 66.1472ZM277.232 87.1772C277.232 97.2979 277.289 101.375 277.358 96.2389C277.428 91.1019 277.428 82.8213 277.358 77.8377C277.289 72.8536 277.232 77.0565 277.232 87.1772ZM402.735 77.7575C402.735 82.6974 402.8 84.7184 402.878 82.2483C402.952 79.7781 402.952 75.7369 402.878 73.2667C402.8 70.7966 402.735 72.8176 402.735 77.7575ZM321.399 83.6687C317.828 84.2282 313.787 84.7535 312.419 84.8363C311.051 84.9191 309.931 85.1342 309.93 85.3152C309.929 85.4961 308.679 85.6437 307.151 85.6437C305.623 85.6437 304.045 85.7708 303.645 85.9263C302.495 86.3732 305.856 87.3818 308.522 87.3897C309.829 87.3936 310.794 87.5934 310.794 87.8602C310.794 88.1152 310.988 88.2028 311.225 88.0547C311.582 87.8317 318.553 88.6147 318.916 88.9187C318.978 88.9713 318.735 89.7284 318.374 90.6007C312.313 105.286 334.461 114.996 341.62 100.791C347.407 89.3056 337.729 81.1109 321.399 83.6687ZM245.594 93.0919C245.594 95.3811 245.667 96.3173 245.756 95.173C245.845 94.0286 245.845 92.1552 245.756 91.0108C245.667 89.8664 245.594 90.8027 245.594 93.0919Z" fill="#C6FE05"/>
<path fill-rule="evenodd" clip-rule="evenodd" d="M47.6367 54.083V59.7628L51.8567 59.8881L56.0767 60.0134L56.2932 82.7959L56.5096 105.578H63.4348H70.36L70.5764 82.7959L70.7928 60.0134L75.0128 59.8881L79.2329 59.7628V54.083V48.4031H63.4348H47.6367V54.083ZM174.454 77.1113V105.82L181.271 105.699L188.088 105.578L188.305 86.9581C188.534 67.2653 188.536 67.2425 190.448 67.2425C192.361 67.2425 192.403 67.6267 192.633 87.1772L192.849 105.578H199.558H206.267L206.386 85.8628C206.515 64.3579 206.495 64.1423 203.984 60.728C200.965 56.6228 193.609 56.66 189.609 60.8007L188.305 62.1515V55.2773V48.4031H181.38H174.454V77.1113ZM210.812 76.6249C210.812 92.188 210.812 105.069 210.812 105.25C210.812 105.431 213.879 105.578 217.629 105.578H224.446L224.662 93.9681L224.879 82.3578L230.289 82.119C240.502 81.6686 242.528 79.0929 242.767 66.2576C242.968 55.4087 241.866 52.5482 236.448 49.8551L233.968 48.6222L222.39 48.4754L210.812 48.3291V76.6249ZM348.74 48.6953C348.58 48.8557 348.45 50.4329 348.45 52.2003V55.4131H354.942C358.513 55.4131 361.582 55.4622 361.759 55.5226C361.937 55.5831 362.14 54.0059 362.21 52.0176L362.335 48.4031H355.683C352.021 48.4031 348.896 48.5346 348.74 48.6953ZM100.501 58.2053C98.4919 58.9387 95.8391 61.2836 94.8297 63.2179L93.987 64.8328L93.968 61.8755L93.9489 58.9181H87.2363H80.5236L80.6357 82.2483L80.7478 105.578H87.4566H94.1654L94.3818 91.976C94.641 75.683 94.9851 74.6775 100.4 74.3993C101.494 74.3428 102.486 74.2867 102.605 74.2748C102.971 74.2372 102.668 57.8416 102.301 57.7553C102.111 57.7106 101.301 57.9131 100.501 58.2053ZM114.712 58.1685C107.766 59.772 105.202 63.5833 105.202 72.3081V76.9045L111.587 76.7835L117.971 76.6622L118.088 71.1856C118.207 65.5675 118.516 64.6137 120.218 64.6137C121.882 64.6137 122.515 66.2519 122.515 70.5573C122.515 76.4707 121.931 77.1327 114.231 79.945C105.891 82.9904 105.202 84.0104 105.202 93.3109C105.202 105.998 112.544 110.898 121.513 104.198L122.891 103.169L123.028 104.374L123.165 105.578L129.709 105.699L136.253 105.82L136.526 104.439C137.679 98.6044 136.556 67.0703 135.086 63.9964C132.696 58.9979 123.061 56.2416 114.712 58.1685ZM149.45 58.2535C144.335 59.7137 141.645 62.4222 140.463 67.3016C138.38 75.9082 141.349 81.3199 150.886 86.2965C156.688 89.3244 157.395 90.2901 157.145 94.8444C156.832 100.54 152.38 98.0992 152.38 92.2327V88.6874L145.996 88.8083L139.612 88.9297L139.641 93.3109C139.754 110.35 167.775 112.868 170.571 96.09C172.055 87.182 169.483 82.4739 160.466 77.5862C152.319 73.1712 149.21 66.8044 155.201 66.8044C156.893 66.8044 157.058 67.1571 157.246 71.1856L157.358 73.5953L163.742 73.7167L170.126 73.8376V70.0211C170.126 60.5904 160.485 55.1034 149.45 58.2535ZM255.323 58.1816C248.638 59.7159 246.187 63.2021 245.94 71.526L245.781 76.9053L252.21 76.7835L258.639 76.6622L258.855 71.059C259.108 64.5266 259.98 63.1237 262.318 65.49C266.421 69.6434 263.005 76.7336 255.462 79.7194C245.972 83.4764 245.874 83.6126 245.872 93.1085C245.869 105.78 253.084 110.886 261.879 104.438L263.562 103.203L263.697 104.391L263.833 105.578L270.446 105.699L277.06 105.82L276.938 85.9837L276.818 66.1472L275.786 64.0266C273.32 58.9562 263.798 56.2368 255.323 58.1816ZM291.75 57.8776C285.205 59.1617 281.923 62.4827 280.92 68.836C279.665 76.7871 282.38 81.4404 290.86 85.8738C297.421 89.3039 299.991 93.6268 297.37 96.8238C295.24 99.4223 293.048 97.095 293.048 92.2327V88.6874L286.664 88.8083L280.28 88.9297L280.309 93.3109C280.376 103.286 283.931 106.465 294.996 106.442C307.751 106.416 314.073 99.7365 311.26 89.2583L310.761 87.3962L308.505 87.3897C305.852 87.3818 302.498 86.3719 303.645 85.9263C304.045 85.7708 305.623 85.6437 307.151 85.6437C312.271 85.6437 309.73 82.3955 300.643 77.3246C293.363 73.2623 290.15 66.8044 295.409 66.8044C297.465 66.8044 297.809 67.2026 297.816 69.5895C297.827 74.0834 297.447 73.8542 304.68 73.7162L311.011 73.5953L310.963 70.2822C310.832 61.1547 302.491 55.7702 291.75 57.8776ZM324.821 58.0555C315.181 59.9898 310.478 74.0023 317.261 80.5799L318.51 81.7913L321.469 80.5497C327.951 77.8307 336.162 78.9623 341.685 83.3357C344.304 85.408 344.429 84.8038 341.919 82.2224C340.547 80.8143 337.028 78.5974 332.695 76.4164C327.979 74.0418 326.38 71.3447 327.664 67.9282C328.943 64.5204 332.003 66.9998 332.003 71.445V73.8376L338.387 73.7167L344.771 73.5953L344.659 69.7398C344.399 60.5138 336.309 55.75 324.821 58.0555ZM385.786 58.1483C385.015 58.3985 383.574 59.3641 382.578 60.2943C380.384 62.3429 380.479 62.3359 380.479 60.4516V58.9181H373.55H366.62L366.733 82.2483L366.845 105.578H373.554H380.263L380.479 86.9581C380.709 67.2337 380.709 67.2425 382.643 67.2425C384.578 67.2425 384.578 67.2337 384.807 86.9581L385.024 105.578L391.841 105.699L398.658 105.82V85.8904C398.658 67.0243 398.61 65.8357 397.792 63.6157C395.961 58.671 391.057 56.4361 385.786 58.1483ZM409.729 58.1479C400.761 60.5484 399.48 92.6691 408.145 97.8271C411.634 99.9016 416.417 99.4153 420.667 96.5544L422.117 95.5778L421.965 99.8473C421.836 103.46 421.684 104.212 420.974 104.738C419.04 106.17 416.836 104.817 416.836 102.195V100.978H410.128H403.419V102.215C403.419 114.57 428.449 116.487 434.245 104.575L435.664 101.655L435.79 80.2868L435.911 58.9181H429.189H422.463V60.4516C422.463 62.3657 422.368 62.36 420.065 60.3096C417.196 57.7532 413.833 57.0495 409.729 58.1479ZM224.662 65.4913V73.0494L226.907 72.8312C232.649 72.2726 232.782 58.6149 227.05 58.1339L224.662 57.9332V65.4913ZM348.554 82.2483L348.667 105.578L355.484 105.699L362.301 105.82V82.3688V58.9181H355.371H348.441L348.554 82.2483ZM417.139 68.4605C416.07 69.657 416.031 87.1001 417.092 88.637C420.1 92.9788 422.017 89.08 422.017 78.6337C422.017 68.17 420.403 64.8074 417.139 68.4605ZM120.351 85.0637L118.404 86.8933L118.256 91.7626C118.099 96.9833 118.38 97.9112 120.121 97.9112C122.246 97.9112 122.55 96.8361 122.419 89.7582L122.299 83.2341L120.351 85.0637ZM260.783 85.2258L259.072 86.998L258.925 91.8147C258.767 96.9807 259.052 97.9112 260.789 97.9112C262.861 97.9112 263.184 96.8295 263.184 89.8809C263.184 82.7364 263.184 82.7377 260.783 85.2258Z" fill="#F6F8EE"/>
</g>
<defs>
<clipPath id="clip0_1_2">
<rect width="490" height="151" fill="white"/>
</clipPath>
</defs>
</svg>
